<svg version="1.1" xmlns="http://www.w3.org/2000/svg" viewBox="0 0 865.699159511069 610.459457353054" width="865.699159511069" height="610.459457353054">
  <!-- svg-source:excalidraw -->
  
  <defs>
    <style class="style-fonts">
      @font-face {
        font-family: "Virgil";
        src: url("https://excalidraw.com/Virgil.woff2");
      }
      @font-face {
        font-family: "Cascadia";
        src: url("https://excalidraw.com/Cascadia.woff2");
      }
      @font-face {
        font-family: "Assistant";
        src: url("https://excalidraw.com/Assistant-Regular.woff2");
      }
    </style>
    
  </defs>
  <rect x="0" y="0" width="865.699159511069" height="610.459457353054" fill="#ffffff"></rect><g transform="translate(417.5703923324236 48.29600799457717) rotate(0 15.811501844270197 7.117175363502952)"><text x="0" y="0" font-family="Virgil, Segoe UI Emoji" font-size="11.387480581604754px" fill="#000000" text-anchor="start" style="white-space: pre;" direction="ltr" dominant-baseline="text-before-edge">Users</text></g><g stroke-linecap="round" transform="translate(440.5974819604612 10.000000000000114) rotate(0 5.622666364954512 4.919833069335311)"><path d="M1.62 1.41 C1.62 1.41, 1.62 1.41, 1.62 1.41 M1.62 1.41 C1.62 1.41, 1.62 1.41, 1.62 1.41 M5.03 9.68 C6.81 7.63, 8.59 5.58, 10.94 2.88 M5.03 9.68 C7.28 7.1, 9.52 4.52, 10.94 2.88 M1.85 8.55 C1.85 8.55, 1.85 8.55, 1.85 8.55 M1.85 8.55 C1.85 8.55, 1.85 8.55, 1.85 8.55 M11.62 6.45 C9.25 4.38, 6.88 2.32, 4.08 -0.12 M11.62 6.45 C10.02 5.05, 8.42 3.66, 4.08 -0.12" stroke="#ced4da" stroke-width="1" fill="none"></path><path d="M11.25 4.92 C11.25 5.2, 11.22 5.49, 11.16 5.77 C11.1 6.05, 11.02 6.33, 10.91 6.6 C10.79 6.87, 10.65 7.13, 10.49 7.38 C10.33 7.63, 10.14 7.86, 9.93 8.08 C9.72 8.3, 9.49 8.51, 9.24 8.69 C8.99 8.87, 8.72 9.04, 8.43 9.18 C8.15 9.32, 7.85 9.45, 7.55 9.54 C7.24 9.64, 6.92 9.72, 6.6 9.76 C6.28 9.81, 5.95 9.84, 5.62 9.84 C5.3 9.84, 4.97 9.81, 4.65 9.76 C4.33 9.72, 4.01 9.64, 3.7 9.54 C3.39 9.45, 3.09 9.32, 2.81 9.18 C2.53 9.04, 2.26 8.87, 2.01 8.69 C1.76 8.51, 1.52 8.3, 1.32 8.08 C1.11 7.86, 0.92 7.63, 0.75 7.38 C0.59 7.13, 0.45 6.87, 0.34 6.6 C0.23 6.33, 0.14 6.05, 0.09 5.77 C0.03 5.49, 0 5.2, 0 4.92 C0 4.64, 0.03 4.35, 0.09 4.07 C0.14 3.79, 0.23 3.5, 0.34 3.24 C0.45 2.97, 0.59 2.71, 0.75 2.46 C0.92 2.21, 1.11 1.98, 1.32 1.76 C1.52 1.54, 1.76 1.33, 2.01 1.15 C2.26 0.97, 2.53 0.8, 2.81 0.66 C3.09 0.52, 3.39 0.39, 3.7 0.3 C4.01 0.2, 4.33 0.12, 4.65 0.07 C4.97 0.03, 5.3 0, 5.62 0 C5.95 0, 6.28 0.03, 6.6 0.07 C6.92 0.12, 7.24 0.2, 7.55 0.3 C7.85 0.39, 8.15 0.52, 8.43 0.66 C8.72 0.8, 8.99 0.97, 9.24 1.15 C9.49 1.33, 9.72 1.54, 9.93 1.76 C10.14 1.98, 10.33 2.21, 10.49 2.46 C10.65 2.71, 10.79 2.97, 10.91 3.24 C11.02 3.5, 11.1 3.79, 11.16 4.07 C11.22 4.35, 11.23 4.78, 11.25 4.92 C11.26 5.06, 11.26 4.78, 11.25 4.92" stroke="#000000" stroke-width="2" fill="none"></path></g><g stroke-linecap="round" transform="translate(416.00981943380793 10.331983653194811) rotate(0 5.622666364954512 4.919833069335311)"><path d="M1.62 1.41 C1.62 1.41, 1.62 1.41, 1.62 1.41 M1.62 1.41 C1.62 1.41, 1.62 1.41, 1.62 1.41 M5.03 9.68 C6.44 8.06, 7.84 6.45, 10.94 2.88 M5.03 9.68 C6.84 7.6, 8.65 5.52, 10.94 2.88 M1.85 8.55 C1.85 8.55, 1.85 8.55, 1.85 8.55 M1.85 8.55 C1.85 8.55, 1.85 8.55, 1.85 8.55 M11.62 6.45 C9.62 4.7, 7.62 2.96, 4.08 -0.12 M11.62 6.45 C9.62 4.7, 7.61 2.96, 4.08 -0.12" stroke="#ced4da" stroke-width="1" fill="none"></path><path d="M11.25 4.92 C11.25 5.2, 11.22 5.49, 11.16 5.77 C11.1 6.05, 11.02 6.33, 10.91 6.6 C10.79 6.87, 10.65 7.13, 10.49 7.38 C10.33 7.63, 10.14 7.86, 9.93 8.08 C9.72 8.3, 9.49 8.51, 9.24 8.69 C8.99 8.87, 8.72 9.04, 8.43 9.18 C8.15 9.32, 7.85 9.45, 7.55 9.54 C7.24 9.64, 6.92 9.72, 6.6 9.76 C6.28 9.81, 5.95 9.84, 5.62 9.84 C5.3 9.84, 4.97 9.81, 4.65 9.76 C4.33 9.72, 4.01 9.64, 3.7 9.54 C3.39 9.45, 3.09 9.32, 2.81 9.18 C2.53 9.04, 2.26 8.87, 2.01 8.69 C1.76 8.51, 1.52 8.3, 1.32 8.08 C1.11 7.86, 0.92 7.63, 0.75 7.38 C0.59 7.13, 0.45 6.87, 0.34 6.6 C0.23 6.33, 0.14 6.05, 0.09 5.77 C0.03 5.49, 0 5.2, 0 4.92 C0 4.64, 0.03 4.35, 0.09 4.07 C0.14 3.79, 0.23 3.5, 0.34 3.24 C0.45 2.97, 0.59 2.71, 0.75 2.46 C0.92 2.21, 1.11 1.98, 1.32 1.76 C1.52 1.54, 1.76 1.33, 2.01 1.15 C2.26 0.97, 2.53 0.8, 2.81 0.66 C3.09 0.52, 3.39 0.39, 3.7 0.3 C4.01 0.2, 4.33 0.12, 4.65 0.07 C4.97 0.03, 5.3 0, 5.62 0 C5.95 0, 6.28 0.03, 6.6 0.07 C6.92 0.12, 7.24 0.2, 7.55 0.3 C7.85 0.39, 8.15 0.52, 8.43 0.66 C8.72 0.8, 8.99 0.97, 9.24 1.15 C9.49 1.33, 9.72 1.54, 9.93 1.76 C10.14 1.98, 10.33 2.21, 10.49 2.46 C10.65 2.71, 10.79 2.97, 10.91 3.24 C11.02 3.5, 11.1 3.79, 11.16 4.07 C11.22 4.35, 11.23 4.78, 11.25 4.92 C11.26 5.06, 11.26 4.78, 11.25 4.92" stroke="#000000" stroke-width="2" fill="none"></path></g><g stroke-linecap="round"><g transform="translate(421.9608143025657 43.88578490901182) rotate(0 11.90162593696914 -10.598056101226291)" fill-rule="evenodd"><path d="M6.93 -19.15 C6.93 -19.15, 6.93 -19.15, 6.93 -19.15 M6.93 -19.15 C6.93 -19.15, 6.93 -19.15, 6.93 -19.15 M0.5 0.44 C6.09 -6, 11.68 -12.43, 16.9 -18.43 M0.5 0.44 C7.03 -7.07, 13.56 -14.59, 16.9 -18.43 M11.13 0.4 C14.09 -3, 17.05 -6.41, 22.28 -12.43 M11.13 0.4 C14.09 -3.01, 17.05 -6.41, 22.28 -12.43 M23.07 -1.14 C23.66 -1.82, 24.25 -2.49, 25.7 -4.16 M23.07 -1.14 C23.98 -2.19, 24.89 -3.24, 25.7 -4.16 M0 0 C0 0, 0 0, 0 0 M0 0 C0 0, 0 0, 0 0 M12.04 -0.13 C9.57 -2.28, 7.1 -4.43, 1.47 -9.32 M12.04 -0.13 C8.06 -3.6, 4.07 -7.06, 1.47 -9.32 M22.57 -1.58 C17.67 -5.84, 12.76 -10.1, 5.21 -16.67 M22.57 -1.58 C16.55 -6.82, 10.52 -12.06, 5.21 -16.67 M21.78 -12.86 C19.37 -14.96, 16.96 -17.06, 11.97 -21.39 M21.78 -12.86 C18.99 -15.29, 16.2 -17.72, 11.97 -21.39" stroke="#ced4da" stroke-width="1" fill="none"></path><path d="M0 0 C0.44 -2.34, 0.76 -10.51, 2.67 -14.05 C4.57 -17.58, 8.51 -20.94, 11.43 -21.2 C14.35 -21.45, 18.12 -18.87, 20.19 -15.58 C22.25 -12.29, 27.17 -4.05, 23.8 -1.46 C20.44 1.14, 3.97 -0.24, 0 0 M0 0 C0.44 -2.34, 0.76 -10.51, 2.67 -14.05 C4.57 -17.58, 8.51 -20.94, 11.43 -21.2 C14.35 -21.45, 18.12 -18.87, 20.19 -15.58 C22.25 -12.29, 27.17 -4.05, 23.8 -1.46 C20.44 1.14, 3.97 -0.24, 0 0" stroke="#000000" stroke-width="2" fill="none"></path></g></g><mask></mask><g stroke-linecap="round" transform="translate(427.931339921 11.673727455590665) rotate(0 6.093632479728285 5.331928419762221)"><path d="M1.1 2.28 C1.1 2.28, 1.1 2.28, 1.1 2.28 M1.1 2.28 C1.1 2.28, 1.1 2.28, 1.1 2.28 M4.51 10.55 C6.09 8.73, 7.67 6.91, 11.73 2.25 M4.51 10.55 C6.14 8.68, 7.76 6.81, 11.73 2.25 M2.31 9.53 C2.31 9.53, 2.31 9.53, 2.31 9.53 M2.31 9.53 C2.31 9.53, 2.31 9.53, 2.31 9.53 M12.09 7.43 C9.86 5.5, 7.63 3.56, 3.79 0.22 M12.09 7.43 C10.15 5.75, 8.21 4.06, 3.79 0.22" stroke="#ced4da" stroke-width="1" fill="none"></path><path d="M12.19 5.33 C12.19 5.64, 12.16 5.95, 12.09 6.26 C12.03 6.56, 11.94 6.87, 11.82 7.16 C11.7 7.45, 11.55 7.73, 11.37 8 C11.19 8.27, 10.99 8.52, 10.76 8.76 C10.53 9, 10.28 9.22, 10.01 9.42 C9.74 9.61, 9.45 9.8, 9.14 9.95 C8.83 10.1, 8.51 10.24, 8.18 10.34 C7.85 10.45, 7.5 10.53, 7.15 10.58 C6.8 10.64, 6.45 10.66, 6.09 10.66 C5.74 10.66, 5.38 10.64, 5.04 10.58 C4.69 10.53, 4.34 10.45, 4.01 10.34 C3.68 10.24, 3.35 10.1, 3.05 9.95 C2.74 9.8, 2.45 9.61, 2.18 9.42 C1.91 9.22, 1.65 9, 1.43 8.76 C1.2 8.52, 0.99 8.27, 0.82 8 C0.64 7.73, 0.49 7.45, 0.37 7.16 C0.25 6.87, 0.15 6.56, 0.09 6.26 C0.03 5.95, 0 5.64, 0 5.33 C0 5.02, 0.03 4.71, 0.09 4.41 C0.15 4.1, 0.25 3.8, 0.37 3.51 C0.49 3.22, 0.64 2.93, 0.82 2.67 C0.99 2.4, 1.2 2.14, 1.43 1.9 C1.65 1.67, 1.91 1.45, 2.18 1.25 C2.45 1.05, 2.74 0.87, 3.05 0.71 C3.35 0.56, 3.68 0.43, 4.01 0.32 C4.34 0.22, 4.69 0.13, 5.04 0.08 C5.38 0.03, 5.74 0, 6.09 0 C6.45 0, 6.8 0.03, 7.15 0.08 C7.5 0.13, 7.85 0.22, 8.18 0.32 C8.51 0.43, 8.83 0.56, 9.14 0.71 C9.45 0.87, 9.74 1.05, 10.01 1.25 C10.28 1.45, 10.53 1.67, 10.76 1.9 C10.99 2.14, 11.19 2.4, 11.37 2.67 C11.55 2.93, 11.7 3.22, 11.82 3.51 C11.94 3.8, 12.03 4.1, 12.09 4.41 C12.16 4.71, 12.17 5.18, 12.19 5.33 C12.2 5.49, 12.2 5.18, 12.19 5.33" stroke="#000000" stroke-width="2" fill="none"></path></g><g stroke-linecap="round"><g transform="translate(438.5588276233357 24.715493893920097) rotate(0 9.519170008765741 5.6661726242652435)" fill-rule="evenodd"><path d="M0 0 C0 0, 0 0, 0 0 M0 0 C0 0, 0 0, 0 0 M5.38 6 C7.97 3.02, 10.56 0.05, 13.25 -3.05 M5.38 6 C8.14 2.82, 10.91 -0.35, 13.25 -3.05 M8.8 14.27 C12.12 10.44, 15.45 6.61, 17.32 4.46 M8.8 14.27 C11.03 11.7, 13.27 9.12, 17.32 4.46 M8.58 16.04 C8.58 16.04, 8.58 16.04, 8.58 16.04 M8.58 16.04 C8.58 16.04, 8.58 16.04, 8.58 16.04 M18.36 13.94 C12.48 8.82, 6.6 3.71, 1 -1.15 M18.36 13.94 C12.26 8.64, 6.16 3.33, 1 -1.15 M16.82 1.99 C15.08 0.49, 13.35 -1.02, 9.27 -4.57 M16.82 1.99 C14.28 -0.21, 11.74 -2.42, 9.27 -4.57" stroke="#ced4da" stroke-width="1" fill="none"></path><path d="M0 0 C0.49 -0.53, 2.04 -2.38, 2.95 -3.17 C3.85 -3.97, 4.31 -4.46, 5.44 -4.76 C6.57 -5.06, 8.54 -5.06, 9.75 -4.99 C10.95 -4.91, 11.86 -4.8, 12.69 -4.31 C13.52 -3.82, 14.17 -2.91, 14.73 -2.04 C15.3 -1.17, 15.64 -0.19, 16.09 0.91 C16.55 2, 17.04 3.32, 17.45 4.53 C17.87 5.74, 18.32 7.06, 18.59 8.16 C18.85 9.25, 19.04 10.12, 19.04 11.11 C19.04 12.09, 18.96 13.33, 18.59 14.05 C18.21 14.77, 17.49 15.07, 16.77 15.41 C16.05 15.75, 15.3 15.94, 14.28 16.09 C13.26 16.24, 11.63 16.36, 10.65 16.32 C9.67 16.28, 8.8 16.47, 8.39 15.87 C7.97 15.26, 8.35 13.56, 8.16 12.69 C7.97 11.82, 7.67 11.52, 7.25 10.65 C6.84 9.78, 6.31 8.73, 5.67 7.48 C5.02 6.23, 4.34 4.42, 3.4 3.17 C2.46 1.93, 0.57 0.53, 0 0 M0 0 C0.49 -0.53, 2.04 -2.38, 2.95 -3.17 C3.85 -3.97, 4.31 -4.46, 5.44 -4.76 C6.57 -5.06, 8.54 -5.06, 9.75 -4.99 C10.95 -4.91, 11.86 -4.8, 12.69 -4.31 C13.52 -3.82, 14.17 -2.91, 14.73 -2.04 C15.3 -1.17, 15.64 -0.19, 16.09 0.91 C16.55 2, 17.04 3.32, 17.45 4.53 C17.87 5.74, 18.32 7.06, 18.59 8.16 C18.85 9.25, 19.04 10.12, 19.04 11.11 C19.04 12.09, 18.96 13.33, 18.59 14.05 C18.21 14.77, 17.49 15.07, 16.77 15.41 C16.05 15.75, 15.3 15.94, 14.28 16.09 C13.26 16.24, 11.63 16.36, 10.65 16.32 C9.67 16.28, 8.8 16.47, 8.39 15.87 C7.97 15.26, 8.35 13.56, 8.16 12.69 C7.97 11.82, 7.67 11.52, 7.25 10.65 C6.84 9.78, 6.31 8.73, 5.67 7.48 C5.02 6.23, 4.34 4.42, 3.4 3.17 C2.46 1.93, 0.57 0.53, 0 0" stroke="#000000" stroke-width="2" fill="none"></path></g></g><mask></mask><g stroke-linecap="round"><g transform="translate(428.3563359841728 24.708732062949707) rotate(0 -9.179199651309773 6.799407149118338)" fill-rule="evenodd"><path d="M-13.93 -1.51 C-13.93 -1.51, -13.93 -1.51, -13.93 -1.51 M-13.93 -1.51 C-13.93 -1.51, -13.93 -1.51, -13.93 -1.51 M-17.73 15.06 C-12.73 9.31, -7.73 3.56, -2.64 -2.29 M-17.73 15.06 C-14.28 11.09, -10.83 7.13, -2.64 -2.29 M-9.72 18.05 C-8.42 16.55, -7.12 15.05, -5.13 12.77 M-9.72 18.05 C-7.98 16.04, -6.24 14.04, -5.13 12.77 M-18.02 14.63 C-18.02 14.63, -18.02 14.63, -18.02 14.63 M-18.02 14.63 C-18.02 14.63, -18.02 14.63, -18.02 14.63 M-5.22 15.16 C-8.17 12.6, -11.11 10.04, -16.54 5.31 M-5.22 15.16 C-8.27 12.51, -11.31 9.87, -16.54 5.31 M-2.99 6.49 C-5.97 3.91, -8.94 1.33, -12.81 -2.04 M-2.99 6.49 C-5.37 4.42, -7.75 2.36, -12.81 -2.04" stroke="#ced4da" stroke-width="1" fill="none"></path><path d="M0 0 C-0.38 -0.42, -1.47 -1.81, -2.27 -2.49 C-3.06 -3.17, -3.63 -3.78, -4.76 -4.08 C-5.89 -4.38, -7.86 -4.38, -9.07 -4.31 C-10.27 -4.23, -11.18 -4.12, -12.01 -3.63 C-12.84 -3.14, -13.49 -2.23, -14.05 -1.36 C-14.62 -0.49, -14.96 0.49, -15.41 1.59 C-15.87 2.68, -16.36 4, -16.77 5.21 C-17.19 6.42, -17.64 7.74, -17.91 8.84 C-18.17 9.93, -18.36 10.8, -18.36 11.79 C-18.36 12.77, -18.28 14.01, -17.91 14.73 C-17.53 15.45, -16.77 15.68, -16.09 16.09 C-15.41 16.51, -14.81 16.92, -13.83 17.23 C-12.84 17.53, -11.45 17.79, -10.2 17.91 C-8.95 18.02, -7.06 18.59, -6.35 17.91 C-5.63 17.23, -6.04 14.85, -5.89 13.83 C-5.74 12.81, -5.63 12.69, -5.44 11.79 C-5.25 10.88, -5.21 9.71, -4.76 8.39 C-4.31 7.06, -3.51 5.25, -2.72 3.85 C-1.93 2.46, -0.45 0.64, 0 0 M0 0 C-0.38 -0.42, -1.47 -1.81, -2.27 -2.49 C-3.06 -3.17, -3.63 -3.78, -4.76 -4.08 C-5.89 -4.38, -7.86 -4.38, -9.07 -4.31 C-10.27 -4.23, -11.18 -4.12, -12.01 -3.63 C-12.84 -3.14, -13.49 -2.23, -14.05 -1.36 C-14.62 -0.49, -14.96 0.49, -15.41 1.59 C-15.87 2.68, -16.36 4, -16.77 5.21 C-17.19 6.42, -17.64 7.74, -17.91 8.84 C-18.17 9.93, -18.36 10.8, -18.36 11.79 C-18.36 12.77, -18.28 14.01, -17.91 14.73 C-17.53 15.45, -16.77 15.68, -16.09 16.09 C-15.41 16.51, -14.81 16.92, -13.83 17.23 C-12.84 17.53, -11.45 17.79, -10.2 17.91 C-8.95 18.02, -7.06 18.59, -6.35 17.91 C-5.63 17.23, -6.04 14.85, -5.89 13.83 C-5.74 12.81, -5.63 12.69, -5.44 11.79 C-5.25 10.88, -5.21 9.71, -4.76 8.39 C-4.31 7.06, -3.51 5.25, -2.72 3.85 C-1.93 2.46, -0.45 0.64, 0 0" stroke="#000000" stroke-width="2" fill="none"></path></g></g><mask></mask><g stroke-linecap="round" transform="translate(342.25003649657447 102.15772858042055) rotate(0 90.71410044243976 20.058297961126357)"><path d="M10.03 0 C53.2 -0.24, 100.53 -0.14, 171.4 0 C181.4 1.67, 178.26 1.47, 181.43 10.03 C178.26 18.76, 180.68 21.12, 181.43 30.09 C177.83 38.81, 174.73 40.21, 171.4 40.12 C121.54 38.9, 63.01 42.53, 10.03 40.12 C3.86 41.42, 0.16 39.95, 0 30.09 C-0.8 25.38, 0.91 25.41, 0 10.03 C0.84 2.62, 2.14 -2.54, 10.03 0" stroke="none" stroke-width="0" fill="#fff9db"></path><path d="M10.03 0 C51.69 -1.28, 89.53 0.43, 171.4 0 M10.03 0 C52.7 0.27, 97.14 0.78, 171.4 0 M171.4 0 C179.77 0.49, 181.02 3.84, 181.43 10.03 M171.4 0 C179.35 0.6, 181.28 3.88, 181.43 10.03 M181.43 10.03 C179.62 17.5, 183.13 21.84, 181.43 30.09 M181.43 10.03 C180.84 16.74, 180.81 22.76, 181.43 30.09 M181.43 30.09 C182.58 38.27, 179.88 38.16, 171.4 40.12 M181.43 30.09 C182.77 37.44, 177.02 39.75, 171.4 40.12 M171.4 40.12 C119.39 37.06, 64.88 37.08, 10.03 40.12 M171.4 40.12 C124.46 41.34, 76.91 40.31, 10.03 40.12 M10.03 40.12 C1.7 39.43, -1.02 38.72, 0 30.09 M10.03 40.12 C1.81 38.12, 0.57 34.91, 0 30.09 M0 30.09 C-0.74 24.35, 0.33 16.7, 0 10.03 M0 30.09 C1 21.39, 0.9 14.3, 0 10.03 M0 10.03 C-0.64 1.43, 3.76 -0.57, 10.03 0 M0 10.03 C-1.74 5.06, 4.52 -1.36, 10.03 0" stroke="#1e1e1e" stroke-width="2" fill="none"></path></g><g transform="translate(363.6672619390142 110.21602654154697) rotate(0 69.296875 12)"><text x="69.296875" y="0" font-family="Cascadia, Segoe UI Emoji" font-size="20px" fill="#1e1e1e" text-anchor="middle" style="white-space: pre;" direction="ltr" dominant-baseline="text-before-edge">React前端模块</text></g><g stroke-linecap="round" transform="translate(156.70556769854466 187.3411067937585) rotate(0 277.26123117385214 99.82226076190241)"><path d="M32 0 C155.48 -0.14, 280.84 0.06, 522.52 0 M32 0 C155.16 0, 278.32 0.44, 522.52 0 M522.52 0 C542.55 0.35, 554.37 11.51, 554.52 32 M522.52 0 C542.55 -1.98, 556.81 12.47, 554.52 32 M554.52 32 C554.95 67.38, 554.81 104.52, 554.52 167.64 M554.52 32 C552.52 62.98, 553.28 92.31, 554.52 167.64 M554.52 167.64 C553.46 188.41, 544.19 197.74, 522.52 199.64 M554.52 167.64 C554.62 190.72, 542.93 198.07, 522.52 199.64 M522.52 199.64 C331.68 200.67, 139.97 201.46, 32 199.64 M522.52 199.64 C424.26 198.69, 326.22 198.86, 32 199.64 M32 199.64 C9.9 200.61, -0.6 188.11, 0 167.64 M32 199.64 C8.94 198.16, 1.63 190.75, 0 167.64 M0 167.64 C2.11 130.77, 0.02 90.94, 0 32 M0 167.64 C0.5 115.15, 0.98 62.54, 0 32 M0 32 C1.89 9.21, 8.88 -1.01, 32 0 M0 32 C-1.73 10.62, 11.43 1.28, 32 0" stroke="#1e1e1e" stroke-width="2" fill="none"></path></g><g stroke-linecap="round" transform="translate(190.66662597656227 216.55959094152672) rotate(0 68.66665649414074 63.82773153204445)"><path d="M31.91 0 C50.53 -2.03, 74.55 -0.67, 105.42 0 C130.29 -2.85, 136.57 11.43, 137.33 31.91 C139.75 51.07, 135.5 61.78, 137.33 95.74 C139.99 118.74, 123.13 128.59, 105.42 127.66 C81.2 128.14, 54.31 128.16, 31.91 127.66 C7.22 125.2, 0.05 115.5, 0 95.74 C-3.92 78.33, 2.4 59.45, 0 31.91 C3.08 13.01, 9.61 -3.01, 31.91 0" stroke="none" stroke-width="0" fill="#ebfbee"></path><path d="M31.91 0 C54.59 0.79, 72.9 -2.67, 105.42 0 M31.91 0 C56.24 -0.31, 80.08 0.93, 105.42 0 M105.42 0 C128.58 0.02, 137.68 11.37, 137.33 31.91 M105.42 0 C128.66 0.76, 137.79 9.98, 137.33 31.91 M137.33 31.91 C136.07 49.81, 135.46 67.08, 137.33 95.74 M137.33 31.91 C138.02 54.79, 137.14 76.98, 137.33 95.74 M137.33 95.74 C136.59 117.21, 125.29 125.79, 105.42 127.66 M137.33 95.74 C139.11 118.37, 128.64 126.03, 105.42 127.66 M105.42 127.66 C78.21 125.92, 53.72 128.65, 31.91 127.66 M105.42 127.66 C83.92 128.56, 64.3 127.13, 31.91 127.66 M31.91 127.66 C9.18 126.27, 0.52 116.32, 0 95.74 M31.91 127.66 C9.55 129.59, -0.02 118.85, 0 95.74 M0 95.74 C-1.58 73.53, 0.78 50.22, 0 31.91 M0 95.74 C0.21 79.83, 1.5 65.28, 0 31.91 M0 31.91 C0.63 8.72, 9.89 1.11, 31.91 0 M0 31.91 C-0.05 9.23, 12.91 -1.92, 31.91 0" stroke="#1e1e1e" stroke-width="2" fill="none"></path></g><g transform="translate(212.3730653890741 270.1829449975495) rotate(0 48.000000000000114 9.600000000000023)"><text x="0" y="0" font-family="Cascadia, Segoe UI Emoji" font-size="16px" fill="#1e1e1e" text-anchor="start" style="white-space: pre;" direction="ltr" dominant-baseline="text-before-edge">后端管理模块</text></g><g stroke-linecap="round"><g transform="translate(428.3307679795066 244.83183301426038) rotate(89.99999999999994 15.793485047761806 39.26329915033497)" fill-rule="evenodd"><path d="M1.24 -2.9 C1.24 -2.9, 1.24 -2.9, 1.24 -2.9 M1.24 -2.9 C1.24 -2.9, 1.24 -2.9, 1.24 -2.9 M0.32 4.26 C2.33 0.02, 5.3 -1.02, 9.51 -6.31 M0.32 4.26 C3.33 -0.09, 6.56 -3.83, 9.51 -6.31 M0.06 10.65 C4.25 4.53, 10.14 -0.87, 15.81 -7.46 M0.06 10.65 C3.08 6.3, 8.17 2.5, 15.81 -7.46 M-0.2 17.05 C6.83 8.32, 17.06 -1.35, 20.14 -6.34 M-0.2 17.05 C3.8 12.1, 8.59 7.14, 20.14 -6.34 M0.2 22.7 C6.24 13.97, 14.8 9.35, 25.13 -5.98 M0.2 22.7 C7.44 12.32, 17.24 2.69, 25.13 -5.98 M-0.07 29.09 C7.24 19.37, 14.83 11.37, 28.15 -3.36 M-0.07 29.09 C9.15 18.69, 18.38 7.16, 28.15 -3.36 M0.33 34.74 C12.92 20.58, 24.37 8.9, 31.16 -0.73 M0.33 34.74 C8.81 25.68, 17.59 16.68, 31.16 -0.73 M0.07 41.13 C7.67 32.08, 16.97 18.28, 32.21 4.15 M0.07 41.13 C7.52 31.24, 15.73 23.48, 32.21 4.15 M-0.19 47.53 C10.2 34.16, 21.04 24.98, 31.95 10.55 M-0.19 47.53 C11.53 34.1, 23.17 21.13, 31.95 10.55 M0.2 53.18 C9.99 41.24, 22.21 25.89, 32.35 16.19 M0.2 53.18 C8.85 43.49, 15.09 35.93, 32.35 16.19 M-0.06 59.57 C11.51 46.21, 24.15 30.55, 32.09 22.59 M-0.06 59.57 C11.5 45.79, 24.49 32.29, 32.09 22.59 M-0.32 65.97 C6.51 57.53, 15.28 49.95, 32.48 28.24 M-0.32 65.97 C9.53 53.68, 21.1 41.94, 32.48 28.24 M0.07 71.61 C8.73 62.93, 17.47 49.68, 32.22 34.63 M0.07 71.61 C11.81 59.31, 21.18 45.79, 32.22 34.63 M-0.19 78.01 C6.51 69.35, 17.63 57.6, 31.96 41.03 M-0.19 78.01 C8.71 68.34, 15.91 58.03, 31.96 41.03 M1.52 82.15 C7.49 73.21, 15.96 69.36, 32.35 46.67 M1.52 82.15 C12.13 70.06, 21.21 60.23, 32.35 46.67 M5.19 84.01 C16.82 70.41, 28.27 59.32, 32.09 53.07 M5.19 84.01 C15.9 72.81, 25.85 61.12, 32.09 53.07 M8.87 85.88 C17.12 76.41, 23.5 66.57, 32.49 58.71 M8.87 85.88 C13.24 79.57, 19.52 73.25, 32.49 58.71 M13.85 86.24 C19.31 81.5, 23.29 75.83, 32.22 65.11 M13.85 86.24 C18.82 78.57, 26.09 72.48, 32.22 65.11 M18.84 86.6 C21.5 81.08, 25.14 78.55, 31.96 71.51 M18.84 86.6 C24.07 79.86, 29.92 74.49, 31.96 71.51 M25.14 85.46 C26.89 82.48, 28.84 80.19, 32.36 77.15 M25.14 85.46 C28.01 82.47, 29.89 80.67, 32.36 77.15" stroke="#40c057" stroke-width="0.5" fill="none"></path><path d="M-0.58 0.72 C-0.61 12.55, 0.61 57.11, 0.54 70.07 C0.46 83.03, -1.3 76.27, -1.04 78.46 C-0.78 80.65, 0.65 82.15, 2.09 83.19 C3.53 84.24, 5.23 84.08, 7.61 84.74 C9.99 85.39, 13.12 87.03, 16.35 87.12 C19.58 87.21, 24.72 86.25, 27.01 85.31 C29.3 84.37, 29.28 82.88, 30.09 81.49 C30.9 80.09, 31.69 78.41, 31.87 76.94 C32.05 75.48, 31.35 84.64, 31.18 72.68 C31.01 60.72, 30.68 17.51, 30.85 5.19 C31.03 -7.13, 32.35 0.23, 32.21 -1.23 C32.08 -2.7, 31.37 -2.64, 30.05 -3.58 C28.74 -4.52, 26.87 -6.2, 24.33 -6.88 C21.8 -7.55, 17.44 -7.56, 14.83 -7.63 C12.22 -7.71, 11 -7.89, 8.69 -7.31 C6.38 -6.73, 2.59 -5.31, 0.99 -4.17 C-0.62 -3.03, -0.69 -1.23, -0.93 -0.47 C-1.18 0.29, -0.69 0.51, -0.46 0.4 M1.32 0.06 C1.11 12.11, -0.18 58.05, -0.19 71.32 C-0.19 84.59, 0.85 78.04, 1.31 79.68 C1.77 81.33, 1.75 80.32, 2.58 81.2 C3.41 82.08, 3.82 84.05, 6.31 84.96 C8.8 85.87, 14.47 86.78, 17.51 86.68 C20.54 86.58, 22.06 85.26, 24.54 84.38 C27.01 83.5, 31.36 82.35, 32.34 81.39 C33.31 80.43, 30.49 80.06, 30.38 78.63 C30.28 77.2, 31.65 84.93, 31.72 72.79 C31.8 60.66, 30.9 17.68, 30.82 5.79 C30.74 -6.09, 31.28 3.19, 31.25 1.5 C31.23 -0.18, 32 -3.39, 30.67 -4.31 C29.33 -5.22, 25.88 -3.33, 23.25 -3.99 C20.63 -4.66, 17.67 -7.87, 14.91 -8.29 C12.15 -8.71, 9.25 -7.22, 6.69 -6.51 C4.12 -5.8, 0.49 -5.05, -0.46 -4.02 C-1.42 -2.99, 0.62 -1.14, 0.96 -0.32 C1.3 0.49, 1.54 0.79, 1.57 0.86" stroke="#087f5b" stroke-width="1" fill="none"></path></g></g><mask></mask><g stroke-linecap="round"><g transform="translate(413.50618410578636 280.555391734694) rotate(89.99999999999994 15.327045821527463 3.484677957559313)"><path d="M0.2 -0.25 C0.3 0.19, -0.39 1.91, 0.33 2.97 C1.05 4.04, 3.04 5.44, 4.5 6.12 C5.96 6.8, 7.16 6.75, 9.07 7.03 C10.98 7.32, 13.28 7.9, 15.96 7.85 C18.64 7.79, 22.92 7.51, 25.13 6.7 C27.35 5.88, 28.32 4.21, 29.27 2.95 C30.22 1.69, 30.62 -0.4, 30.82 -0.87 M-0.36 0.82 C-0.08 1.31, 0.55 2.88, 1.32 3.63 C2.09 4.38, 2.94 4.67, 4.26 5.31 C5.59 5.94, 7.17 7.24, 9.26 7.46 C11.36 7.68, 14.33 6.8, 16.84 6.63 C19.36 6.45, 22.26 7.11, 24.36 6.41 C26.45 5.71, 28.38 3.45, 29.39 2.45 C30.4 1.44, 30.12 0.82, 30.44 0.38" stroke="#087f5b" stroke-width="1" fill="none"></path></g></g><mask></mask><g stroke-linecap="round"><g transform="translate(440.9619281718092 280.76033778456326) rotate(89.99999999999994 15.283226915398245 2.793317975621733)"><path d="M-0.48 -0.08 C-0.34 0.45, 0.2 2.2, 1.02 2.95 C1.83 3.69, 3.15 3.81, 4.43 4.36 C5.7 4.92, 6.64 5.97, 8.67 6.28 C10.71 6.59, 14.02 6.4, 16.61 6.23 C19.21 6.07, 22.07 6.05, 24.25 5.29 C26.43 4.53, 28.67 2.52, 29.69 1.67 C30.71 0.83, 30.28 0.59, 30.37 0.21 M0.28 -0.6 C0.34 -0.19, 0.05 1.32, 0.69 2.23 C1.34 3.15, 2.83 4.36, 4.16 4.89 C5.49 5.41, 6.67 5.1, 8.67 5.39 C10.68 5.67, 13.51 6.67, 16.19 6.6 C18.86 6.52, 22.41 5.62, 24.72 4.93 C27.03 4.24, 29.22 3.23, 30.06 2.46 C30.91 1.69, 29.65 0.68, 29.81 0.31" stroke="#087f5b" stroke-width="1" fill="none"></path></g></g><mask></mask><g stroke-linecap="round" transform="translate(469.1302654248125 277.2226143792782) rotate(89.99999999999994 15.49647730498441 6.8894003641135555)"><path d="M16.8 -0.11 C20.02 -0.02, 24.55 0.92, 26.83 1.97 C29.12 3.02, 30.34 4.7, 30.51 6.19 C30.69 7.68, 29.78 9.73, 27.9 10.9 C26.02 12.07, 22.5 12.77, 19.21 13.21 C15.92 13.64, 11.2 14.11, 8.15 13.51 C5.11 12.91, 2.15 11, 0.96 9.59 C-0.22 8.17, -0.02 6.46, 1.05 5.02 C2.12 3.59, 4.53 1.86, 7.38 0.99 C10.23 0.13, 16.23 -0.11, 18.17 -0.18 C20.11 -0.25, 19.06 0.48, 19.01 0.57 M13.72 0.05 C16.86 -0.19, 21.36 0.05, 24.04 0.86 C26.72 1.68, 28.89 3.54, 29.78 4.92 C30.68 6.31, 30.59 7.72, 29.44 9.19 C28.29 10.65, 25.79 12.97, 22.9 13.71 C20.01 14.44, 15.38 14.17, 12.12 13.59 C8.85 13.02, 5.42 11.36, 3.31 10.25 C1.19 9.13, -0.62 8.27, -0.58 6.9 C-0.55 5.53, 1.02 3.13, 3.52 2.02 C6.02 0.91, 12.74 0.59, 14.42 0.26 C16.11 -0.08, 13.76 -0.12, 13.63 0.01" stroke="none" stroke-width="0" fill="#fff"></path><path d="M17.02 0.45 C20.26 0.44, 24.22 0.64, 26.57 1.62 C28.92 2.59, 30.88 4.82, 31.1 6.31 C31.32 7.8, 29.7 9.4, 27.89 10.55 C26.08 11.71, 23.41 12.73, 20.25 13.23 C17.08 13.73, 12.09 14.05, 8.92 13.55 C5.74 13.04, 2.58 11.66, 1.18 10.22 C-0.21 8.79, -0.26 6.45, 0.53 4.94 C1.31 3.42, 3.07 1.85, 5.9 1.12 C8.73 0.4, 15.47 0.73, 17.52 0.56 C19.58 0.39, 18.32 0.16, 18.22 0.13 M14.39 -0.7 C17.51 -0.91, 21.49 0.6, 24.05 1.48 C26.6 2.36, 28.91 3.24, 29.73 4.59 C30.55 5.93, 30.19 8.19, 28.97 9.54 C27.74 10.89, 25.32 12.14, 22.38 12.69 C19.43 13.23, 14.54 13.21, 11.3 12.81 C8.06 12.42, 4.84 11.49, 2.93 10.29 C1.02 9.1, -0.48 7.04, -0.17 5.65 C0.13 4.25, 2.49 2.75, 4.78 1.91 C7.06 1.06, 12.02 0.96, 13.52 0.57 C15.02 0.17, 13.69 -0.56, 13.79 -0.46" stroke="#087f5b" stroke-width="1" fill="none"></path></g><g transform="translate(420.8962004092509 308.0536361675088) rotate(0 24.790206667620623 7.2529061793267715)"><text x="0" y="0" font-family="Cascadia, Segoe UI Emoji" font-size="12.088176965544589px" fill="#1e1e1e" text-anchor="start" style="white-space: pre;" direction="ltr" dominant-baseline="text-before-edge">RbbitMQ</text></g><g stroke-linecap="round"><g transform="translate(223.03513890753334 444.4372416927081) rotate(0 27.47264219490478 29.836667463656823)" fill-rule="evenodd"><path d="M0.69 1.35 C0.69 10.36, -0.17 41.74, -0.36 51.8 C-0.55 61.86, -0.71 60.08, -0.43 61.69 C-0.15 63.3, -1.22 60.97, 1.32 61.45 C3.86 61.93, 10.11 64.32, 14.81 64.58 C19.51 64.84, 24.4 63.08, 29.52 63.01 C34.64 62.94, 41.77 64.03, 45.53 64.16 C49.29 64.29, 50.82 64.55, 52.1 63.79 C53.38 63.03, 52.44 60.76, 53.22 59.61 C53.99 58.45, 56.79 66.37, 56.76 56.85 C56.72 47.34, 53.52 12.2, 53.02 2.52 C52.51 -7.15, 54.21 -0.09, 53.73 -1.2 C53.25 -2.31, 51.94 -3.39, 50.14 -4.14 C48.34 -4.89, 47.13 -5.72, 42.94 -5.69 C38.76 -5.66, 29.76 -4.02, 25 -3.97 C20.24 -3.91, 18.07 -5.67, 14.37 -5.37 C10.67 -5.07, 5.33 -3.19, 2.8 -2.17 C0.28 -1.15, 0.06 0.3, -0.79 0.76 C-1.63 1.21, -2.75 1.03, -2.28 0.56" stroke="none" stroke-width="0" fill="#228be6" fill-rule="evenodd"></path><path d="M-1.06 0.95 C-0.68 9.98, 1.08 43.29, 1.25 53.09 C1.41 62.9, -0.44 58.34, -0.06 59.78 C0.32 61.21, 1.44 60.8, 3.53 61.7 C5.63 62.6, 8.31 64.49, 12.52 65.18 C16.73 65.88, 23.33 65.95, 28.78 65.85 C34.23 65.76, 41.04 65.36, 45.23 64.6 C49.41 63.83, 52.38 62.11, 53.89 61.28 C55.4 60.45, 54.12 60.75, 54.3 59.61 C54.47 58.47, 54.91 63.77, 54.94 54.45 C54.96 45.14, 54.66 12.97, 54.44 3.73 C54.22 -5.51, 54.3 0.27, 53.63 -0.97 C52.96 -2.22, 52.21 -3.03, 50.43 -3.73 C48.66 -4.43, 46.89 -4.86, 42.99 -5.17 C39.1 -5.49, 32.21 -5.87, 27.08 -5.63 C21.94 -5.39, 16.42 -4.3, 12.2 -3.71 C7.98 -3.12, 3.77 -2.88, 1.76 -2.1 C-0.25 -1.32, 0.39 0.49, 0.14 0.98 C-0.11 1.46, 0.17 0.82, 0.27 0.83 M0.58 0.4 C0.99 9.68, 1.1 44.21, 0.86 54.33 C0.62 64.45, -1.41 59.75, -0.86 61.1 C-0.31 62.45, 2.18 61.64, 4.15 62.44 C6.12 63.23, 6.68 65.42, 10.97 65.86 C15.27 66.3, 24.1 65.49, 29.92 65.09 C35.74 64.69, 42.05 64.16, 45.89 63.45 C49.74 62.73, 51.32 61.63, 53.01 60.79 C54.69 59.94, 55.57 59.51, 56.02 58.38 C56.46 57.25, 55.93 63.03, 55.68 54.02 C55.44 45.01, 54.59 13.61, 54.55 4.31 C54.5 -4.99, 56.1 -0.85, 55.4 -1.8 C54.7 -2.74, 52.59 -0.7, 50.36 -1.36 C48.12 -2.02, 45.77 -4.98, 41.98 -5.78 C38.2 -6.58, 32.5 -6.22, 27.64 -6.17 C22.77 -6.12, 16.76 -6.32, 12.8 -5.49 C8.83 -4.67, 6.17 -1.86, 3.86 -1.24 C1.55 -0.63, -0.25 -2.25, -1.06 -1.79 C-1.87 -1.33, -1.42 1.26, -0.98 1.52" stroke="#0a11d3" stroke-width="1" fill="none"></path></g></g><mask></mask><g stroke-linecap="round"><g transform="translate(223.46372231311193 485.14691451943384) rotate(0 27.530910176094835 2.77382156086486)"><path d="M1.07 -0.57 C1.47 -0.32, 0.16 1.72, 1.38 2.45 C2.6 3.17, 5.99 3.14, 8.41 3.78 C10.83 4.41, 12.53 5.83, 15.88 6.26 C19.24 6.69, 23.81 6.49, 28.56 6.35 C33.3 6.21, 40.19 6.16, 44.34 5.41 C48.49 4.67, 51.75 2.79, 53.45 1.89 C55.15 0.99, 54.29 0.36, 54.55 0 M0.17 1.75 C0.5 2.13, -0.91 3.5, 0.4 3.99 C1.7 4.49, 5.4 4.72, 8.01 4.72 C10.62 4.72, 12.31 3.61, 16.05 3.99 C19.8 4.37, 25.52 6.92, 30.48 7.01 C35.43 7.11, 41.82 5.67, 45.78 4.57 C49.74 3.47, 52.99 1.18, 54.24 0.39 C55.48 -0.4, 53.41 0.14, 53.26 -0.19" stroke="#0a11d3" stroke-width="1" fill="none"></path></g></g><mask></mask><g stroke-linecap="round"><g transform="translate(222.7817530712682 464.5245317511295) rotate(0 27.53091017609495 2.77382156086486)"><path d="M-0.07 0.01 C0.11 0.39, 0.88 0.9, 2.15 1.73 C3.42 2.57, 5.33 4.27, 7.56 5.02 C9.79 5.77, 11.92 6.04, 15.52 6.24 C19.11 6.43, 24.28 6.45, 29.12 6.2 C33.96 5.95, 40.64 5.38, 44.56 4.75 C48.49 4.13, 50.93 3.29, 52.67 2.46 C54.41 1.63, 54.69 0.35, 55.02 -0.24 M-1.57 -1.03 C-1.57 -0.45, 0.19 2.24, 1.57 2.9 C2.95 3.57, 4.4 2.79, 6.72 2.97 C9.04 3.14, 12 3.32, 15.49 3.95 C18.98 4.59, 22.57 6.85, 27.67 6.79 C32.78 6.72, 41.89 4.48, 46.12 3.56 C50.35 2.64, 51.74 1.95, 53.04 1.26 C54.35 0.58, 53.41 -0.48, 53.98 -0.56" stroke="#0a11d3" stroke-width="1" fill="none"></path></g></g><mask></mask><g stroke-linecap="round" transform="translate(222.0828981872819 439.433686518411) rotate(0 27.325977944280794 5.526473457457513)"><path d="M24.77 -0.11 C30.27 -0.3, 37.92 -0.07, 42.81 0.68 C47.69 1.43, 52.56 3.17, 54.09 4.39 C55.61 5.6, 54.5 6.97, 51.96 7.97 C49.41 8.97, 44.09 9.98, 38.82 10.39 C33.55 10.79, 25.96 10.61, 20.33 10.39 C14.69 10.18, 8.44 10, 5 9.09 C1.56 8.19, -0.76 6.26, -0.31 4.98 C0.15 3.7, 3.36 2.28, 7.75 1.42 C12.14 0.56, 23.07 0.07, 26.05 -0.17 C29.04 -0.4, 25.65 -0.12, 25.67 0.03 M30.6 -0.02 C36.19 -0.1, 42.5 0.35, 46.39 1.17 C50.28 1.98, 53.38 3.53, 53.93 4.87 C54.48 6.2, 52.94 8.29, 49.7 9.18 C46.45 10.07, 40.22 9.88, 34.47 10.21 C28.73 10.55, 20.7 11.69, 15.23 11.19 C9.77 10.68, 4.11 8.41, 1.68 7.19 C-0.74 5.97, -1.01 4.88, 0.66 3.88 C2.34 2.88, 6.87 1.96, 11.73 1.21 C16.58 0.46, 26.65 -0.49, 29.8 -0.61 C32.94 -0.74, 30.6 0.35, 30.6 0.47" stroke="none" stroke-width="0" fill="#fff"></path><path d="M26.71 0.02 C32.25 -0.03, 39.86 0.61, 44.4 1.3 C48.94 1.99, 52.77 3.05, 53.96 4.19 C55.15 5.33, 54.26 7.08, 51.52 8.13 C48.77 9.18, 42.98 10.11, 37.47 10.49 C31.96 10.87, 24.06 10.78, 18.45 10.39 C12.83 10.01, 6.86 9.18, 3.77 8.19 C0.68 7.21, -0.92 5.59, -0.08 4.49 C0.75 3.39, 4.23 2.4, 8.8 1.59 C13.36 0.78, 24.02 -0.06, 27.31 -0.35 C30.61 -0.64, 28.58 -0.3, 28.59 -0.13 M33.47 0.78 C38.94 0.74, 45.2 0.54, 48.76 1.43 C52.33 2.32, 55.06 4.93, 54.85 6.14 C54.63 7.34, 51.43 7.75, 47.46 8.66 C43.48 9.57, 36.82 11.38, 30.98 11.59 C25.13 11.8, 17.2 10.65, 12.37 9.92 C7.53 9.19, 3.7 8.41, 1.99 7.21 C0.27 6.02, -0.04 3.84, 2.07 2.74 C4.17 1.64, 9.54 0.95, 14.62 0.63 C19.7 0.3, 29.59 0.86, 32.56 0.8 C35.53 0.75, 32.35 0.21, 32.42 0.31" stroke="#0a11d3" stroke-width="1" fill="none"></path></g><g stroke-linecap="round" transform="translate(266.67061601976366 454.75718066304546) rotate(0 4.004884009795433 4.3465251355290775)"><path d="M3.59 -0.21 C4.46 -0.28, 5.91 0.44, 6.62 1.04 C7.33 1.64, 7.67 2.54, 7.84 3.4 C8 4.26, 7.96 5.42, 7.6 6.19 C7.25 6.96, 6.48 7.59, 5.7 8.02 C4.93 8.46, 3.83 9.01, 2.94 8.79 C2.05 8.57, 0.9 7.55, 0.38 6.71 C-0.14 5.87, -0.38 4.67, -0.19 3.73 C0.01 2.79, 0.95 1.7, 1.57 1.07 C2.19 0.44, 3.08 0.09, 3.51 -0.05 C3.94 -0.2, 4.08 0.14, 4.15 0.17 M3.84 -0.33 C4.52 -0.37, 5.56 0.24, 6.27 0.97 C6.98 1.7, 7.86 3.17, 8.1 4.05 C8.33 4.93, 8.16 5.41, 7.66 6.22 C7.15 7.04, 6.01 8.65, 5.06 8.94 C4.12 9.23, 2.8 8.41, 1.99 7.96 C1.19 7.51, 0.56 6.99, 0.22 6.26 C-0.12 5.53, -0.24 4.55, -0.04 3.58 C0.15 2.62, 0.62 1.04, 1.39 0.48 C2.16 -0.08, 4.11 0.34, 4.58 0.22 C5.04 0.1, 4.3 -0.36, 4.18 -0.25" stroke="none" stroke-width="0" fill="#fff"></path><path d="M3.82 0.09 C4.59 -0.06, 5.58 0.15, 6.27 0.68 C6.96 1.22, 7.74 2.37, 7.97 3.28 C8.19 4.18, 8.04 5.34, 7.62 6.13 C7.2 6.93, 6.25 7.69, 5.43 8.06 C4.61 8.43, 3.53 8.6, 2.7 8.37 C1.87 8.13, 0.93 7.34, 0.44 6.62 C-0.04 5.9, -0.33 4.96, -0.2 4.02 C-0.07 3.09, 0.5 1.69, 1.23 0.99 C1.95 0.29, 3.68 -0.02, 4.14 -0.16 C4.59 -0.3, 3.96 0.02, 3.95 0.14 M4.4 -0.43 C5.19 -0.41, 6.47 0.95, 7.06 1.64 C7.64 2.33, 7.88 2.76, 7.89 3.71 C7.9 4.66, 7.67 6.56, 7.13 7.33 C6.58 8.11, 5.37 8.23, 4.62 8.38 C3.87 8.53, 3.36 8.68, 2.65 8.22 C1.94 7.76, 0.78 6.45, 0.38 5.6 C-0.03 4.74, 0.05 3.83, 0.24 3.09 C0.42 2.35, 0.84 1.67, 1.49 1.17 C2.14 0.67, 3.59 0.18, 4.14 0.09 C4.7 -0.01, 4.84 0.62, 4.82 0.61" stroke="#0a11d3" stroke-width="1" fill="none"></path></g><g stroke-linecap="round" transform="translate(266.67061601976366 473.8384096615528) rotate(0 4.004884009795433 4.3465251355290775)"><path d="M4.06 0.19 C4.89 0.14, 5.74 0.44, 6.38 0.96 C7.03 1.48, 7.72 2.46, 7.93 3.3 C8.15 4.15, 8.05 5.16, 7.66 6.05 C7.28 6.93, 6.47 8.24, 5.61 8.64 C4.75 9.04, 3.39 8.81, 2.52 8.46 C1.65 8.11, 0.77 7.36, 0.41 6.56 C0.05 5.76, 0.26 4.57, 0.35 3.66 C0.45 2.75, 0.35 1.68, 0.99 1.08 C1.62 0.49, 3.64 0.3, 4.15 0.09 C4.67 -0.13, 4.11 -0.3, 4.08 -0.2 M3.53 -0.16 C4.42 -0.13, 5.89 0.73, 6.67 1.27 C7.45 1.81, 8.1 2.15, 8.21 3.1 C8.32 4.04, 7.88 6.11, 7.34 6.93 C6.79 7.75, 5.74 7.77, 4.93 8.01 C4.11 8.24, 3.19 8.56, 2.44 8.35 C1.69 8.13, 0.85 7.58, 0.42 6.73 C0 5.87, -0.34 4.12, -0.11 3.21 C0.12 2.3, 1.12 1.86, 1.8 1.27 C2.49 0.68, 3.66 -0.21, 3.98 -0.34 C4.29 -0.46, 3.66 0.46, 3.7 0.52" stroke="none" stroke-width="0" fill="#fff"></path><path d="M3.95 -0.14 C4.76 -0.21, 6.01 0.42, 6.68 1.02 C7.35 1.63, 7.87 2.63, 7.97 3.51 C8.06 4.39, 7.72 5.49, 7.25 6.29 C6.77 7.09, 5.95 7.95, 5.14 8.28 C4.33 8.61, 3.17 8.54, 2.37 8.26 C1.56 7.98, 0.68 7.44, 0.3 6.62 C-0.08 5.8, -0.17 4.29, 0.07 3.33 C0.32 2.37, 1.1 1.38, 1.78 0.83 C2.46 0.29, 3.72 0.16, 4.16 0.05 C4.61 -0.06, 4.43 0.07, 4.46 0.17 M4.73 0.32 C5.54 0.41, 6.36 0.36, 6.89 1.08 C7.42 1.8, 7.93 3.66, 7.92 4.62 C7.91 5.58, 7.28 6.19, 6.83 6.85 C6.39 7.51, 6.03 8.45, 5.25 8.59 C4.47 8.73, 2.96 8.14, 2.15 7.7 C1.33 7.25, 0.73 6.65, 0.35 5.94 C-0.02 5.22, -0.31 4.3, -0.11 3.43 C0.1 2.56, 0.74 1.18, 1.58 0.7 C2.42 0.22, 4.52 0.71, 4.95 0.55 C5.39 0.38, 4.3 -0.23, 4.2 -0.27" stroke="#0a11d3" stroke-width="1" fill="none"></path></g><g stroke-linecap="round" transform="translate(266.67061601976366 494.5771702461551) rotate(0 4.004884009795433 4.3465251355290775)"><path d="M3.5 0.09 C4.27 -0.11, 5.5 0.17, 6.24 0.62 C6.98 1.08, 7.7 1.86, 7.95 2.81 C8.21 3.77, 8.16 5.47, 7.75 6.37 C7.34 7.27, 6.32 7.86, 5.5 8.21 C4.69 8.56, 3.58 8.68, 2.85 8.45 C2.11 8.21, 1.62 7.54, 1.1 6.8 C0.57 6.06, -0.35 4.91, -0.31 4.01 C-0.26 3.12, 0.7 2.14, 1.37 1.43 C2.05 0.72, 3.35 -0.09, 3.75 -0.27 C4.15 -0.45, 3.79 0.26, 3.77 0.35 M3.68 0.31 C4.6 0.11, 5.83 -0.26, 6.49 0.28 C7.16 0.83, 7.57 2.68, 7.69 3.58 C7.8 4.48, 7.54 4.92, 7.18 5.68 C6.83 6.44, 6.25 7.63, 5.54 8.14 C4.83 8.65, 3.75 9.01, 2.92 8.74 C2.1 8.46, 1.03 7.24, 0.61 6.5 C0.19 5.75, 0.33 5.2, 0.42 4.29 C0.5 3.38, 0.64 1.65, 1.12 1.01 C1.61 0.37, 2.85 0.68, 3.31 0.46 C3.76 0.24, 3.82 -0.34, 3.87 -0.3" stroke="none" stroke-width="0" fill="#fff"></path><path d="M4.23 -0.01 C5.07 -0.03, 6.12 0.43, 6.7 1.01 C7.29 1.6, 7.68 2.59, 7.76 3.5 C7.84 4.41, 7.65 5.69, 7.18 6.5 C6.72 7.3, 5.81 7.99, 4.99 8.32 C4.17 8.65, 3.03 8.86, 2.27 8.5 C1.52 8.13, 0.78 7.01, 0.47 6.14 C0.16 5.27, 0.23 4.13, 0.42 3.27 C0.61 2.4, 0.92 1.49, 1.6 0.96 C2.29 0.43, 4.03 0.19, 4.52 0.08 C5.02 -0.03, 4.56 0.25, 4.56 0.3 M3.28 -0.33 C4.04 -0.5, 5.28 0.51, 5.99 1.02 C6.69 1.53, 7.12 1.93, 7.49 2.75 C7.85 3.56, 8.43 5.08, 8.18 5.9 C7.93 6.72, 6.8 7.23, 5.98 7.68 C5.17 8.13, 4.2 8.62, 3.3 8.6 C2.4 8.57, 1.18 8.24, 0.58 7.53 C-0.03 6.81, -0.45 5.24, -0.32 4.32 C-0.19 3.39, 0.8 2.76, 1.35 1.99 C1.91 1.21, 2.7 -0.01, 3.01 -0.35 C3.33 -0.69, 3.19 -0.16, 3.23 -0.06" stroke="#0a11d3" stroke-width="1" fill="none"></path></g><g transform="translate(218.166483561198 520.8540294091564) rotate(0 36.97276224912514 7.482234889941537)"><text x="0" y="0" font-family="Cascadia, Segoe UI Emoji" font-size="12.470391483235899px" fill="#1e1e1e" text-anchor="start" style="white-space: pre;" direction="ltr" dominant-baseline="text-before-edge">MySQL数据库</text></g><g stroke-opacity="0" fill-opacity="0" stroke-linecap="round" transform="translate(550.3139052532297 439.86162044329546) rotate(0 51.45567055489391 51.45567055489391)"><path d="M58.33 -0.41 C66.34 -0.14, 75.43 4.3, 82.11 9.61 C88.79 14.92, 94.96 23.5, 98.4 31.44 C101.84 39.38, 103.76 48.85, 102.76 57.24 C101.77 65.63, 97.47 74.76, 92.42 81.78 C87.37 88.79, 80.35 95.87, 72.44 99.34 C64.53 102.81, 53.77 103.68, 44.98 102.61 C36.18 101.53, 26.55 98.09, 19.68 92.89 C12.8 87.69, 7.01 79.29, 3.74 71.43 C0.47 63.58, -0.98 54.13, 0.07 45.77 C1.13 37.41, 4.87 28.18, 10.06 21.28 C15.25 14.38, 21.81 7.65, 31.23 4.35 C40.65 1.06, 59.39 1.22, 66.59 1.53 C73.8 1.84, 74.83 5.24, 74.47 6.21 M67.97 1.58 C75.55 3.33, 82.45 10.27, 87.93 16.86 C93.4 23.44, 98.81 32.65, 100.8 41.11 C102.8 49.58, 102.25 59.88, 99.89 67.64 C97.53 75.41, 92.76 82.09, 86.63 87.71 C80.5 93.32, 71.61 99.13, 63.13 101.32 C54.64 103.5, 43.76 103.26, 35.74 100.81 C27.72 98.35, 20.91 92.72, 14.98 86.59 C9.06 80.47, 2.11 72.42, 0.2 64.05 C-1.7 55.68, 0.64 44.58, 3.56 36.38 C6.48 28.18, 11.89 20.61, 17.71 14.83 C23.54 9.05, 30.2 3.57, 38.5 1.7 C46.8 -0.17, 63.01 3.5, 67.52 3.62 C72.03 3.74, 66.17 2, 65.57 2.4" stroke="none" stroke-width="0" fill="#ffc9c9"></path><path d="M72.93 5.74 C80.49 8.79, 88.31 16.18, 93.35 23.14 C98.39 30.09, 102.36 39.15, 103.15 47.45 C103.95 55.75, 101.96 65.27, 98.12 72.95 C94.28 80.62, 87.02 88.4, 80.1 93.49 C73.18 98.58, 65.04 102.67, 56.6 103.5 C48.17 104.32, 37.4 102.26, 29.48 98.44 C21.56 94.61, 13.94 87.7, 9.08 80.56 C4.22 73.43, 0.97 64.27, 0.31 55.62 C-0.36 46.97, 1.52 36.39, 5.08 28.68 C8.64 20.97, 14.69 13.97, 21.65 9.38 C28.62 4.79, 37.42 1.47, 46.87 1.14 C56.31 0.82, 72.48 5.58, 78.31 7.43 C84.15 9.28, 82.45 11.53, 81.88 12.24 M42.7 -0.16 C50.56 -1.92, 63.03 0.4, 71.3 3.44 C79.56 6.48, 87.28 11.53, 92.3 18.06 C97.33 24.59, 100.37 34.01, 101.42 42.61 C102.47 51.21, 101.44 61.24, 98.59 69.66 C95.75 78.08, 91.09 87.9, 84.37 93.14 C77.65 98.37, 67.12 100.25, 58.27 101.09 C49.42 101.93, 39.22 101.3, 31.27 98.16 C23.33 95.01, 15.9 88.73, 10.6 82.23 C5.3 75.73, 0.72 67.44, -0.52 59.14 C-1.77 50.84, -0.41 40.53, 3.12 32.42 C6.65 24.3, 13.85 15.61, 20.63 10.46 C27.4 5.31, 39.64 3.09, 43.76 1.53 C47.89 -0.03, 45.47 0.47, 45.37 1.09" stroke="#1e1e1e" stroke-width="1" fill="none"></path></g><g stroke-linecap="round"><g transform="translate(578.70118300892 502.0618068961062) rotate(0 23.366121640518713 -23.000280911287547)" fill-rule="evenodd"><path d="M2.42 -1.91 C10.16 -2.06, 36.31 -0.22, 45.56 -1.63 C54.81 -3.04, 57.9 -6.43, 57.92 -10.38 C57.95 -14.32, 48.01 -20.76, 45.7 -25.28 C43.39 -29.81, 45.88 -33.88, 44.06 -37.52 C42.23 -41.16, 38.1 -46.4, 34.74 -47.13 C31.38 -47.86, 27.05 -43.28, 23.89 -41.9 C20.73 -40.52, 18.56 -39.01, 15.78 -38.86 C12.99 -38.71, 9.37 -41.46, 7.17 -40.99 C4.97 -40.52, 3.48 -38.53, 2.57 -36.04 C1.66 -33.54, 3.1 -27.93, 1.71 -26.02 C0.31 -24.12, -4.22 -26.07, -5.8 -24.61 C-7.37 -23.14, -7.26 -20.76, -7.74 -17.24 C-8.23 -13.72, -10.36 -6.22, -8.71 -3.48 C-7.06 -0.74, 1.11 -1.27, 2.17 -0.79" stroke="none" stroke-width="0" fill="#ffc9c9" fill-rule="evenodd"></path><path d="M1.06 0.42 C9.07 0.06, 37.6 0.77, 46.98 -1.07 C56.37 -2.91, 57.53 -7.03, 57.36 -10.61 C57.19 -14.18, 47.9 -18.4, 45.98 -22.5 C44.06 -26.61, 47.61 -31.21, 45.84 -35.25 C44.06 -39.3, 39.29 -45.48, 35.33 -46.78 C31.37 -48.08, 24.99 -44.72, 22.08 -43.05 C19.18 -41.39, 19.95 -37.44, 17.9 -36.79 C15.86 -36.15, 12.26 -39.68, 9.82 -39.19 C7.37 -38.71, 4.31 -36.07, 3.24 -33.88 C2.18 -31.69, 4.94 -27.52, 3.41 -26.04 C1.87 -24.56, -3.84 -26.57, -5.97 -24.99 C-8.11 -23.4, -9.16 -19.84, -9.39 -16.54 C-9.61 -13.24, -8.86 -7.82, -7.34 -5.18 C-5.81 -2.53, -1.57 -1.36, -0.23 -0.66 M0.16 -0.41 C8.05 -0.1, 36.27 1.67, 45.76 0.15 C55.25 -1.37, 57.53 -5.38, 57.1 -9.54 C56.67 -13.7, 45.28 -20.6, 43.18 -24.8 C41.08 -29.01, 45.63 -31.48, 44.5 -34.77 C43.38 -38.07, 40.09 -43.07, 36.43 -44.57 C32.77 -46.08, 25.74 -45.06, 22.56 -43.82 C19.38 -42.57, 19.71 -37.66, 17.35 -37.13 C15 -36.6, 10.68 -41.1, 8.43 -40.62 C6.19 -40.14, 4.68 -36.86, 3.89 -34.25 C3.1 -31.64, 5.04 -26.38, 3.69 -24.96 C2.34 -23.54, -2.11 -26.95, -4.23 -25.73 C-6.35 -24.5, -8.48 -20.98, -9.02 -17.59 C-9.55 -14.21, -8.93 -8.1, -7.43 -5.43 C-5.93 -2.76, -1.01 -2.42, -0.03 -1.56" stroke="#1e1e1e" stroke-width="1" fill="none"></path></g></g><mask></mask><g transform="translate(556.926672240324 508.2210805594714) rotate(0 44.07061515341775 11.017653788354465)"><text x="44.07061515341784" y="0" font-family="Virgil, Segoe UI Emoji" font-size="17.628246061367136px" fill="#1e1e1e" text-anchor="middle" style="white-space: pre;" direction="ltr" dominant-baseline="text-before-edge">星火大模型</text></g><g stroke-linecap="round" transform="translate(544.4443766276045 226.84771298814962) rotate(0 67.34657068944489 62.60067189868988)"><path d="M31.3 0 C57.25 -2.31, 91.2 -3.27, 103.39 0 C121.51 -0.72, 134.34 10.64, 134.69 31.3 C134.42 47.61, 131.95 71.36, 134.69 93.9 C134.21 113.76, 122.2 122.25, 103.39 125.2 C82.55 128.54, 58.15 124.09, 31.3 125.2 C13.6 128.72, 0.26 113.54, 0 93.9 C-1.48 79.28, 3.23 70.53, 0 31.3 C-0.43 13.49, 12.22 -0.93, 31.3 0" stroke="none" stroke-width="0" fill="#ebfbee"></path><path d="M31.3 0 C59.63 -0.83, 85.1 1.12, 103.39 0 M31.3 0 C51.14 0.43, 69.41 -0.42, 103.39 0 M103.39 0 C123.58 -1.07, 133.62 8.99, 134.69 31.3 M103.39 0 C124.37 -0.99, 136.75 8.79, 134.69 31.3 M134.69 31.3 C132.54 48.71, 132.69 64.56, 134.69 93.9 M134.69 31.3 C133.52 52.63, 134.36 74.61, 134.69 93.9 M134.69 93.9 C134.67 113.82, 123.63 123.41, 103.39 125.2 M134.69 93.9 C135.14 116.83, 122.28 123.19, 103.39 125.2 M103.39 125.2 C83.34 125.76, 58.74 124.82, 31.3 125.2 M103.39 125.2 C82.7 125.02, 61.73 124.46, 31.3 125.2 M31.3 125.2 C10.41 124.19, -0.46 115.66, 0 93.9 M31.3 125.2 C12.03 124.1, -2.14 116.28, 0 93.9 M0 93.9 C0.17 69.12, -0.81 45.3, 0 31.3 M0 93.9 C-0.43 79.46, -0.94 64.69, 0 31.3 M0 31.3 C1.56 12.03, 8.48 1.41, 31.3 0 M0 31.3 C-1.81 9.59, 12.56 -0.76, 31.3 0" stroke="#1e1e1e" stroke-width="2" fill="none"></path></g><g transform="translate(563.5155805205482 275.29383996868614) rotate(0 48 9.600000000000023)"><text x="0" y="0" font-family="Cascadia, Segoe UI Emoji" font-size="16px" fill="#1e1e1e" text-anchor="start" style="white-space: pre;" direction="ltr" dominant-baseline="text-before-edge">图表分析模块</text></g><g stroke-linecap="round"><g transform="translate(432.7500457763672 66.89290647293956) rotate(0 0 13.75)"><path d="M0 0 C0 4.58, 0 22.92, 0 27.5 M0 0 C0 4.58, 0 22.92, 0 27.5" stroke="#1e1e1e" stroke-width="2" fill="none"></path></g><g transform="translate(432.7500457763672 66.89290647293956) rotate(0 0 13.75)"><path d="M-4.7 14.58 C-3.49 17.91, -2.28 21.24, 0 27.5 M-4.7 14.58 C-3.35 18.31, -1.99 22.04, 0 27.5" stroke="#1e1e1e" stroke-width="2" fill="none"></path></g><g transform="translate(432.7500457763672 66.89290647293956) rotate(0 0 13.75)"><path d="M4.7 14.58 C3.49 17.91, 2.28 21.24, 0 27.5 M4.7 14.58 C3.35 18.31, 1.99 22.04, 0 27.5" stroke="#1e1e1e" stroke-width="2" fill="none"></path></g></g><mask></mask><g stroke-linecap="round"><g transform="translate(428 149.22622709061534) rotate(0 0.33331298828125 14)"><path d="M0 0 C0.11 4.67, 0.56 23.33, 0.67 28 M0 0 C0.11 4.67, 0.56 23.33, 0.67 28" stroke="#1e1e1e" stroke-width="2" fill="none"></path></g><g transform="translate(428 149.22622709061534) rotate(0 0.33331298828125 14)"><path d="M-4.43 14.96 C-2.93 18.79, -1.44 22.63, 0.67 28 M-4.43 14.96 C-3.18 18.16, -1.93 21.36, 0.67 28" stroke="#1e1e1e" stroke-width="2" fill="none"></path></g><g transform="translate(428 149.22622709061534) rotate(0 0.33331298828125 14)"><path d="M5.14 14.73 C3.83 18.63, 2.51 22.53, 0.67 28 M5.14 14.73 C4.04 17.99, 2.94 21.25, 0.67 28" stroke="#1e1e1e" stroke-width="2" fill="none"></path></g></g><mask></mask><g stroke-linecap="round"><g transform="translate(254.66668701171875 359.8929141023342) rotate(0 0.333343505859375 35)"><path d="M0 0 C0.11 11.67, 0.56 58.33, 0.67 70 M0 0 C0.11 11.67, 0.56 58.33, 0.67 70" stroke="#1e1e1e" stroke-width="2" fill="none"></path></g><g transform="translate(254.66668701171875 359.8929141023342) rotate(0 0.333343505859375 35)"><path d="M-8.11 46.59 C-5.98 52.27, -3.85 57.95, 0.67 70 M-8.11 46.59 C-4.82 55.36, -1.54 64.12, 0.67 70" stroke="#1e1e1e" stroke-width="2" fill="none"></path></g><g transform="translate(254.66668701171875 359.8929141023342) rotate(0 0.333343505859375 35)"><path d="M8.99 46.43 C6.97 52.15, 4.95 57.87, 0.67 70 M8.99 46.43 C5.87 55.25, 2.76 64.08, 0.67 70" stroke="#1e1e1e" stroke-width="2" fill="none"></path></g></g><mask></mask><g stroke-linecap="round"><g transform="translate(573.4595284564602 371.2262881257717) rotate(0 -18.729764228230124 46.33331298828125)"><path d="M0 0 C-6.24 7, -34.77 26.56, -37.46 42 C-40.15 57.44, -19.68 84.22, -16.13 92.67 M0 0 C-6.24 7, -34.77 26.56, -37.46 42 C-40.15 57.44, -19.68 84.22, -16.13 92.67" stroke="#1e1e1e" stroke-width="2" fill="none"></path></g><g transform="translate(573.4595284564602 371.2262881257717) rotate(0 -18.729764228230124 46.33331298828125)"><path d="M-35.17 76.48 C-27.6 82.91, -20.03 89.35, -16.13 92.67 M-35.17 76.48 C-30.68 80.29, -26.19 84.11, -16.13 92.67" stroke="#1e1e1e" stroke-width="2" fill="none"></path></g><g transform="translate(573.4595284564602 371.2262881257717) rotate(0 -18.729764228230124 46.33331298828125)"><path d="M-20.31 68.02 C-18.65 77.82, -16.98 87.61, -16.13 92.67 M-20.31 68.02 C-19.32 73.83, -18.34 79.64, -16.13 92.67" stroke="#1e1e1e" stroke-width="2" fill="none"></path></g></g><mask></mask><g stroke-linecap="round"><g transform="translate(656.6666870117188 466.55960111405295) rotate(0 15.0539595918749 -48.666656494140625)"><path d="M0 0 C5.44 -8.78, 33.09 -36.44, 32.67 -52.67 C32.24 -68.89, 3.31 -89.89, -2.56 -97.33 M0 0 C5.44 -8.78, 33.09 -36.44, 32.67 -52.67 C32.24 -68.89, 3.31 -89.89, -2.56 -97.33" stroke="#1e1e1e" stroke-width="2" fill="none"></path></g><g transform="translate(656.6666870117188 466.55960111405295) rotate(0 15.0539595918749 -48.666656494140625)"><path d="M20.23 -87.05 C14.47 -89.65, 8.7 -92.26, -2.56 -97.33 M20.23 -87.05 C13.99 -89.87, 7.74 -92.69, -2.56 -97.33" stroke="#1e1e1e" stroke-width="2" fill="none"></path></g><g transform="translate(656.6666870117188 466.55960111405295) rotate(0 15.0539595918749 -48.666656494140625)"><path d="M8.29 -74.81 C5.55 -80.51, 2.8 -86.21, -2.56 -97.33 M8.29 -74.81 C5.32 -80.98, 2.35 -87.15, -2.56 -97.33" stroke="#1e1e1e" stroke-width="2" fill="none"></path></g></g><mask></mask><g stroke-linecap="round"><g transform="translate(341.3333740234375 275.8929141023341) rotate(0 26.33331298828125 -10.999969482421875)"><path d="M0 0 C3.56 -3.67, 12.56 -20.78, 21.33 -22 C30.11 -23.22, 47.44 -9.78, 52.67 -7.33 M0 0 C3.56 -3.67, 12.56 -20.78, 21.33 -22 C30.11 -23.22, 47.44 -9.78, 52.67 -7.33" stroke="#1e1e1e" stroke-width="2" fill="none"></path></g><g transform="translate(341.3333740234375 275.8929141023341) rotate(0 26.33331298828125 -10.999969482421875)"><path d="M35.69 -10.67 C41.14 -9.6, 46.59 -8.53, 52.67 -7.33 M35.69 -10.67 C39.58 -9.91, 43.46 -9.14, 52.67 -7.33" stroke="#1e1e1e" stroke-width="2" fill="none"></path></g><g transform="translate(341.3333740234375 275.8929141023341) rotate(0 26.33331298828125 -10.999969482421875)"><path d="M41.81 -20.8 C45.29 -16.48, 48.78 -12.16, 52.67 -7.33 M41.81 -20.8 C44.3 -17.72, 46.78 -14.64, 52.67 -7.33" stroke="#1e1e1e" stroke-width="2" fill="none"></path></g></g><mask></mask><g stroke-linecap="round"><g transform="translate(489.49344113920824 269.9223946199096) rotate(0 24.91992066574744 -7.787293301400666)"><path d="M0 0 C3.75 -2.94, 14.2 -17.97, 22.51 -17.63 C30.81 -17.29, 45.28 -1.23, 49.84 2.05 M0 0 C3.75 -2.94, 14.2 -17.97, 22.51 -17.63 C30.81 -17.29, 45.28 -1.23, 49.84 2.05" stroke="#1e1e1e" stroke-width="2" fill="none"></path></g><g transform="translate(489.49344113920824 269.9223946199096) rotate(0 24.91992066574744 -7.787293301400666)"><path d="M34.18 -4.15 C40.09 -1.81, 45.99 0.53, 49.84 2.05 M34.18 -4.15 C38.92 -2.27, 43.66 -0.39, 49.84 2.05" stroke="#1e1e1e" stroke-width="2" fill="none"></path></g><g transform="translate(489.49344113920824 269.9223946199096) rotate(0 24.91992066574744 -7.787293301400666)"><path d="M41.83 -12.76 C44.85 -7.18, 47.87 -1.59, 49.84 2.05 M41.83 -12.76 C44.26 -8.28, 46.68 -3.79, 49.84 2.05" stroke="#1e1e1e" stroke-width="2" fill="none"></path></g></g><mask></mask><g stroke-linecap="round"><g transform="translate(534.6666870117188 315.8644371522611) rotate(0 -24.185825837630546 1.807508209114161)"><path d="M0 0 C-4 2, -15.94 13.43, -24 12.03 C-32.06 10.63, -44.31 -5.01, -48.37 -8.41 M0 0 C-4 2, -15.94 13.43, -24 12.03 C-32.06 10.63, -44.31 -5.01, -48.37 -8.41" stroke="#1e1e1e" stroke-width="2" fill="none"></path></g><g transform="translate(534.6666870117188 315.8644371522611) rotate(0 -24.185825837630546 1.807508209114161)"><path d="M-34.03 -1.54 C-38.53 -3.69, -43.02 -5.85, -48.37 -8.41 M-34.03 -1.54 C-37.7 -3.3, -41.38 -5.06, -48.37 -8.41" stroke="#1e1e1e" stroke-width="2" fill="none"></path></g><g transform="translate(534.6666870117188 315.8644371522611) rotate(0 -24.185825837630546 1.807508209114161)"><path d="M-41.81 6.07 C-43.86 1.53, -45.92 -3.01, -48.37 -8.41 M-41.81 6.07 C-43.49 2.36, -45.17 -1.35, -48.37 -8.41" stroke="#1e1e1e" stroke-width="2" fill="none"></path></g></g><mask></mask><g stroke-linecap="round"><g transform="translate(396.6667175292969 298.7760616028463) rotate(0 -28.66668701171875 8.333343505859375)"><path d="M0 0 C-6 3.33, -26.44 20.56, -36 20 C-45.56 19.44, -53.78 0.56, -57.33 -3.33 M0 0 C-6 3.33, -26.44 20.56, -36 20 C-45.56 19.44, -53.78 0.56, -57.33 -3.33" stroke="#1e1e1e" stroke-width="2" fill="none"></path></g><g transform="translate(396.6667175292969 298.7760616028463) rotate(0 -28.66668701171875 8.333343505859375)"><path d="M-44.66 6.11 C-49.45 2.54, -54.25 -1.04, -57.33 -3.33 M-44.66 6.11 C-48.81 3.02, -52.97 -0.08, -57.33 -3.33" stroke="#1e1e1e" stroke-width="2" fill="none"></path></g><g transform="translate(396.6667175292969 298.7760616028463) rotate(0 -28.66668701171875 8.333343505859375)"><path d="M-53.69 12.05 C-55.07 6.23, -56.45 0.41, -57.33 -3.33 M-53.69 12.05 C-54.89 7.01, -56.08 1.96, -57.33 -3.33" stroke="#1e1e1e" stroke-width="2" fill="none"></path></g></g><mask></mask><g stroke-linecap="round"><g transform="translate(696.666748046875 315.8929141023341) rotate(0 -117.3333740234375 140.66665649414068)"><path d="M0 0 C17.78 0.56, 80.22 -16.11, 106.67 3.33 C133.11 22.78, 162.67 70.33, 158.67 116.67 C154.67 163, 174.67 263.11, 82.67 281.33 C-9.33 299.56, -314 235.22, -393.33 226 M0 0 C17.78 0.56, 80.22 -16.11, 106.67 3.33 C133.11 22.78, 162.67 70.33, 158.67 116.67 C154.67 163, 174.67 263.11, 82.67 281.33 C-9.33 299.56, -314 235.22, -393.33 226" stroke="#1e1e1e" stroke-width="2" fill="none"></path></g><g transform="translate(696.666748046875 315.8929141023341) rotate(0 -117.3333740234375 140.66665649414068)"><path d="M-368.78 221.31 C-376.23 222.73, -383.69 224.16, -393.33 226 M-368.78 221.31 C-375.43 222.58, -382.07 223.85, -393.33 226" stroke="#1e1e1e" stroke-width="2" fill="none"></path></g><g transform="translate(696.666748046875 315.8929141023341) rotate(0 -117.3333740234375 140.66665649414068)"><path d="M-371.51 238.19 C-378.13 234.49, -384.76 230.79, -393.33 226 M-371.51 238.19 C-377.42 234.89, -383.32 231.59, -393.33 226" stroke="#1e1e1e" stroke-width="2" fill="none"></path></g></g><mask></mask><g stroke-linecap="round" transform="translate(10 88.55957059647471) rotate(0 67.66665649414062 25)"><path d="M12.5 0 C55.07 0, 97.65 0, 122.83 0 C131.17 0, 135.33 4.17, 135.33 12.5 C135.33 22.11, 135.33 31.71, 135.33 37.5 C135.33 45.83, 131.17 50, 122.83 50 C97.95 50, 73.07 50, 12.5 50 C4.17 50, 0 45.83, 0 37.5 C0 27.67, 0 17.84, 0 12.5 C0 4.17, 4.17 0, 12.5 0" stroke="none" stroke-width="0" fill="#fff9db"></path><path d="M12.5 0 C56.22 0, 99.94 0, 122.83 0 M12.5 0 C35.24 0, 57.98 0, 122.83 0 M122.83 0 C131.17 0, 135.33 4.17, 135.33 12.5 M122.83 0 C131.17 0, 135.33 4.17, 135.33 12.5 M135.33 12.5 C135.33 20.77, 135.33 29.04, 135.33 37.5 M135.33 12.5 C135.33 18.79, 135.33 25.07, 135.33 37.5 M135.33 37.5 C135.33 45.83, 131.17 50, 122.83 50 M135.33 37.5 C135.33 45.83, 131.17 50, 122.83 50 M122.83 50 C97.17 50, 71.51 50, 12.5 50 M122.83 50 C87.56 50, 52.28 50, 12.5 50 M12.5 50 C4.17 50, 0 45.83, 0 37.5 M12.5 50 C4.17 50, 0 45.83, 0 37.5 M0 37.5 C0 32.49, 0 27.48, 0 12.5 M0 37.5 C0 28.2, 0 18.9, 0 12.5 M0 12.5 C0 4.17, 4.17 0, 12.5 0 M0 12.5 C0 4.17, 4.17 0, 12.5 0" stroke="#1e1e1e" stroke-width="2" fill="none"></path></g><g transform="translate(35.479156494140625 103.95957059647469) rotate(0 42.1875 9.600000000000023)"><text x="42.1875" y="0" font-family="Cascadia, Segoe UI Emoji" font-size="16px" fill="#1e1e1e" text-anchor="middle" style="white-space: pre;" direction="ltr" dominant-baseline="text-before-edge">WebSocket</text></g><g stroke-linecap="round"><g transform="translate(178 277.22622709061534) rotate(0 -58.666656494140625 -63.666656494140625)"><path d="M0 0 C-19.56 -6.11, -101.22 -15.44, -117.33 -36.67 C-133.44 -57.89, -100.11 -112.22, -96.67 -127.33 M0 0 C-19.56 -6.11, -101.22 -15.44, -117.33 -36.67 C-133.44 -57.89, -100.11 -112.22, -96.67 -127.33" stroke="#1e1e1e" stroke-width="2" fill="none"></path></g><g transform="translate(178 277.22622709061534) rotate(0 -58.666656494140625 -63.666656494140625)"><path d="M-97.58 -102.35 C-97.38 -107.85, -97.18 -113.36, -96.67 -127.33 M-97.58 -102.35 C-97.25 -111.4, -96.92 -120.45, -96.67 -127.33" stroke="#1e1e1e" stroke-width="2" fill="none"></path></g><g transform="translate(178 277.22622709061534) rotate(0 -58.666656494140625 -63.666656494140625)"><path d="M-113.43 -108.78 C-109.73 -112.87, -106.04 -116.96, -96.67 -127.33 M-113.43 -108.78 C-107.36 -115.5, -101.29 -122.22, -96.67 -127.33" stroke="#1e1e1e" stroke-width="2" fill="none"></path></g></g><mask></mask><g stroke-linecap="round"><g transform="translate(152 87.22622709061534) rotate(0 91 5.0000152587890625)"><path d="M0 0 C15 -1.11, 59.67 -9.44, 90 -6.67 C120.33 -3.89, 166.67 12.78, 182 16.67 M0 0 C15 -1.11, 59.67 -9.44, 90 -6.67 C120.33 -3.89, 166.67 12.78, 182 16.67" stroke="#1e1e1e" stroke-width="2" fill="none"></path></g><g transform="translate(152 87.22622709061534) rotate(0 91 5.0000152587890625)"><path d="M157.04 18.15 C164.31 17.72, 171.57 17.29, 182 16.67 M157.04 18.15 C162.18 17.85, 167.31 17.54, 182 16.67" stroke="#1e1e1e" stroke-width="2" fill="none"></path></g><g transform="translate(152 87.22622709061534) rotate(0 91 5.0000152587890625)"><path d="M161.93 1.76 C167.77 6.1, 173.61 10.44, 182 16.67 M161.93 1.76 C166.06 4.83, 170.18 7.89, 182 16.67" stroke="#1e1e1e" stroke-width="2" fill="none"></path></g></g><mask></mask></svg>