<svg version="1.1" xmlns="http://www.w3.org/2000/svg" viewBox="0 0 1304.1135788642284 1095.3298911495904" width="1304.1135788642284" height="1095.3298911495904">
  <!-- svg-source:excalidraw -->
  
  <defs>
    <style class="style-fonts">
      @font-face {
        font-family: "Virgil";
        src: url("https://excalidraw.com/Virgil.woff2");
      }
      @font-face {
        font-family: "Cascadia";
        src: url("https://excalidraw.com/Cascadia.woff2");
      }
      @font-face {
        font-family: "Assistant";
        src: url("https://excalidraw.com/Assistant-Regular.woff2");
      }
    </style>
    
  </defs>
  <rect x="0" y="0" width="1304.1135788642284" height="1095.3298911495904" fill="#ffffff"></rect><g stroke-linecap="round" transform="translate(309.5072601431605 206.79654764373095) rotate(0 148 37)"><path d="M18.5 0 C77.43 -1.28, 136.21 0.33, 277.5 0 M18.5 0 C82.53 -0.41, 146.3 0.63, 277.5 0 M277.5 0 C290.45 -0.02, 296.74 6.97, 296 18.5 M277.5 0 C287.79 2.13, 297.76 7.03, 296 18.5 M296 18.5 C297.82 25.8, 294.97 33.76, 296 55.5 M296 18.5 C296.53 26.4, 296.04 34.69, 296 55.5 M296 55.5 C296.64 67.56, 291.67 72.77, 277.5 74 M296 55.5 C296.77 66.83, 288.28 76.16, 277.5 74 M277.5 74 C207.29 75.36, 139.14 74.06, 18.5 74 M277.5 74 C191.3 73.82, 107.38 72.96, 18.5 74 M18.5 74 C6.23 75.65, 1.13 66.41, 0 55.5 M18.5 74 C6.71 72.91, 1.84 66.24, 0 55.5 M0 55.5 C-1.98 43.73, -0.77 30.97, 0 18.5 M0 55.5 C0.07 44.84, 1.25 34.08, 0 18.5 M0 18.5 C1.61 6.68, 6.31 0.69, 18.5 0 M0 18.5 C1.04 7.09, 4.4 2.15, 18.5 0" stroke="#1e1e1e" stroke-width="2" fill="none"></path></g><g transform="translate(388.0072601431605 234.19654764373092) rotate(0 69.5 9.599999999999994)"><text x="69.5" y="0" font-family="Cascadia, Segoe UI Emoji" font-size="16px" fill="#1e1e1e" text-anchor="middle" style="white-space: pre;" direction="ltr" dominant-baseline="text-before-edge">前端网页 (React)</text></g><g mask="url(#mask-LBJ1jbrpiUAUK_qupWIHp)" stroke-linecap="round"><g transform="translate(458.1913122550124 115.06677312074589) rotate(0 0.19557504757960942 41.864902520281504)"><path d="M0.06 -0.85 C0.1 13.18, 0.15 69.52, 0.24 83.54 M-1.37 1.32 C-1.49 15.6, -1.01 71.13, -0.78 84.98" stroke="#1e1e1e" stroke-width="2" fill="none"></path></g><g transform="translate(458.1913122550124 115.06677312074589) rotate(0 0.19557504757960942 41.864902520281504)"><path d="M-9.61 61.59 C-8.52 68.32, -4.78 75.96, -0.78 84.98 M-9.61 61.59 C-7.94 66.94, -4.28 74.5, -0.78 84.98" stroke="#1e1e1e" stroke-width="2" fill="none"></path></g><g transform="translate(458.1913122550124 115.06677312074589) rotate(0 0.19557504757960942 41.864902520281504)"><path d="M7.49 61.39 C3.48 68.19, 2.12 75.89, -0.78 84.98 M7.49 61.39 C4.62 66.95, 3.74 74.57, -0.78 84.98" stroke="#1e1e1e" stroke-width="2" fill="none"></path></g></g><mask id="mask-LBJ1jbrpiUAUK_qupWIHp"><rect x="0" y="0" fill="#fff" width="558.5824623501717" height="298.7965781613089"></rect><rect x="409.0362632181194" y="144.43167564102737" fill="#000" width="98.70124816894531" height="25" opacity="1"></rect></mask><g transform="translate(409.0362632181193 144.43167564102737) rotate(0 48.582240371829414 12.702283654543606)"><text x="49.350624084472656" y="0" font-family="Virgil, Segoe UI Emoji" font-size="20px" fill="#1e1e1e" text-anchor="middle" style="white-space: pre;" direction="ltr" dominant-baseline="text-before-edge">1、用户提交</text></g><g transform="translate(515.3860915308214 140.03895800688508) rotate(0 29 18.125)"><text x="0" y="0" font-family="Virgil, Segoe UI Emoji" font-size="14.500000000000012px" fill="#1e1e1e" text-anchor="start" style="white-space: pre;" direction="ltr" dominant-baseline="text-before-edge">原始数据</text><text x="0" y="18.125000000000014" font-family="Virgil, Segoe UI Emoji" font-size="14.500000000000012px" fill="#1e1e1e" text-anchor="start" style="white-space: pre;" direction="ltr" dominant-baseline="text-before-edge">分析需求</text></g><g stroke-linecap="round" transform="translate(314.173886119723 372.1298911495903) rotate(0 293.6666564941406 156.33334350585938)"><path d="M32 0 C204.38 1.74, 376.44 1.5, 555.33 0 M32 0 C205.63 0.92, 379.77 1.13, 555.33 0 M555.33 0 C576.23 -1.91, 585.8 11.63, 587.33 32 M555.33 0 C576.83 0.99, 589.52 10.72, 587.33 32 M587.33 32 C584.99 121.06, 584.77 210.01, 587.33 280.67 M587.33 32 C588.24 96.9, 586.97 163.19, 587.33 280.67 M587.33 280.67 C588.4 300.24, 576.64 311.81, 555.33 312.67 M587.33 280.67 C585.28 300.13, 577.97 311.12, 555.33 312.67 M555.33 312.67 C368.14 311.34, 180.37 311.3, 32 312.67 M555.33 312.67 C390.26 313.02, 225.06 313.11, 32 312.67 M32 312.67 C11.31 312.13, -1.55 301.46, 0 280.67 M32 312.67 C12.39 311.78, 0.18 303.13, 0 280.67 M0 280.67 C1.11 218.92, 2.74 159.43, 0 32 M0 280.67 C-1.81 229.57, -1.71 179.19, 0 32 M0 32 C1.07 11.66, 9.12 -0.14, 32 0 M0 32 C-0.78 11.93, 10.77 1.62, 32 0" stroke="#1e1e1e" stroke-width="2" fill="none"></path></g><g stroke-linecap="round" transform="translate(356.8404510611293 430.1299827023247) rotate(0 92 106.33331298828125)"><path d="M32 0 C60.75 -1.27, 90.84 -1.27, 152 0 M32 0 C60.25 -0.56, 88.61 -0.63, 152 0 M152 0 C173.19 0.94, 182.03 11.88, 184 32 M152 0 C173.6 -1.52, 185.93 10.9, 184 32 M184 32 C185.17 79.63, 183.08 132.68, 184 180.67 M184 32 C182.16 71.12, 182.19 109.37, 184 180.67 M184 180.67 C182.78 203.78, 171.92 212.27, 152 212.67 M184 180.67 C185.09 203.67, 171.17 214.56, 152 212.67 M152 212.67 C111.88 211.77, 75.61 211.49, 32 212.67 M152 212.67 C123.27 214.74, 95.52 213.76, 32 212.67 M32 212.67 C9.63 214.25, -0.05 201.85, 0 180.67 M32 212.67 C8.79 210.52, 0.57 203.39, 0 180.67 M0 180.67 C-0.72 121.75, 0.63 65.14, 0 32 M0 180.67 C-0.03 144.34, 0.84 110.35, 0 32 M0 32 C-0.64 9.51, 10.53 -1.82, 32 0 M0 32 C0.02 10.29, 11.96 1.81, 32 0" stroke="#1e1e1e" stroke-width="2" fill="none"></path></g><g transform="translate(416.8404510611293 507.66329569060593) rotate(0 32 28.799999999999997)"><text x="32" y="0" font-family="Cascadia, Segoe UI Emoji" font-size="16px" fill="#1e1e1e" text-anchor="middle" style="white-space: pre;" direction="ltr" dominant-baseline="text-before-edge">用户登录</text><text x="32" y="19.2" font-family="Cascadia, Segoe UI Emoji" font-size="16px" fill="#1e1e1e" text-anchor="middle" style="white-space: pre;" direction="ltr" dominant-baseline="text-before-edge">图表管理</text><text x="32" y="38.4" font-family="Cascadia, Segoe UI Emoji" font-size="16px" fill="#1e1e1e" text-anchor="middle" style="white-space: pre;" direction="ltr" dominant-baseline="text-before-edge">安全校验</text></g><g stroke-linecap="round" transform="translate(678.5070770376917 437.7966391964653) rotate(0 92 106.33331298828125)"><path d="M32 0 C67.61 0.06, 102.29 -0.62, 152 0 M32 0 C63.21 -0.02, 93.68 0.48, 152 0 M152 0 C174.4 0.76, 184.34 10.74, 184 32 M152 0 C175.57 -2.14, 183.25 10.18, 184 32 M184 32 C181.62 86.23, 183.91 139.18, 184 180.67 M184 32 C184.09 64.92, 183.54 99.74, 184 180.67 M184 180.67 C182.1 200.05, 173.44 213.09, 152 212.67 M184 180.67 C183.68 201.59, 172.7 212.41, 152 212.67 M152 212.67 C115.93 214.73, 81.14 212.73, 32 212.67 M152 212.67 C108.66 212.22, 62.6 212.7, 32 212.67 M32 212.67 C12.41 214.46, -1.71 203.89, 0 180.67 M32 212.67 C10.74 210.44, -0.46 202.99, 0 180.67 M0 180.67 C0.64 147.52, -2.33 114.63, 0 32 M0 180.67 C0.52 147.52, 0.8 114.35, 0 32 M0 32 C1.74 10.42, 10.06 1.95, 32 0 M0 32 C1.44 12.51, 9.38 -1.45, 32 0" stroke="#1e1e1e" stroke-width="2" fill="none"></path></g><g transform="translate(698.5070770376917 505.7299521847466) rotate(0 72 38.4)"><text x="72" y="0" font-family="Cascadia, Segoe UI Emoji" font-size="16px" fill="#1e1e1e" text-anchor="middle" style="white-space: pre;" direction="ltr" dominant-baseline="text-before-edge">用户需求拼接</text><text x="72" y="19.2" font-family="Cascadia, Segoe UI Emoji" font-size="16px" fill="#1e1e1e" text-anchor="middle" style="white-space: pre;" direction="ltr" dominant-baseline="text-before-edge">压缩原始数据</text><text x="72" y="38.4" font-family="Cascadia, Segoe UI Emoji" font-size="16px" fill="#1e1e1e" text-anchor="middle" style="white-space: pre;" direction="ltr" dominant-baseline="text-before-edge">请求AI服务</text><text x="72" y="57.599999999999994" font-family="Cascadia, Segoe UI Emoji" font-size="16px" fill="#1e1e1e" text-anchor="middle" style="white-space: pre;" direction="ltr" dominant-baseline="text-before-edge">筛选处理不合格返回</text></g><g transform="translate(516.1738250845667 390.7966086788872) rotate(0 123.7099380493164 12.5)"><text x="0" y="0" font-family="Virgil, Segoe UI Emoji" font-size="20px" fill="#1e1e1e" text-anchor="start" style="white-space: pre;" direction="ltr" dominant-baseline="text-before-edge">后端服务器群 (SpringBoot)</text></g><g transform="translate(390.1737640494105 457.96320413787157) rotate(0 56 9.200000000000003)"><text x="0" y="0" font-family="Helvetica, Segoe UI Emoji" font-size="16px" fill="#1e1e1e" text-anchor="start" style="white-space: pre;" direction="ltr" dominant-baseline="text-before-edge">后台管理服务器</text></g><g transform="translate(720.173886119723 457.29657816130907) rotate(0 56 9.200000000000003)"><text x="0" y="0" font-family="Helvetica, Segoe UI Emoji" font-size="16px" fill="#1e1e1e" text-anchor="start" style="white-space: pre;" direction="ltr" dominant-baseline="text-before-edge">智能分析服务器</text></g><g mask="url(#mask-tS_SD4jtSJJgaQLzml6bw)" stroke-linecap="round"><g transform="translate(486.24856066432807 283.84421174110815) rotate(0 0.149280277567982 70.00001525878906)"><path d="M-0.75 1.11 C-0.63 24.36, 0.95 116.31, 1 139.55 M1.06 0.64 C1.06 24.06, 0.26 117.88, 0.42 140.85" stroke="#1e1e1e" stroke-width="2" fill="none"></path></g><g transform="translate(486.24856066432807 283.84421174110815) rotate(0 0.149280277567982 70.00001525878906)"><path d="M-8.09 117.34 C-3.5 126.15, -3.34 131.29, 0.42 140.85 M-8.09 117.34 C-4.48 124.51, -2.46 133.79, 0.42 140.85" stroke="#1e1e1e" stroke-width="2" fill="none"></path></g><g transform="translate(486.24856066432807 283.84421174110815) rotate(0 0.149280277567982 70.00001525878906)"><path d="M9.01 117.38 C8.09 126.06, 2.72 131.2, 0.42 140.85 M9.01 117.38 C6.7 124.58, 2.81 133.85, 0.42 140.85" stroke="#1e1e1e" stroke-width="2" fill="none"></path></g></g><mask id="mask-tS_SD4jtSJJgaQLzml6bw"><rect x="0" y="0" fill="#fff" width="586.5471212194641" height="523.8442422586863"></rect><rect x="433.8978409418961" y="341.8442269998972" fill="#000" width="105" height="24" opacity="1"></rect></mask><g transform="translate(433.897840941896 341.8442269998972) rotate(0 52.50340587743477 12.746144725894553)"><text x="52.5" y="0" font-family="Cascadia, Segoe UI Emoji" font-size="20px" fill="#1e1e1e" text-anchor="middle" style="white-space: pre;" direction="ltr" dominant-baseline="text-before-edge">2、接受请求</text></g><g mask="url(#mask-bVSQIf2gokIjtk7X0mv2s)" stroke-linecap="round"><g transform="translate(407.31658367487677 658.7966086788872) rotate(0 0.8787964738027085 155.18164002528107)"><path d="M0.79 1.15 C0.71 53.09, 0.64 259.6, 0.63 311.17 M-0.25 0.71 C-0.07 52.36, 2.2 257.58, 2.74 309.47" stroke="#1e1e1e" stroke-width="2" fill="none"></path></g><g transform="translate(407.31658367487677 658.7966086788872) rotate(0 0.8787964738027085 155.18164002528107)"><path d="M-6.06 286.07 C-0.79 293.27, 2.07 302.52, 2.74 309.47 M-6.06 286.07 C-3.5 293.8, -0.79 301.81, 2.74 309.47" stroke="#1e1e1e" stroke-width="2" fill="none"></path></g><g transform="translate(407.31658367487677 658.7966086788872) rotate(0 0.8787964738027085 155.18164002528107)"><path d="M11.04 285.89 C9.62 293.27, 5.8 302.59, 2.74 309.47 M11.04 285.89 C8.17 293.65, 5.44 301.73, 2.74 309.47" stroke="#1e1e1e" stroke-width="2" fill="none"></path></g></g><mask id="mask-bVSQIf2gokIjtk7X0mv2s"><rect x="0" y="0" fill="#fff" width="509.0741766224822" height="1069.1598887294494"></rect><rect x="335.69538014867953" y="801.9782487041682" fill="#000" width="145" height="24" opacity="1"></rect></mask><g transform="translate(335.6953801486794 801.9782487041682) rotate(0 72.8675069262739 12.756882780161675)"><text x="72.5" y="0" font-family="Cascadia, Segoe UI Emoji" font-size="20px" fill="#1e1e1e" text-anchor="middle" style="white-space: pre;" direction="ltr" dominant-baseline="text-before-edge">3、保存相关信息</text></g><g mask="url(#mask-s7jxzFgGdN767FAOQ2Avq)" stroke-linecap="round"><g transform="translate(510.78042610404674 658.796547643731) rotate(0 63.36335598440064 105.33332824707031)"><path d="M-1.07 0.21 C1.94 30.5, -4.35 147.41, 16.9 182.55 C38.14 217.68, 108.17 206.14, 126.4 211 M0.57 -0.72 C3.53 29.69, -4.78 149.09, 16.04 184.02 C36.85 218.95, 107.08 204.56, 125.46 208.84" stroke="#1e1e1e" stroke-width="2" fill="none"></path></g><g transform="translate(510.78042610404674 658.796547643731) rotate(0 63.36335598440064 105.33332824707031)"><path d="M101.78 216.84 C106.95 215.69, 111.27 213.22, 125.46 208.84 M101.78 216.84 C109.34 213.34, 117.4 211.98, 125.46 208.84" stroke="#1e1e1e" stroke-width="2" fill="none"></path></g><g transform="translate(510.78042610404674 658.796547643731) rotate(0 63.36335598440064 105.33332824707031)"><path d="M102.18 199.74 C107.38 202.1, 111.62 203.15, 125.46 208.84 M102.18 199.74 C109.54 201.85, 117.47 206.11, 125.46 208.84" stroke="#1e1e1e" stroke-width="2" fill="none"></path></g></g><mask id="mask-s7jxzFgGdN767FAOQ2Avq"><rect x="0" y="0" fill="#fff" width="737.507138072848" height="969.4632041378716"></rect><rect x="475.0070770376917" y="829.4632041378716" fill="#000" width="105" height="24" opacity="1"></rect></mask><g transform="translate(475.0070770376917 829.4632041378716) rotate(0 98.43912421478734 -65.5244111585943)"><text x="52.5" y="0" font-family="Cascadia, Segoe UI Emoji" font-size="20px" fill="#1e1e1e" text-anchor="middle" style="white-space: pre;" direction="ltr" dominant-baseline="text-before-edge">4、发送任务</text></g><g mask="url(#mask-9ySGlu9RzN-tbQDR1OEfr)" stroke-linecap="round"><g transform="translate(830.1738250845667 866.1299521847466) rotate(0 25.930386295225844 -100.2313131378917)"><path d="M-0.33 0.34 C9.46 -1.92, 50.56 -0.45, 58.9 -13.64 C67.24 -26.83, 61.35 -47.98, 49.71 -78.81 C38.07 -109.64, -0.92 -178.5, -10.95 -198.62 M1.7 -0.53 C11.28 -3.09, 49.87 -2.32, 57.72 -15.22 C65.57 -28.11, 60.19 -46.98, 48.79 -77.91 C37.39 -108.84, -0.6 -180.58, -10.67 -200.8" stroke="#1e1e1e" stroke-width="2" fill="none"></path></g><g transform="translate(830.1738250845667 866.1299521847466) rotate(0 25.930386295225844 -100.2313131378917)"><path d="M7.63 -183.77 C2.46 -189.9, -2.13 -195, -10.67 -200.8 M7.63 -183.77 C3.84 -187.77, 0.02 -191.96, -10.67 -200.8" stroke="#1e1e1e" stroke-width="2" fill="none"></path></g><g transform="translate(830.1738250845667 866.1299521847466) rotate(0 25.930386295225844 -100.2313131378917)"><path d="M-7.6 -175.99 C-7.98 -184.52, -7.79 -192.07, -10.67 -200.8 M-7.6 -175.99 C-7.85 -181.89, -8.12 -187.89, -10.67 -200.8" stroke="#1e1e1e" stroke-width="2" fill="none"></path></g></g><mask id="mask-9ySGlu9RzN-tbQDR1OEfr"><rect x="0" y="0" fill="#fff" width="1000.5187809909746" height="1165.4632651730278"></rect><rect x="838.0569075880317" y="807.8176874928754" fill="#000" width="105" height="24" opacity="1"></rect></mask><g transform="translate(838.0569075880317 807.8176874928754) rotate(0 18.047303791760896 -41.919048446020525)"><text x="52.5" y="0" font-family="Cascadia, Segoe UI Emoji" font-size="20px" fill="#1e1e1e" text-anchor="middle" style="white-space: pre;" direction="ltr" dominant-baseline="text-before-edge">5、监听任务</text></g><g transform="translate(435.3405731314419 77.25984333433689) rotate(0 27.769973754882812 12.5)"><text x="0" y="0" font-family="Virgil, Segoe UI Emoji" font-size="20px" fill="#000000" text-anchor="start" style="white-space: pre;" direction="ltr" dominant-baseline="text-before-edge">Users</text></g><g stroke-linecap="round" transform="translate(475.78339007066114 10) rotate(0 9.875171816384807 8.640775339336699)"><path d="M2.19 3.23 C2.19 3.23, 2.19 3.23, 2.19 3.23 M2.19 3.23 C2.19 3.23, 2.19 3.23, 2.19 3.23 M2.98 14.51 C6.54 10.41, 10.11 6.31, 14.79 0.93 M2.98 14.51 C6.38 10.6, 9.77 6.69, 14.79 0.93 M10.33 18.25 C13.06 15.11, 15.79 11.97, 19.51 7.69 M10.33 18.25 C13.24 14.9, 16.15 11.55, 19.51 7.69 M3.77 15.47 C3.77 15.47, 3.77 15.47, 3.77 15.47 M3.77 15.47 C3.77 15.47, 3.77 15.47, 3.77 15.47 M15.81 15.34 C10.92 11.08, 6.02 6.82, 2.23 3.53 M15.81 15.34 C11.72 11.78, 7.63 8.22, 2.23 3.53 M20.31 8.65 C16.1 4.99, 11.9 1.34, 9.74 -0.54 M20.31 8.65 C16.14 5.03, 11.98 1.4, 9.74 -0.54" stroke="#ced4da" stroke-width="1" fill="none"></path><path d="M19.75 8.64 C19.75 9.14, 19.7 9.65, 19.6 10.14 C19.5 10.63, 19.35 11.13, 19.15 11.6 C18.96 12.07, 18.71 12.53, 18.43 12.96 C18.14 13.39, 17.81 13.81, 17.44 14.19 C17.07 14.58, 16.66 14.94, 16.22 15.26 C15.78 15.58, 15.31 15.87, 14.81 16.12 C14.32 16.37, 13.79 16.59, 13.25 16.76 C12.72 16.93, 12.15 17.06, 11.59 17.15 C11.03 17.24, 10.45 17.28, 9.88 17.28 C9.3 17.28, 8.72 17.24, 8.16 17.15 C7.6 17.06, 7.03 16.93, 6.5 16.76 C5.96 16.59, 5.43 16.37, 4.94 16.12 C4.44 15.87, 3.97 15.58, 3.53 15.26 C3.09 14.94, 2.68 14.58, 2.31 14.19 C1.94 13.81, 1.61 13.39, 1.32 12.96 C1.04 12.53, 0.79 12.07, 0.6 11.6 C0.4 11.13, 0.25 10.63, 0.15 10.14 C0.05 9.65, 0 9.14, 0 8.64 C0 8.14, 0.05 7.63, 0.15 7.14 C0.25 6.65, 0.4 6.16, 0.6 5.69 C0.79 5.22, 1.04 4.75, 1.32 4.32 C1.61 3.89, 1.94 3.47, 2.31 3.09 C2.68 2.7, 3.09 2.34, 3.53 2.02 C3.97 1.7, 4.44 1.41, 4.94 1.16 C5.43 0.91, 5.96 0.69, 6.5 0.52 C7.03 0.35, 7.6 0.22, 8.16 0.13 C8.72 0.04, 9.3 0, 9.88 0 C10.45 0, 11.03 0.04, 11.59 0.13 C12.15 0.22, 12.72 0.35, 13.25 0.52 C13.79 0.69, 14.32 0.91, 14.81 1.16 C15.31 1.41, 15.78 1.7, 16.22 2.02 C16.66 2.34, 17.07 2.7, 17.44 3.09 C17.81 3.47, 18.14 3.89, 18.43 4.32 C18.71 4.75, 18.96 5.22, 19.15 5.69 C19.35 6.16, 19.5 6.65, 19.6 7.14 C19.7 7.63, 19.73 8.39, 19.75 8.64 C19.78 8.89, 19.78 8.39, 19.75 8.64" stroke="#000000" stroke-width="2" fill="none"></path></g><g stroke-linecap="round" transform="translate(432.59971594633924 10.583067783634078) rotate(0 9.875171816384807 8.640775339336699)"><path d="M2.19 3.23 C2.19 3.23, 2.19 3.23, 2.19 3.23 M2.19 3.23 C2.19 3.23, 2.19 3.23, 2.19 3.23 M2.98 14.51 C5.4 11.72, 7.83 8.93, 14.79 0.93 M2.98 14.51 C6.55 10.4, 10.13 6.29, 14.79 0.93 M10.33 18.25 C13.23 14.91, 16.13 11.57, 19.51 7.69 M10.33 18.25 C13.12 15.04, 15.92 11.82, 19.51 7.69 M3.77 15.47 C3.77 15.47, 3.77 15.47, 3.77 15.47 M3.77 15.47 C3.77 15.47, 3.77 15.47, 3.77 15.47 M15.81 15.34 C10.82 11, 5.82 6.65, 2.23 3.53 M15.81 15.34 C13.01 12.9, 10.2 10.46, 2.23 3.53 M20.31 8.65 C17.73 6.4, 15.15 4.16, 9.74 -0.54 M20.31 8.65 C17.88 6.54, 15.45 4.42, 9.74 -0.54" stroke="#ced4da" stroke-width="1" fill="none"></path><path d="M19.75 8.64 C19.75 9.14, 19.7 9.65, 19.6 10.14 C19.5 10.63, 19.35 11.13, 19.15 11.6 C18.96 12.07, 18.71 12.53, 18.43 12.96 C18.14 13.39, 17.81 13.81, 17.44 14.19 C17.07 14.58, 16.66 14.94, 16.22 15.26 C15.78 15.58, 15.31 15.87, 14.81 16.12 C14.32 16.37, 13.79 16.59, 13.25 16.76 C12.72 16.93, 12.15 17.06, 11.59 17.15 C11.03 17.24, 10.45 17.28, 9.88 17.28 C9.3 17.28, 8.72 17.24, 8.16 17.15 C7.6 17.06, 7.03 16.93, 6.5 16.76 C5.96 16.59, 5.43 16.37, 4.94 16.12 C4.44 15.87, 3.97 15.58, 3.53 15.26 C3.09 14.94, 2.68 14.58, 2.31 14.19 C1.94 13.81, 1.61 13.39, 1.32 12.96 C1.04 12.53, 0.79 12.07, 0.6 11.6 C0.4 11.13, 0.25 10.63, 0.15 10.14 C0.05 9.65, 0 9.14, 0 8.64 C0 8.14, 0.05 7.63, 0.15 7.14 C0.25 6.65, 0.4 6.16, 0.6 5.69 C0.79 5.22, 1.04 4.75, 1.32 4.32 C1.61 3.89, 1.94 3.47, 2.31 3.09 C2.68 2.7, 3.09 2.34, 3.53 2.02 C3.97 1.7, 4.44 1.41, 4.94 1.16 C5.43 0.91, 5.96 0.69, 6.5 0.52 C7.03 0.35, 7.6 0.22, 8.16 0.13 C8.72 0.04, 9.3 0, 9.88 0 C10.45 0, 11.03 0.04, 11.59 0.13 C12.15 0.22, 12.72 0.35, 13.25 0.52 C13.79 0.69, 14.32 0.91, 14.81 1.16 C15.31 1.41, 15.78 1.7, 16.22 2.02 C16.66 2.34, 17.07 2.7, 17.44 3.09 C17.81 3.47, 18.14 3.89, 18.43 4.32 C18.71 4.75, 18.96 5.22, 19.15 5.69 C19.35 6.16, 19.5 6.65, 19.6 7.14 C19.7 7.63, 19.73 8.39, 19.75 8.64 C19.78 8.89, 19.78 8.39, 19.75 8.64" stroke="#000000" stroke-width="2" fill="none"></path></g><g stroke-linecap="round"><g transform="translate(443.0515359536036 69.51410352128369) rotate(0 20.903001066267336 -18.613522148782124)" fill-rule="evenodd"><path d="M11.93 -33.36 C11.93 -33.36, 11.93 -33.36, 11.93 -33.36 M11.93 -33.36 C11.93 -33.36, 11.93 -33.36, 11.93 -33.36 M1.56 -9.24 C9.03 -17.83, 16.49 -26.42, 25.18 -36.41 M1.56 -9.24 C8.75 -17.51, 15.93 -25.77, 25.18 -36.41 M4.32 -0.22 C13.69 -11, 23.07 -21.79, 31.22 -31.16 M4.32 -0.22 C12.53 -9.66, 20.74 -19.11, 31.22 -31.16 M14.95 -0.26 C22.91 -9.42, 30.88 -18.58, 36.6 -25.16 M14.95 -0.26 C19.42 -5.4, 23.9 -10.55, 36.6 -25.16 M25.58 -0.29 C29.26 -4.53, 32.95 -8.77, 40.67 -17.65 M25.58 -0.29 C29.05 -4.28, 32.52 -8.27, 40.67 -17.65 M36.21 -0.32 C37.8 -2.16, 39.39 -3.99, 44.08 -9.38 M36.21 -0.32 C39.1 -3.65, 41.98 -6.97, 44.08 -9.38 M0 0 C0 0, 0 0, 0 0 M0 0 C0 0, 0 0, 0 0 M12.04 -0.13 C8.49 -3.22, 4.94 -6.31, 1.47 -9.32 M12.04 -0.13 C8.88 -2.88, 5.73 -5.62, 1.47 -9.32 M24.08 -0.27 C18.06 -5.5, 12.04 -10.74, 2.95 -18.64 M24.08 -0.27 C16.07 -7.23, 8.06 -14.19, 2.95 -18.64 M35.37 -1.06 C24.73 -10.31, 14.09 -19.55, 5.93 -26.64 M35.37 -1.06 C28.23 -7.26, 21.1 -13.46, 5.93 -26.64 M42.88 -5.12 C36.1 -11.02, 29.32 -16.91, 11.18 -32.68 M42.88 -5.12 C33.94 -12.9, 24.99 -20.68, 11.18 -32.68 M41.34 -17.07 C33.53 -23.86, 25.72 -30.64, 18.7 -36.75 M41.34 -17.07 C33.14 -24.19, 24.95 -31.31, 18.7 -36.75" stroke="#ced4da" stroke-width="1" fill="none"></path><path d="M0 0 C0.78 -4.11, 1.34 -18.46, 4.68 -24.67 C8.03 -30.87, 14.94 -36.78, 20.07 -37.23 C25.2 -37.68, 31.83 -33.14, 35.45 -27.36 C39.07 -21.58, 47.71 -7.12, 41.81 -2.56 C35.9 2, 6.97 -0.43, 0 0 M0 0 C0.78 -4.11, 1.34 -18.46, 4.68 -24.67 C8.03 -30.87, 14.94 -36.78, 20.07 -37.23 C25.2 -37.68, 31.83 -33.14, 35.45 -27.36 C39.07 -21.58, 47.71 -7.12, 41.81 -2.56 C35.9 2, 6.97 -0.43, 0 0" stroke="#000000" stroke-width="2" fill="none"></path></g></g><mask></mask><g stroke-linecap="round" transform="translate(453.53765810441354 12.939592201446658) rotate(0 10.702336545928858 9.364544477687787)"><path d="M2.43 3.43 C2.43 3.43, 2.43 3.43, 2.43 3.43 M2.43 3.43 C2.43 3.43, 2.43 3.43, 2.43 3.43 M2.56 15.48 C5.58 12, 8.6 8.52, 15.02 1.14 M2.56 15.48 C5.8 11.74, 9.05 8.01, 15.02 1.14 M10.57 18.46 C14.46 13.98, 18.36 9.49, 21.06 6.38 M10.57 18.46 C13.25 15.38, 15.93 12.29, 21.06 6.38 M4.02 16.71 C4.02 16.71, 4.02 16.71, 4.02 16.71 M4.02 16.71 C4.02 16.71, 4.02 16.71, 4.02 16.71 M16.82 17.23 C13.16 14.05, 9.5 10.87, 1.72 4.11 M16.82 17.23 C11.53 12.64, 6.24 8.04, 1.72 4.11 M21.31 10.54 C17.07 6.85, 12.82 3.16, 9.24 0.04 M21.31 10.54 C18.4 8.01, 15.48 5.47, 9.24 0.04" stroke="#ced4da" stroke-width="1" fill="none"></path><path d="M21.4 9.36 C21.4 9.91, 21.35 10.46, 21.24 10.99 C21.13 11.52, 20.97 12.06, 20.76 12.57 C20.55 13.08, 20.28 13.58, 19.97 14.05 C19.66 14.52, 19.3 14.97, 18.9 15.38 C18.5 15.8, 18.06 16.19, 17.58 16.54 C17.11 16.89, 16.59 17.2, 16.05 17.47 C15.52 17.75, 14.94 17.98, 14.36 18.16 C13.78 18.35, 13.17 18.49, 12.56 18.59 C11.95 18.68, 11.32 18.73, 10.7 18.73 C10.08 18.73, 9.45 18.68, 8.84 18.59 C8.23 18.49, 7.62 18.35, 7.04 18.16 C6.46 17.98, 5.89 17.75, 5.35 17.47 C4.81 17.2, 4.3 16.89, 3.82 16.54 C3.35 16.19, 2.9 15.8, 2.5 15.38 C2.11 14.97, 1.74 14.52, 1.43 14.05 C1.12 13.58, 0.86 13.08, 0.65 12.57 C0.43 12.06, 0.27 11.52, 0.16 10.99 C0.06 10.46, 0 9.91, 0 9.36 C0 8.82, 0.06 8.27, 0.16 7.74 C0.27 7.2, 0.43 6.67, 0.65 6.16 C0.86 5.65, 1.12 5.15, 1.43 4.68 C1.74 4.21, 2.11 3.76, 2.5 3.35 C2.9 2.93, 3.35 2.54, 3.82 2.19 C4.3 1.84, 4.81 1.53, 5.35 1.25 C5.89 0.98, 6.46 0.75, 7.04 0.56 C7.62 0.38, 8.23 0.24, 8.84 0.14 C9.45 0.05, 10.08 0, 10.7 0 C11.32 0, 11.95 0.05, 12.56 0.14 C13.17 0.24, 13.78 0.38, 14.36 0.56 C14.94 0.75, 15.52 0.98, 16.05 1.25 C16.59 1.53, 17.11 1.84, 17.58 2.19 C18.06 2.54, 18.5 2.93, 18.9 3.35 C19.3 3.76, 19.66 4.21, 19.97 4.68 C20.28 5.15, 20.55 5.65, 20.76 6.16 C20.97 6.67, 21.13 7.2, 21.24 7.74 C21.35 8.27, 21.38 9.09, 21.4 9.36 C21.43 9.64, 21.43 9.09, 21.4 9.36" stroke="#000000" stroke-width="2" fill="none"></path></g><g stroke-linecap="round"><g transform="translate(472.2028714080545 35.84503883623074) rotate(0 16.71865860152218 9.951582500906)" fill-rule="evenodd"><path d="M0 0 C0 0, 0 0, 0 0 M0 0 C0 0, 0 0, 0 0 M6.04 5.25 C8.9 1.96, 11.76 -1.34, 17.85 -8.34 M6.04 5.25 C10.17 0.49, 14.31 -4.27, 17.85 -8.34 M10.11 12.76 C15.41 6.66, 20.71 0.56, 25.2 -4.6 M10.11 12.76 C13.75 8.57, 17.39 4.38, 25.2 -4.6 M14.18 20.27 C19.38 14.28, 24.59 8.29, 29.27 2.92 M14.18 20.27 C19.8 13.8, 25.43 7.33, 29.27 2.92 M17.59 28.54 C20.74 24.91, 23.9 21.29, 32.02 11.94 M17.59 28.54 C21.07 24.54, 24.54 20.54, 32.02 11.94 M29.53 27 C31.01 25.3, 32.48 23.6, 34.12 21.71 M29.53 27 C30.97 25.35, 32.4 23.7, 34.12 21.71 M14.43 27.6 C14.43 27.6, 14.43 27.6, 14.43 27.6 M14.43 27.6 C14.43 27.6, 14.43 27.6, 14.43 27.6 M26.47 27.47 C21.7 23.32, 16.93 19.17, 9.87 13.04 M26.47 27.47 C21.77 23.38, 17.07 19.3, 9.87 13.04 M33.23 22.75 C21.94 12.94, 10.66 3.13, 3.04 -3.5 M33.23 22.75 C26.66 17.04, 20.09 11.33, 3.04 -3.5 M31.68 10.8 C26.53 6.32, 21.37 1.84, 9.8 -8.22 M31.68 10.8 C24.57 4.62, 17.46 -1.56, 9.8 -8.22" stroke="#ced4da" stroke-width="1" fill="none"></path><path d="M0 0 C0.86 -0.93, 3.58 -4.18, 5.17 -5.57 C6.77 -6.97, 7.56 -7.83, 9.55 -8.36 C11.54 -8.89, 14.99 -8.89, 17.12 -8.76 C19.24 -8.62, 20.83 -8.43, 22.29 -7.56 C23.75 -6.7, 24.88 -5.11, 25.87 -3.58 C26.87 -2.06, 27.47 -0.33, 28.26 1.59 C29.06 3.52, 29.92 5.84, 30.65 7.96 C31.38 10.08, 32.18 12.41, 32.64 14.33 C33.11 16.25, 33.44 17.78, 33.44 19.51 C33.44 21.23, 33.3 23.42, 32.64 24.68 C31.98 25.94, 30.72 26.47, 29.46 27.07 C28.2 27.67, 26.87 28, 25.08 28.26 C23.29 28.53, 20.43 28.73, 18.71 28.66 C16.98 28.59, 15.46 28.93, 14.73 27.86 C14 26.8, 14.66 23.82, 14.33 22.29 C14 20.77, 13.47 20.23, 12.74 18.71 C12.01 17.18, 11.08 15.33, 9.95 13.14 C8.82 10.95, 7.63 7.76, 5.97 5.57 C4.31 3.38, 1 0.93, 0 0 M0 0 C0.86 -0.93, 3.58 -4.18, 5.17 -5.57 C6.77 -6.97, 7.56 -7.83, 9.55 -8.36 C11.54 -8.89, 14.99 -8.89, 17.12 -8.76 C19.24 -8.62, 20.83 -8.43, 22.29 -7.56 C23.75 -6.7, 24.88 -5.11, 25.87 -3.58 C26.87 -2.06, 27.47 -0.33, 28.26 1.59 C29.06 3.52, 29.92 5.84, 30.65 7.96 C31.38 10.08, 32.18 12.41, 32.64 14.33 C33.11 16.25, 33.44 17.78, 33.44 19.51 C33.44 21.23, 33.3 23.42, 32.64 24.68 C31.98 25.94, 30.72 26.47, 29.46 27.07 C28.2 27.67, 26.87 28, 25.08 28.26 C23.29 28.53, 20.43 28.73, 18.71 28.66 C16.98 28.59, 15.46 28.93, 14.73 27.86 C14 26.8, 14.66 23.82, 14.33 22.29 C14 20.77, 13.47 20.23, 12.74 18.71 C12.01 17.18, 11.08 15.33, 9.95 13.14 C8.82 10.95, 7.63 7.76, 5.97 5.57 C4.31 3.38, 1 0.93, 0 0" stroke="#000000" stroke-width="2" fill="none"></path></g></g><mask></mask><g stroke-linecap="round"><g transform="translate(454.2840849547205 35.833162932826326) rotate(0 -16.121563651467852 11.941899001087336)" fill-rule="evenodd"><path d="M-24.42 -2.68 C-24.42 -2.68, -24.42 -2.68, -24.42 -2.68 M-24.42 -2.68 C-24.42 -2.68, -24.42 -2.68, -24.42 -2.68 M-31.51 17.66 C-25.51 10.76, -19.5 3.85, -10.51 -6.49 M-31.51 17.66 C-23.8 8.8, -16.1 -0.07, -10.51 -6.49 M-29.41 27.44 C-23.91 21.11, -18.41 14.79, -2.51 -3.51 M-29.41 27.44 C-20.53 17.23, -11.66 7.02, -2.51 -3.51 M-22.06 31.18 C-17.19 25.58, -12.32 19.98, -8.28 15.33 M-22.06 31.18 C-17.38 25.8, -12.7 20.41, -8.28 15.33 M-12.08 31.9 C-11.58 31.31, -11.07 30.73, -10.77 30.39 M-12.08 31.9 C-11.68 31.43, -11.27 30.96, -10.77 30.39 M-31.63 25.72 C-31.63 25.72, -31.63 25.72, -31.63 25.72 M-31.63 25.72 C-31.63 25.72, -31.63 25.72, -31.63 25.72 M-12.8 31.49 C-17.97 26.99, -23.15 22.49, -30.91 15.74 M-12.8 31.49 C-17.06 27.78, -21.32 24.07, -30.91 15.74 M-9.06 24.14 C-14.6 19.32, -20.15 14.5, -28.68 7.08 M-9.06 24.14 C-13.38 20.38, -17.7 16.62, -28.68 7.08 M-8.34 14.16 C-13.91 9.32, -19.49 4.47, -25.7 -0.93 M-8.34 14.16 C-13.94 9.3, -19.54 4.43, -25.7 -0.93 M-4.6 6.81 C-10.59 1.6, -16.58 -3.6, -20.45 -6.96 M-4.6 6.81 C-10.26 1.89, -15.93 -3.04, -20.45 -6.96 M-0.1 0.12 C-3.58 -2.9, -7.06 -5.93, -9.16 -7.75 M-0.1 0.12 C-2.91 -2.32, -5.73 -4.77, -9.16 -7.75" stroke="#ced4da" stroke-width="1" fill="none"></path><path d="M0 0 C-0.66 -0.73, -2.59 -3.18, -3.98 -4.38 C-5.37 -5.57, -6.37 -6.63, -8.36 -7.17 C-10.35 -7.7, -13.8 -7.7, -15.92 -7.56 C-18.05 -7.43, -19.64 -7.23, -21.1 -6.37 C-22.56 -5.51, -23.68 -3.91, -24.68 -2.39 C-25.68 -0.86, -26.27 0.86, -27.07 2.79 C-27.86 4.71, -28.73 7.03, -29.46 9.16 C-30.19 11.28, -30.98 13.6, -31.45 15.52 C-31.91 17.45, -32.24 18.97, -32.24 20.7 C-32.24 22.42, -32.11 24.61, -31.45 25.87 C-30.78 27.13, -29.46 27.53, -28.26 28.26 C-27.07 28.99, -26.01 29.72, -24.28 30.25 C-22.56 30.78, -20.1 31.25, -17.91 31.45 C-15.72 31.65, -12.41 32.64, -11.15 31.45 C-9.89 30.25, -10.62 26.07, -10.35 24.28 C-10.08 22.49, -9.89 22.29, -9.55 20.7 C-9.22 19.11, -9.16 17.05, -8.36 14.73 C-7.56 12.41, -6.17 9.22, -4.78 6.77 C-3.38 4.31, -0.8 1.13, 0 0 M0 0 C-0.66 -0.73, -2.59 -3.18, -3.98 -4.38 C-5.37 -5.57, -6.37 -6.63, -8.36 -7.17 C-10.35 -7.7, -13.8 -7.7, -15.92 -7.56 C-18.05 -7.43, -19.64 -7.23, -21.1 -6.37 C-22.56 -5.51, -23.68 -3.91, -24.68 -2.39 C-25.68 -0.86, -26.27 0.86, -27.07 2.79 C-27.86 4.71, -28.73 7.03, -29.46 9.16 C-30.19 11.28, -30.98 13.6, -31.45 15.52 C-31.91 17.45, -32.24 18.97, -32.24 20.7 C-32.24 22.42, -32.11 24.61, -31.45 25.87 C-30.78 27.13, -29.46 27.53, -28.26 28.26 C-27.07 28.99, -26.01 29.72, -24.28 30.25 C-22.56 30.78, -20.1 31.25, -17.91 31.45 C-15.72 31.65, -12.41 32.64, -11.15 31.45 C-9.89 30.25, -10.62 26.07, -10.35 24.28 C-10.08 22.49, -9.89 22.29, -9.55 20.7 C-9.22 19.11, -9.16 17.05, -8.36 14.73 C-7.56 12.41, -6.17 9.22, -4.78 6.77 C-3.38 4.31, -0.8 1.13, 0 0" stroke="#000000" stroke-width="2" fill="none"></path></g></g><mask></mask><g stroke-linecap="round"><g transform="translate(702.7055968892862 805.6769548273164) rotate(89.99999999999994 26.130466310641737 64.96148966423756)" fill-rule="evenodd"><path d="M2.08 -4.82 C2.08 -4.82, 2.08 -4.82, 2.08 -4.82 M2.08 -4.82 C2.08 -4.82, 2.08 -4.82, 2.08 -4.82 M1.82 1.58 C4.56 -0.66, 6.47 -5.75, 12.31 -10.5 M1.82 1.58 C3.98 -2.29, 8.24 -4.79, 12.31 -10.5 M1.56 7.98 C8.55 2.46, 10.77 -4.99, 18.61 -11.64 M1.56 7.98 C5.79 2.86, 10.43 -1.23, 18.61 -11.64 M1.95 13.62 C8.06 8.69, 14.35 2.69, 24.26 -12.04 M1.95 13.62 C9.31 3.81, 17.88 -4.93, 24.26 -12.04 M1.69 20.02 C10.12 8.63, 21.74 -1.91, 27.93 -10.17 M1.69 20.02 C12.02 9.01, 21.31 -2.11, 27.93 -10.17 M2.08 25.66 C10.26 18.98, 13.94 11.73, 32.26 -9.06 M2.08 25.66 C12.16 14.92, 23.57 2.02, 32.26 -9.06 M1.82 32.06 C14.3 18.82, 27.1 3.13, 36.59 -7.94 M1.82 32.06 C9.71 24.01, 17.08 15.13, 36.59 -7.94 M2.22 37.7 C15.89 22.01, 29.81 3.21, 41.58 -7.58 M2.22 37.7 C10.67 27.13, 19.57 18.66, 41.58 -7.58 M1.96 44.1 C13.57 32.18, 23.8 21.76, 46.57 -7.22 M1.96 44.1 C11.78 33.28, 21.68 21.33, 46.57 -7.22 M2.35 49.74 C12.82 37.08, 20.62 24.66, 48.93 -3.84 M2.35 49.74 C17.72 31.76, 31.97 15.25, 48.93 -3.84 M2.09 56.14 C15.63 39.77, 25.68 25.18, 51.95 -1.22 M2.09 56.14 C14.32 42.5, 24.71 29.12, 51.95 -1.22 M52.61 -1.97 C52.61 -1.97, 52.61 -1.97, 52.61 -1.97 M52.61 -1.97 C52.61 -1.97, 52.61 -1.97, 52.61 -1.97 M2.48 61.78 C13.18 47.25, 28.5 33.16, 52.34 4.43 M2.48 61.78 C19.12 44.14, 33.98 26.76, 52.34 4.43 M2.22 68.18 C19.6 50.03, 37.55 28.8, 52.08 10.82 M2.22 68.18 C14.18 56.16, 25.26 41.87, 52.08 10.82 M1.96 74.58 C17.99 59.41, 28.12 41.57, 52.48 16.47 M1.96 74.58 C22.03 52.7, 40.94 29.28, 52.48 16.47 M2.35 80.22 C21.86 61.41, 39.95 38.55, 52.22 22.86 M2.35 80.22 C18.72 61.58, 35.8 40.74, 52.22 22.86 M2.09 86.62 C17.81 70.86, 32.45 53.28, 52.61 28.51 M2.09 86.62 C20.56 66.38, 37.07 43.94, 52.61 28.51 M2.49 92.26 C23.62 70.52, 41.33 46.19, 52.35 34.91 M2.49 92.26 C16.56 74.67, 31.79 58.95, 52.35 34.91 M2.23 98.66 C19.99 76.36, 40.97 54.7, 52.09 41.3 M2.23 98.66 C13.52 85.84, 23.95 74.59, 52.09 41.3 M2.62 104.3 C16.31 88.19, 33.24 71.43, 52.48 46.95 M2.62 104.3 C15.33 88.89, 27.69 75.87, 52.48 46.95 M2.36 110.7 C21.72 89.69, 41.27 65.86, 52.22 53.34 M2.36 110.7 C16.91 93.49, 30.97 77.74, 52.22 53.34 M2.75 116.35 C13.7 104.61, 23.27 93.57, 52.61 58.99 M2.75 116.35 C17.77 97.61, 33.32 79.15, 52.61 58.99 M2.49 122.74 C15.93 107.13, 31.8 89.7, 52.35 65.39 M2.49 122.74 C13.91 110.9, 24.33 98.56, 52.35 65.39 M2.23 129.14 C19.02 107.52, 40.19 89.19, 52.09 71.78 M2.23 129.14 C17.19 111.37, 31.37 95.32, 52.09 71.78 M2.63 134.78 C23.82 112.11, 41.2 92.32, 52.49 77.43 M2.63 134.78 C22.38 111.39, 41.31 88.15, 52.49 77.43 M5.64 137.41 C18.17 124.24, 26.54 112.89, 52.23 83.82 M5.64 137.41 C21.28 118.91, 36.01 101.76, 52.23 83.82 M8.66 140.03 C25.42 122.86, 40.61 103.17, 52.62 89.47 M8.66 140.03 C23.21 124.51, 36.7 108.17, 52.62 89.47 M12.99 141.15 C23.26 132.17, 27.66 122.06, 52.36 95.86 M12.99 141.15 C24.22 128.95, 35.62 115.99, 52.36 95.86 M17.33 142.26 C24.62 132.28, 35.58 121.08, 52.1 102.26 M17.33 142.26 C25.56 132.52, 32 124.49, 52.1 102.26 M21.66 143.38 C32.41 132.89, 40.84 123.06, 52.49 107.91 M21.66 143.38 C31.22 130.67, 42.62 118.65, 52.49 107.91 M27.96 142.23 C33.86 134.76, 43.93 125.42, 52.23 114.3 M27.96 142.23 C33.77 134.37, 39.8 128.96, 52.23 114.3 M34.25 141.08 C39.37 136.91, 44.16 131.61, 52.62 119.95 M34.25 141.08 C38.55 135.94, 42.34 132, 52.62 119.95 M39.9 140.68 C42 137.69, 48.14 131.36, 52.36 126.34 M39.9 140.68 C42.93 136.5, 46.28 133.68, 52.36 126.34 M44.88 141.04 C46.57 138.93, 50.46 134.74, 54.07 130.48 M44.88 141.04 C48.17 137.76, 51.08 133.39, 54.07 130.48" stroke="#40c057" stroke-width="0.5" fill="none"></path><path d="M-0.96 0.31 C-1.13 19.73, -0.7 95.49, -0.67 116.98 C-0.64 138.48, -1.4 126.12, -0.78 129.3 C-0.15 132.47, 0.76 134.03, 3.09 136.05 C5.41 138.06, 9.22 140.27, 13.15 141.39 C17.09 142.52, 21.87 142.99, 26.67 142.81 C31.48 142.63, 37.89 141.8, 41.99 140.32 C46.09 138.83, 49.46 135.77, 51.28 133.93 C53.09 132.08, 52.71 131.81, 52.91 129.23 C53.1 126.65, 52.75 138.47, 52.44 118.45 C52.13 98.43, 51.13 29.1, 51.05 9.09 C50.97 -10.92, 52.51 1.1, 51.98 -1.62 C51.46 -4.34, 49.5 -5.92, 47.89 -7.22 C46.28 -8.51, 46.08 -8.71, 42.34 -9.41 C38.6 -10.12, 30.45 -11.44, 25.45 -11.45 C20.46 -11.47, 16.15 -10.63, 12.38 -9.5 C8.61 -8.37, 4.7 -6.28, 2.82 -4.67 C0.94 -3.05, 1.69 -0.77, 1.1 0.16 C0.5 1.09, -0.57 1.12, -0.75 0.91 M0.73 -0.57 C0.91 19.03, 1.43 96.81, 1.59 118.6 C1.76 140.4, 1.38 127.07, 1.7 130.18 C2.03 133.29, 1.78 135.25, 3.54 137.25 C5.3 139.24, 8.28 141.33, 12.26 142.13 C16.25 142.94, 22.49 142.55, 27.46 142.07 C32.44 141.58, 38.3 140.65, 42.12 139.23 C45.94 137.8, 48.81 135.42, 50.4 133.52 C51.98 131.63, 51.16 130.47, 51.64 127.88 C52.12 125.29, 53.43 137.69, 53.29 117.99 C53.15 98.3, 51.23 29.2, 50.79 9.7 C50.34 -9.79, 51.12 3.44, 50.62 1.01 C50.12 -1.43, 49.2 -3.15, 47.78 -4.91 C46.36 -6.67, 45.75 -8.44, 42.1 -9.55 C38.44 -10.65, 30.63 -11.26, 25.85 -11.56 C21.06 -11.85, 17.4 -12.61, 13.4 -11.3 C9.4 -10, 4.04 -5.73, 1.87 -3.74 C-0.3 -1.75, 0.53 -0.25, 0.41 0.65 C0.28 1.55, 1.11 1.72, 1.12 1.64" stroke="#087f5b" stroke-width="1" fill="none"></path></g></g><mask></mask><g stroke-linecap="round"><g transform="translate(678.1781864849293 866.1152243731628) rotate(89.99999999999994 25.358738319623797 5.765431739611074)"><path d="M-0.85 0.16 C-0.59 0.82, -0.84 2.68, 0.55 4.24 C1.94 5.79, 4.94 8.1, 7.49 9.49 C10.04 10.87, 12.85 12.01, 15.87 12.54 C18.89 13.08, 21.6 12.94, 25.59 12.68 C29.58 12.42, 35.87 12.34, 39.82 10.97 C43.76 9.59, 47.32 6.32, 49.26 4.4 C51.21 2.49, 51.23 0.31, 51.49 -0.52 M0.91 -0.8 C1.63 -0.04, 1.85 3.39, 2.85 5.34 C3.85 7.29, 5.23 10.07, 6.93 10.9 C8.63 11.73, 9.67 9.92, 13.04 10.34 C16.41 10.75, 22.54 13.39, 27.16 13.37 C31.77 13.34, 36.9 11.91, 40.72 10.18 C44.53 8.45, 48.36 4.83, 50.05 3 C51.74 1.16, 51 0, 50.87 -0.83" stroke="#087f5b" stroke-width="1" fill="none"></path></g></g><mask></mask><g stroke-linecap="round"><g transform="translate(723.6039676333712 866.454309498163) rotate(89.99999999999994 25.286239536301878 4.6215702890248025)"><path d="M-0.79 -0.83 C-0.36 -0.15, 0.23 2.75, 1.72 4.24 C3.22 5.73, 6.21 7.15, 8.18 8.12 C10.15 9.1, 10.61 9.74, 13.54 10.09 C16.46 10.44, 21.15 10.5, 25.72 10.2 C30.29 9.9, 36.98 9.37, 40.96 8.28 C44.94 7.19, 47.99 5.14, 49.62 3.68 C51.25 2.22, 50.75 0.33, 50.72 -0.48 M1 1.36 C1.38 2.24, -0.18 5.07, 0.98 5.87 C2.15 6.66, 5.97 5.8, 8 6.13 C10.03 6.46, 9.93 7.04, 13.16 7.83 C16.39 8.62, 23.11 10.95, 27.4 10.85 C31.68 10.74, 34.98 8.59, 38.86 7.18 C42.73 5.77, 48.85 3.7, 50.67 2.37 C52.49 1.03, 49.75 -0.55, 49.78 -0.83" stroke="#087f5b" stroke-width="1" fill="none"></path></g></g><mask></mask><g stroke-linecap="round" transform="translate(770.2087407654863 860.6011135772746) rotate(89.99999999999994 25.639064267762706 11.398576284497963)"><path d="M30.37 0.85 C35.76 1.05, 41.83 1.47, 45.26 3.32 C48.68 5.16, 50.83 9.54, 50.93 11.93 C51.03 14.32, 49.32 15.96, 45.88 17.66 C42.43 19.37, 35.71 21.63, 30.24 22.16 C24.78 22.69, 17.86 21.98, 13.08 20.84 C8.29 19.69, 3.45 17.34, 1.52 15.27 C-0.4 13.2, -0.19 10.83, 1.54 8.42 C3.27 6.02, 6.23 2.07, 11.88 0.84 C17.54 -0.4, 30.85 0.71, 35.47 1.03 C40.09 1.34, 39.78 2.47, 39.62 2.72 M35.51 0.23 C40.42 1.33, 47.27 4.98, 49.54 7.13 C51.81 9.29, 50.71 11.01, 49.13 13.16 C47.56 15.31, 44.11 18.45, 40.07 20.02 C36.04 21.59, 30.07 22.58, 24.91 22.58 C19.76 22.57, 13.34 21.42, 9.15 19.98 C4.96 18.55, 0.63 16.31, -0.21 13.97 C-1.06 11.62, 1.03 8.39, 4.06 5.91 C7.09 3.42, 12.75 -0.07, 17.94 -0.96 C23.14 -1.84, 32.08 0.21, 35.25 0.59 C38.41 0.98, 37.07 1.11, 36.91 1.34" stroke="none" stroke-width="0" fill="#fff"></path><path d="M37.5 0.37 C42.29 1.47, 47.43 4.58, 49.53 7.06 C51.64 9.54, 51.75 12.93, 50.14 15.26 C48.53 17.58, 44.45 19.93, 39.89 21.02 C35.33 22.11, 28.35 22.08, 22.79 21.8 C17.22 21.52, 10.44 21.05, 6.49 19.35 C2.54 17.65, -0.52 13.92, -0.91 11.59 C-1.3 9.26, 0.72 7.24, 4.15 5.38 C7.58 3.52, 13.45 0.95, 19.69 0.42 C25.93 -0.11, 37.39 1.58, 41.57 2.2 C45.76 2.83, 45.13 3.87, 44.8 4.18 M28.11 -1.32 C33.69 -1.48, 41.05 1.26, 45.1 3.15 C49.15 5.04, 52.21 7.58, 52.44 10.04 C52.66 12.5, 49.8 15.63, 46.47 17.89 C43.14 20.16, 37.91 22.96, 32.46 23.65 C27.01 24.33, 18.69 23.25, 13.79 21.99 C8.88 20.73, 4.93 18.23, 3.03 16.11 C1.14 13.99, 0.87 11.73, 2.43 9.27 C3.99 6.8, 8.22 2.9, 12.4 1.31 C16.58 -0.27, 24.9 -0.18, 27.51 -0.23 C30.12 -0.27, 28.13 0.99, 28.07 1.04" stroke="#087f5b" stroke-width="1" fill="none"></path></g><g transform="translate(660.507138072848 918.4632651730278) rotate(0 83.5625 9.599999999999994)"><text x="0" y="0" font-family="Cascadia, Segoe UI Emoji" font-size="16px" fill="#1e1e1e" text-anchor="start" style="white-space: pre;" direction="ltr" dominant-baseline="text-before-edge">任务队列 (RabbitMQ)</text></g><g stroke-linecap="round"><g transform="translate(383.2104399798192 982.8121205457095) rotate(0 28.671208308736368 31.13837038388911)" fill-rule="evenodd"><path d="M-0.5 0.86 C-0.61 10.18, 1.69 46.7, 1.38 57.23 C1.07 67.76, -2.72 63.07, -2.34 64.04 C-1.95 65, 1.38 62.77, 3.68 63 C5.99 63.22, 6.69 64.68, 11.49 65.37 C16.29 66.06, 26.25 67.16, 32.47 67.15 C38.7 67.14, 45.05 65.9, 48.84 65.33 C52.62 64.75, 53.54 64.48, 55.19 63.69 C56.83 62.9, 58.33 61.57, 58.71 60.58 C59.09 59.59, 57.83 66.78, 57.47 57.73 C57.1 48.68, 56.58 15.59, 56.52 6.28 C56.47 -3.04, 57.76 3.12, 57.16 1.86 C56.55 0.59, 55.09 0.02, 52.89 -1.32 C50.68 -2.66, 48.03 -5.46, 43.93 -6.19 C39.82 -6.91, 33.07 -6.16, 28.26 -5.66 C23.46 -5.16, 19.78 -3.84, 15.11 -3.21 C10.45 -2.58, 2.85 -2.73, 0.27 -1.86 C-2.32 -0.99, -0.44 2.08, -0.39 2.01 C-0.34 1.95, 0.37 -1.89, 0.57 -2.25" stroke="none" stroke-width="0" fill="#228be6" fill-rule="evenodd"></path><path d="M0.13 -0.32 C0.1 9.15, 0.79 45.09, 0.64 55.72 C0.48 66.36, -1.19 62.13, -0.79 63.5 C-0.39 64.87, 0.64 63.22, 3.04 63.93 C5.45 64.65, 9.02 67.06, 13.64 67.79 C18.27 68.52, 25.34 68.57, 30.76 68.33 C36.18 68.08, 41.9 67.19, 46.16 66.34 C50.41 65.5, 54.63 63.83, 56.29 63.25 C57.94 62.68, 56.02 63.79, 56.06 62.9 C56.11 62.01, 56.24 67.69, 56.54 57.92 C56.83 48.14, 57.91 14.14, 57.85 4.25 C57.79 -5.64, 57.09 -0.16, 56.18 -1.41 C55.28 -2.66, 54.21 -2.65, 52.41 -3.25 C50.6 -3.84, 49.36 -4.52, 45.35 -4.98 C41.34 -5.44, 33.72 -5.95, 28.33 -5.99 C22.94 -6.02, 17.26 -5.69, 12.99 -5.18 C8.71 -4.68, 4.86 -3.74, 2.7 -2.95 C0.53 -2.16, 0.43 -1.09, 0 -0.45 C-0.43 0.2, -0.04 0.96, 0.09 0.91 M-1.26 -1.53 C-1.48 8.21, -0.57 46.57, -0.08 57.11 C0.41 67.66, 1.12 60.53, 1.69 61.75 C2.26 62.96, 1.55 63.31, 3.33 64.41 C5.12 65.51, 7.57 67.87, 12.4 68.36 C17.22 68.85, 26.63 67.37, 32.28 67.36 C37.92 67.35, 42.42 68.52, 46.28 68.3 C50.14 68.08, 53.57 67.09, 55.43 66.05 C57.3 65, 57.22 63.37, 57.46 62.04 C57.69 60.71, 56.69 67.57, 56.86 58.06 C57.04 48.56, 58.3 14.48, 58.49 5 C58.69 -4.48, 59.09 2.73, 58.04 1.2 C56.99 -0.34, 54.44 -3.12, 52.2 -4.21 C49.96 -5.31, 48.46 -4.99, 44.58 -5.39 C40.7 -5.78, 34.09 -6.82, 28.94 -6.58 C23.79 -6.35, 18.25 -4.65, 13.69 -3.97 C9.13 -3.29, 4.06 -3.11, 1.57 -2.5 C-0.92 -1.88, -0.8 -0.99, -1.27 -0.3 C-1.74 0.39, -1.75 1.47, -1.25 1.64" stroke="#0a11d3" stroke-width="1" fill="none"></path></g></g><mask></mask><g stroke-linecap="round"><g transform="translate(383.65772146122293 1025.297859686302) rotate(0 28.73201838352213 2.8948368059614893)"><path d="M0.45 -0.28 C0.54 0.39, -0.56 3.04, 0.72 3.67 C2 4.29, 5.39 3.04, 8.13 3.48 C10.87 3.92, 13.42 5.84, 17.15 6.3 C20.89 6.76, 25.85 6.51, 30.53 6.23 C35.21 5.94, 41.01 5.4, 45.23 4.58 C49.45 3.75, 53.98 1.92, 55.83 1.27 C57.68 0.62, 56.2 0.77, 56.33 0.69 M-0.78 -1.47 C-0.31 -1.08, 1.65 1.2, 3.01 2.14 C4.37 3.08, 4.97 3.26, 7.41 4.17 C9.84 5.08, 14 7.16, 17.62 7.58 C21.25 8, 24.41 6.82, 29.16 6.69 C33.91 6.57, 41.54 7.45, 46.12 6.84 C50.7 6.23, 54.6 4.05, 56.65 3.06 C58.69 2.06, 58.11 1.37, 58.37 0.87" stroke="#0a11d3" stroke-width="1" fill="none"></path></g></g><mask></mask><g stroke-linecap="round"><g transform="translate(382.9459995214716 1003.7757713491922) rotate(0 28.73201838352213 2.8948368059614893)"><path d="M-0.8 1.13 C-0.61 1.4, 0.06 0.7, 1.6 1.35 C3.14 1.99, 5.91 4.21, 8.47 5.01 C11.02 5.8, 13.44 6.04, 16.92 6.11 C20.4 6.17, 24.41 5.71, 29.35 5.4 C34.29 5.09, 42.38 4.62, 46.55 4.26 C50.72 3.9, 52.69 3.83, 54.37 3.26 C56.04 2.69, 56.01 1.51, 56.63 0.84 M0.99 0.67 C0.99 1.07, -0.46 1.29, 0.7 2.26 C1.85 3.23, 5.16 5.66, 7.92 6.5 C10.69 7.34, 13.42 7.47, 17.27 7.29 C21.12 7.11, 26.48 5.59, 31.01 5.43 C35.55 5.28, 40.58 6.86, 44.48 6.35 C48.38 5.85, 52.02 3.31, 54.41 2.43 C56.8 1.55, 58.43 1.28, 58.82 1.1" stroke="#0a11d3" stroke-width="1" fill="none"></path></g></g><mask></mask><g stroke-linecap="round" transform="translate(382.21665525912505 977.5902721458081) rotate(0 28.5181454452794 5.767580365490119)"><path d="M29.52 -0.32 C35.21 -0.33, 42.48 0.61, 47.02 1.53 C51.56 2.45, 55.72 4.07, 56.76 5.21 C57.8 6.34, 56.43 7.33, 53.26 8.32 C50.09 9.31, 43.54 10.67, 37.75 11.16 C31.97 11.65, 24.34 11.67, 18.56 11.26 C12.77 10.85, 6.04 9.77, 3.03 8.7 C0.03 7.64, -0.7 6.06, 0.53 4.86 C1.77 3.67, 5.51 2.37, 10.45 1.56 C15.39 0.75, 26.53 0.18, 30.17 -0.02 C33.81 -0.23, 32.2 0.23, 32.29 0.34 M27.26 -0.57 C32.95 -0.6, 41.24 0.04, 46.09 1.01 C50.94 1.97, 55.2 3.9, 56.35 5.24 C57.51 6.57, 55.81 8.14, 53 9.02 C50.19 9.91, 45.1 10.3, 39.48 10.55 C33.86 10.8, 25.14 10.85, 19.27 10.52 C13.4 10.19, 7.54 9.46, 4.29 8.58 C1.04 7.7, -1.11 6.39, -0.24 5.24 C0.63 4.1, 4.93 2.69, 9.49 1.73 C14.05 0.76, 23.98 -0.26, 27.13 -0.54 C30.27 -0.81, 28.25 -0.19, 28.36 0.09" stroke="none" stroke-width="0" fill="#fff"></path><path d="M31.09 -0.39 C36.84 -0.35, 44.18 0.97, 48.42 1.83 C52.66 2.7, 55.87 3.65, 56.51 4.8 C57.16 5.95, 55.64 7.6, 52.27 8.73 C48.91 9.86, 42.35 11.27, 36.34 11.6 C30.34 11.92, 21.95 11.31, 16.25 10.68 C10.56 10.06, 4.73 8.93, 2.16 7.85 C-0.4 6.77, -0.78 5.31, 0.87 4.22 C2.51 3.12, 6.91 2, 12.01 1.26 C17.12 0.52, 28.18 -0.06, 31.5 -0.23 C34.82 -0.4, 32.01 0.12, 31.93 0.26 M26.56 -0.46 C32.41 -0.66, 40.63 0.6, 45.52 1.44 C50.42 2.27, 54.39 3.35, 55.92 4.54 C57.45 5.73, 57.4 7.43, 54.72 8.59 C52.04 9.75, 45.39 11.16, 39.83 11.51 C34.26 11.86, 27.2 11.2, 21.33 10.68 C15.46 10.17, 8.05 9.39, 4.61 8.43 C1.17 7.48, -0.02 6.15, 0.69 4.94 C1.41 3.73, 4.7 2.01, 8.89 1.17 C13.08 0.32, 22.88 0.09, 25.83 -0.15 C28.77 -0.39, 26.49 -0.45, 26.57 -0.27" stroke="#0a11d3" stroke-width="1" fill="none"></path></g><g stroke-linecap="round" transform="translate(428.74962929623285 993.5822939368537) rotate(0 4.179607584976679 4.536153701409404)"><path d="M3.86 0.07 C4.68 0.05, 6.04 0.65, 6.82 1.2 C7.6 1.74, 8.35 2.43, 8.54 3.34 C8.72 4.25, 8.35 5.74, 7.92 6.66 C7.5 7.58, 6.88 8.46, 5.98 8.84 C5.08 9.22, 3.44 9.25, 2.54 8.95 C1.64 8.65, 1.04 7.87, 0.59 7.05 C0.15 6.24, -0.22 5.04, -0.12 4.05 C-0.03 3.06, 0.41 1.76, 1.18 1.11 C1.95 0.45, 3.96 0.29, 4.52 0.12 C5.09 -0.05, 4.62 0, 4.56 0.1 M3.45 -0.11 C4.32 -0.17, 5.57 0.49, 6.29 1.08 C7 1.67, 7.39 2.64, 7.74 3.43 C8.09 4.22, 8.68 5.04, 8.39 5.81 C8.11 6.57, 6.86 7.53, 6.03 8.04 C5.19 8.55, 4.31 8.92, 3.4 8.84 C2.49 8.77, 1.12 8.29, 0.55 7.58 C-0.03 6.87, -0.09 5.68, -0.07 4.61 C-0.06 3.54, -0.03 1.94, 0.64 1.18 C1.31 0.41, 3.47 0.14, 3.96 0.03 C4.44 -0.08, 3.68 0.44, 3.55 0.52" stroke="none" stroke-width="0" fill="#fff"></path><path d="M4.1 0.09 C4.9 0.05, 5.92 0.23, 6.67 0.82 C7.42 1.42, 8.36 2.59, 8.59 3.63 C8.82 4.68, 8.59 6.25, 8.06 7.08 C7.52 7.91, 6.34 8.39, 5.38 8.63 C4.42 8.87, 3.14 8.85, 2.32 8.52 C1.49 8.2, 0.82 7.45, 0.43 6.66 C0.04 5.87, -0.22 4.75, -0.03 3.78 C0.16 2.8, 0.82 1.43, 1.56 0.81 C2.29 0.19, 3.91 0.19, 4.37 0.07 C4.83 -0.04, 4.35 0.04, 4.33 0.11 M5.12 0.3 C5.9 0.44, 6.57 0.92, 7.15 1.63 C7.72 2.34, 8.62 3.57, 8.6 4.57 C8.58 5.57, 7.59 6.96, 7.03 7.62 C6.47 8.28, 6.1 8.44, 5.25 8.53 C4.4 8.61, 2.67 8.55, 1.91 8.14 C1.16 7.74, 0.94 6.96, 0.71 6.08 C0.48 5.2, 0.36 3.76, 0.53 2.85 C0.71 1.93, 1.01 1.12, 1.76 0.61 C2.51 0.09, 4.52 -0.19, 5.01 -0.24 C5.51 -0.28, 4.8 0.15, 4.71 0.32" stroke="#0a11d3" stroke-width="1" fill="none"></path></g><g stroke-linecap="round" transform="translate(428.74962929623285 1013.4959916264182) rotate(0 4.179607584976679 4.536153701409404)"><path d="M3.77 0.23 C4.69 0.01, 6.02 -0.03, 6.77 0.47 C7.52 0.98, 8.02 2.23, 8.27 3.23 C8.52 4.23, 8.71 5.54, 8.28 6.45 C7.85 7.37, 6.56 8.28, 5.71 8.72 C4.86 9.16, 4 9.31, 3.16 9.09 C2.31 8.87, 1.19 8.22, 0.63 7.4 C0.07 6.59, -0.37 5.18, -0.23 4.2 C-0.08 3.22, 0.78 2.21, 1.5 1.51 C2.22 0.81, 3.7 0.22, 4.1 0.02 C4.5 -0.18, 3.99 0.29, 3.9 0.32 M3.58 0.45 C4.37 0.36, 5.22 0.67, 6.04 1.06 C6.86 1.45, 8.19 2.01, 8.49 2.8 C8.8 3.59, 8.27 4.87, 7.88 5.81 C7.49 6.75, 6.97 7.87, 6.14 8.43 C5.31 8.99, 3.79 9.34, 2.89 9.18 C2 9.02, 1.33 8.34, 0.78 7.47 C0.23 6.6, -0.52 4.96, -0.4 3.96 C-0.28 2.96, 0.84 2.03, 1.51 1.44 C2.18 0.85, 3.35 0.63, 3.63 0.42 C3.91 0.2, 3.25 0.08, 3.21 0.16" stroke="none" stroke-width="0" fill="#fff"></path><path d="M3.33 -0.27 C4.24 -0.51, 5.82 -0.14, 6.67 0.46 C7.53 1.06, 8.26 2.38, 8.47 3.31 C8.68 4.24, 8.37 5.2, 7.93 6.04 C7.48 6.87, 6.59 7.83, 5.81 8.31 C5.02 8.8, 4.07 9.08, 3.23 8.94 C2.39 8.8, 1.31 8.26, 0.77 7.47 C0.23 6.68, -0.07 5.18, -0.02 4.2 C0.03 3.21, 0.46 2.26, 1.06 1.56 C1.65 0.87, 3.1 0.28, 3.54 0.04 C3.98 -0.2, 3.6 0.03, 3.67 0.14 M3.63 0.2 C4.44 0.04, 6.07 0.45, 6.75 1.02 C7.43 1.59, 7.48 2.8, 7.72 3.62 C7.95 4.44, 8.49 5.18, 8.15 5.94 C7.81 6.7, 6.43 7.72, 5.67 8.18 C4.9 8.65, 4.32 8.95, 3.57 8.73 C2.81 8.51, 1.77 7.63, 1.15 6.86 C0.53 6.09, -0.2 5.07, -0.15 4.11 C-0.09 3.16, 0.83 1.77, 1.48 1.12 C2.13 0.47, 3.4 0.33, 3.75 0.22 C4.11 0.11, 3.59 0.32, 3.6 0.44" stroke="#0a11d3" stroke-width="1" fill="none"></path></g><g stroke-linecap="round" transform="translate(428.74962929623285 1035.1395350674793) rotate(0 4.179607584976679 4.536153701409404)"><path d="M4.57 -0.3 C5.43 -0.37, 6.37 0.4, 7.04 1.11 C7.71 1.82, 8.53 2.98, 8.6 3.97 C8.66 4.96, 7.95 6.2, 7.42 7.04 C6.9 7.88, 6.29 8.68, 5.47 9 C4.64 9.32, 3.32 9.34, 2.45 8.94 C1.59 8.55, 0.6 7.52, 0.26 6.65 C-0.08 5.78, 0.15 4.67, 0.42 3.73 C0.69 2.78, 1.21 1.56, 1.86 0.97 C2.51 0.39, 3.96 0.41, 4.33 0.23 C4.71 0.05, 4.16 -0.14, 4.12 -0.11 M3.56 0.35 C4.47 0.11, 6.25 0.08, 7.01 0.52 C7.77 0.97, 7.94 2.04, 8.1 3.03 C8.26 4.02, 8.39 5.47, 7.95 6.45 C7.51 7.43, 6.3 8.49, 5.45 8.92 C4.61 9.36, 3.75 9.44, 2.89 9.06 C2.03 8.68, 0.68 7.5, 0.27 6.65 C-0.14 5.81, 0.26 4.81, 0.43 3.97 C0.6 3.13, 0.79 2.26, 1.3 1.6 C1.81 0.95, 3.11 0.22, 3.5 0.04 C3.89 -0.15, 3.55 0.35, 3.63 0.5" stroke="none" stroke-width="0" fill="#fff"></path><path d="M4.64 -0.23 C5.6 -0.16, 6.73 0.71, 7.32 1.37 C7.92 2.03, 8.19 2.85, 8.2 3.75 C8.21 4.64, 7.84 5.9, 7.37 6.75 C6.89 7.6, 6.17 8.48, 5.35 8.83 C4.53 9.18, 3.27 9.27, 2.46 8.87 C1.64 8.48, 0.84 7.33, 0.45 6.45 C0.05 5.57, -0.09 4.53, 0.08 3.61 C0.25 2.69, 0.78 1.54, 1.49 0.94 C2.19 0.34, 3.77 0.14, 4.31 0.03 C4.85 -0.07, 4.75 0.21, 4.72 0.33 M4.79 0.27 C5.57 0.32, 6.04 1.09, 6.65 1.67 C7.27 2.24, 8.39 2.86, 8.49 3.7 C8.59 4.54, 7.72 5.88, 7.25 6.71 C6.78 7.54, 6.4 8.44, 5.65 8.71 C4.9 8.97, 3.66 8.7, 2.76 8.3 C1.86 7.91, 0.62 7.21, 0.24 6.34 C-0.15 5.47, 0.19 3.98, 0.45 3.09 C0.71 2.2, 1.14 1.47, 1.8 1.02 C2.46 0.56, 3.93 0.42, 4.4 0.34 C4.86 0.26, 4.58 0.45, 4.58 0.53" stroke="#0a11d3" stroke-width="1" fill="none"></path></g><g transform="translate(352.1738250845668 1066.1298911495903) rotate(0 61.5 9.599999999999994)"><text x="0" y="0" font-family="Cascadia, Segoe UI Emoji" font-size="16px" fill="#1e1e1e" text-anchor="start" style="white-space: pre;" direction="ltr" dominant-baseline="text-before-edge">数据库 (MySQL)</text></g><g stroke-linecap="round" transform="translate(1165.446952887666 445.67536812430814) rotate(0 64.33331298828125 104.66668701171875)"><path d="M81.25 26.25 C93.51 46.91, 105.78 67.57, 112.42 78.75 M81.25 26.25 C88.94 39.2, 96.62 52.14, 112.42 78.75 M112.42 78.75 C128.67 105, 128.67 105, 112.42 131.25 M112.42 78.75 C128.67 105, 128.67 105, 112.42 131.25 M112.42 131.25 C101.26 149.81, 90.1 168.37, 81.25 183.08 M112.42 131.25 C104.11 145.06, 95.81 158.87, 81.25 183.08 M81.25 183.08 C65 209.33, 65 209.33, 48.75 183.08 M81.25 183.08 C65 209.33, 65 209.33, 48.75 183.08 M48.75 183.08 C41.02 170.76, 33.3 158.44, 16.25 131.25 M48.75 183.08 C39.45 168.25, 30.15 153.42, 16.25 131.25 M16.25 131.25 C0 105, 0 105, 16.25 78.75 M16.25 131.25 C0 105, 0 105, 16.25 78.75 M16.25 78.75 C26.66 61.93, 37.07 45.12, 48.75 26.25 M16.25 78.75 C25.18 64.32, 34.12 49.89, 48.75 26.25 M48.75 26.25 C65 0, 65 0, 81.25 26.25 M48.75 26.25 C65 0, 65 0, 81.25 26.25" stroke="#1e1e1e" stroke-width="2" fill="none"></path></g><g transform="translate(1204.2386093818066 540.9087116301675) rotate(0 25.375 9.600000000000001)"><text x="25.375" y="0" font-family="Cascadia, Segoe UI Emoji" font-size="16px" fill="#1e1e1e" text-anchor="middle" style="white-space: pre;" direction="ltr" dominant-baseline="text-before-edge">AI服务</text></g><g mask="url(#mask-CkHT4qTfmW3BBUsYVh4uy)" stroke-linecap="round"><g transform="translate(879.507138072848 499.6334342552026) rotate(0 150.21244933054845 -1.8313536405331945)"><path d="M1.13 -0.38 C51.2 -1.07, 251.09 -3.78, 300.81 -4.19 M0.26 -1.63 C50.17 -2.15, 249.8 -2.42, 300.06 -2.92" stroke="#1e1e1e" stroke-width="2" fill="none"></path></g><g transform="translate(879.507138072848 499.6334342552026) rotate(0 150.21244933054845 -1.8313536405331945)"><path d="M276.62 5.75 C283.79 3.28, 291.37 -1.86, 300.06 -2.92 M276.62 5.75 C286.08 1.58, 294.61 -0.69, 300.06 -2.92" stroke="#1e1e1e" stroke-width="2" fill="none"></path></g><g transform="translate(879.507138072848 499.6334342552026) rotate(0 150.21244933054845 -1.8313536405331945)"><path d="M276.53 -11.35 C283.72 -8.12, 291.33 -7.57, 300.06 -2.92 M276.53 -11.35 C286.12 -9.15, 294.69 -5.04, 300.06 -2.92" stroke="#1e1e1e" stroke-width="2" fill="none"></path></g></g><mask id="mask-CkHT4qTfmW3BBUsYVh4uy"><rect x="0" y="0" fill="#fff" width="1279.9320367339449" height="603.296141536269"></rect><rect x="927.2195874033964" y="485.8020806146694" fill="#000" width="205" height="24" opacity="1"></rect></mask><g transform="translate(927.2195874033964 485.80208061466936) rotate(0 102.82290697259361 11.546330275386566)"><text x="102.5" y="0" font-family="Cascadia, Segoe UI Emoji" font-size="20px" fill="#1e1e1e" text-anchor="middle" style="white-space: pre;" direction="ltr" dominant-baseline="text-before-edge">6、异步分析图表和结论</text></g><g mask="url(#mask-TQRJ9ea253BNqJHUzdnfG)" stroke-linecap="round"><g transform="translate(1174.098374844555 585.6504639542547) rotate(0 -146.62887033897857 -2.0044604162473156)"><path d="M1.18 -1 C-47.54 -1.75, -243.98 -3.53, -292.86 -4.1 M0.35 1.08 C-48.45 0.5, -244.83 -1.88, -293.6 -2.6" stroke="#1e1e1e" stroke-width="2" fill="none"></path></g><g transform="translate(1174.098374844555 585.6504639542547) rotate(0 -146.62887033897857 -2.0044604162473156)"><path d="M-270 -10.84 C-277.68 -7.84, -282.2 -4.51, -293.6 -2.6 M-270 -10.84 C-277.1 -8.01, -282.06 -6.27, -293.6 -2.6" stroke="#1e1e1e" stroke-width="2" fill="none"></path></g><g transform="translate(1174.098374844555 585.6504639542547) rotate(0 -146.62887033897857 -2.0044604162473156)"><path d="M-270.22 6.26 C-277.91 4.88, -282.36 3.83, -293.6 -2.6 M-270.22 6.26 C-277.32 4.51, -282.22 1.67, -293.6 -2.6" stroke="#1e1e1e" stroke-width="2" fill="none"></path></g></g><mask id="mask-TQRJ9ea253BNqJHUzdnfG"><rect x="0" y="0" fill="#fff" width="1567.3561155225123" height="689.6593847867493"></rect><rect x="974.9695045055767" y="571.6460035380074" fill="#000" width="105" height="24" opacity="1"></rect></mask><g transform="translate(974.9695045055769 571.6460035380074) rotate(0 52.92054982481045 12.49873490015511)"><text x="52.5" y="0" font-family="Cascadia, Segoe UI Emoji" font-size="20px" fill="#1e1e1e" text-anchor="middle" style="white-space: pre;" direction="ltr" dominant-baseline="text-before-edge">7、返回结果</text></g><g mask="url(#mask-ShxDgvm2yeYNUs1NkoqDw)" stroke-linecap="round"><g transform="translate(882.5677957062924 631.7056047901777) rotate(0 -100.22055387497824 195.45811228420402)"><path d="M-0.45 -0.99 C36.08 40.88, 215.3 189.2, 219.02 252.32 C222.75 315.44, 128.35 355.01, 21.92 377.71 C-84.51 400.42, -346.22 386.63, -419.57 388.55 M1.52 1.11 C38 43.17, 215.35 187.81, 218.61 250.72 C221.88 313.62, 127.46 355.44, 21.11 378.53 C-85.23 401.61, -346.09 387.41, -419.45 389.25" stroke="#1e1e1e" stroke-width="2" fill="none"></path></g><g transform="translate(882.5677957062924 631.7056047901777) rotate(0 -100.22055387497824 195.45811228420402)"><path d="M-395.86 380.97 C-404.16 384.95, -407.59 385.47, -419.45 389.25 M-395.86 380.97 C-400.1 382.56, -405.64 383.6, -419.45 389.25" stroke="#1e1e1e" stroke-width="2" fill="none"></path></g><g transform="translate(882.5677957062924 631.7056047901777) rotate(0 -100.22055387497824 195.45811228420402)"><path d="M-396.06 398.07 C-404.46 397.17, -407.84 392.82, -419.45 389.25 M-396.06 398.07 C-400.22 395.89, -405.71 393.17, -419.45 389.25" stroke="#1e1e1e" stroke-width="2" fill="none"></path></g></g><mask id="mask-ShxDgvm2yeYNUs1NkoqDw"><rect x="0" y="0" fill="#fff" width="1619.9011697297299" height="1121.038917778459"></rect><rect x="900.967606981078" y="959.7948882828387" fill="#000" width="245" height="24" opacity="1"></rect></mask><g transform="translate(900.967606981078 959.7948882828387) rotate(0 -118.62036514976387 -132.63117120845692)"><text x="122.5" y="0" font-family="Cascadia, Segoe UI Emoji" font-size="20px" fill="#1e1e1e" text-anchor="middle" style="white-space: pre;" direction="ltr" dominant-baseline="text-before-edge">8、保存处理后的结论和图表</text></g><g mask="url(#mask-6FlrzghhZNsZvJ_bBXn8w)" stroke-linecap="round"><g transform="translate(366.64987194915597 1003.4760533959632) rotate(0 -85.16659486086633 -177.29210403752796)"><path d="M-1 -1.17 C-29.05 -30.62, -164.33 -117.31, -169.24 -176.03 C-174.16 -234.74, -53.3 -323.81, -30.49 -353.43 M0.68 0.83 C-27.36 -28.51, -164.36 -115.41, -169.62 -174.74 C-174.87 -234.08, -53.65 -324.98, -30.84 -355.17" stroke="#1e1e1e" stroke-width="2" fill="none"></path></g><g transform="translate(366.64987194915597 1003.4760533959632) rotate(0 -85.16659486086633 -177.29210403752796)"><path d="M-41.4 -332.51 C-41.09 -335.71, -37.59 -341.3, -30.84 -355.17 M-41.4 -332.51 C-37.9 -341.37, -32.69 -350.62, -30.84 -355.17" stroke="#1e1e1e" stroke-width="2" fill="none"></path></g><g transform="translate(366.64987194915597 1003.4760533959632) rotate(0 -85.16659486086633 -177.29210403752796)"><path d="M-53.5 -344.59 C-50.4 -344.97, -44.17 -347.85, -30.84 -355.17 M-53.5 -344.59 C-45.32 -348.75, -35.32 -353.22, -30.84 -355.17" stroke="#1e1e1e" stroke-width="2" fill="none"></path></g></g><mask id="mask-6FlrzghhZNsZvJ_bBXn8w"><rect x="0" y="0" fill="#fff" width="636.9830616708887" height="1458.0602614710192"></rect><rect x="113.81668222742326" y="803.9394353041662" fill="#000" width="165" height="48" opacity="1"></rect></mask><g transform="translate(113.81668222742331 803.9394353041661) rotate(0 168.2821525460024 22.367489298278997)"><text x="82.5" y="0" font-family="Cascadia, Segoe UI Emoji" font-size="20px" fill="#1e1e1e" text-anchor="middle" style="white-space: pre;" direction="ltr" dominant-baseline="text-before-edge">9、用户手动或自动</text><text x="82.5" y="24" font-family="Cascadia, Segoe UI Emoji" font-size="20px" fill="#1e1e1e" text-anchor="middle" style="white-space: pre;" direction="ltr" dominant-baseline="text-before-edge">查询结果</text></g><g stroke-linecap="round"><g transform="translate(61.7143728750749 308.06393065413175) rotate(0 -3.4185441558296077 26.340245521714365)" fill-rule="evenodd"><path d="M-43.27 10.09 C-43.27 10.09, -43.27 10.09, -43.27 10.09 M-43.27 10.09 C-43.27 10.09, -43.27 10.09, -43.27 10.09 M-42.87 15.73 C-40.46 13.56, -38.47 11.13, -36.31 8.18 M-42.87 15.73 C-41.47 14.03, -39.92 12.46, -36.31 8.18 M-43.13 22.13 C-40.27 15.81, -33.03 10.93, -30.01 7.04 M-43.13 22.13 C-38.2 16.59, -35.13 12.81, -30.01 7.04 M-43.4 28.53 C-37.28 22.52, -32.89 16.34, -23.06 5.13 M-43.4 28.53 C-35.79 19.35, -29.88 11.73, -23.06 5.13 M-43.66 34.93 C-34.25 23.77, -25.19 12.77, -16.76 3.98 M-43.66 34.93 C-33.34 22.91, -23.82 11.95, -16.76 3.98 M-43.26 40.57 C-34.92 28.72, -25.06 20.44, -9.8 2.08 M-43.26 40.57 C-33.7 31.71, -25.28 20.58, -9.8 2.08 M-38.93 41.68 C-23.71 26.57, -10.21 11.94, -3.5 0.93 M-38.93 41.68 C-25.93 27.22, -14.31 12.01, -3.5 0.93 M-35.26 43.55 C-21.6 28.62, -6.2 11.04, 1.48 1.29 M-35.26 43.55 C-25.86 31.27, -15.58 21.15, 1.48 1.29 M-30.93 44.67 C-22.22 35.55, -11.75 23.38, 5.81 2.4 M-30.93 44.67 C-23.54 35.12, -15.48 26.05, 5.81 2.4 M-26.59 45.78 C-17.72 34.48, -4.97 22.56, 10.14 3.52 M-26.59 45.78 C-14.35 32.12, -3.23 17.57, 10.14 3.52 M-22.26 46.9 C-11.32 33.11, 2.75 21.46, 14.48 4.63 M-22.26 46.9 C-14.76 37.5, -6.82 28.07, 14.48 4.63 M-18.59 48.77 C-9.52 34.42, 3.66 22.57, 18.81 5.75 M-18.59 48.77 C-6.65 35.09, 4.65 22.62, 18.81 5.75 M-14.26 49.88 C-5.88 36.72, 7.45 28.84, 23.14 6.86 M-14.26 49.88 C-6.78 41.29, 1.84 31.99, 23.14 6.86 M-9.93 51 C0.46 38.11, 14.22 24.79, 26.81 8.73 M-9.93 51 C-3.4 42.41, 4.55 33.16, 26.81 8.73 M-6.25 52.87 C3.79 38.77, 16.51 29.02, 31.14 9.85 M-6.25 52.87 C4.71 41.54, 15.45 27.41, 31.14 9.85 M0.7 50.96 C7.54 41.25, 17.91 30.06, 35.47 10.96 M0.7 50.96 C7.64 43.01, 15.04 34.61, 35.47 10.96 M7.66 49.06 C17.08 39.14, 23.07 29.57, 36.52 15.85 M7.66 49.06 C14.07 41.13, 21.12 31.81, 36.52 15.85 M14.61 47.15 C23.93 36.74, 31.07 30.61, 36.26 22.25 M14.61 47.15 C18.63 41.96, 24.02 36.83, 36.26 22.25 M22.22 44.49 C25.87 40.43, 34.26 33.66, 36 28.65 M22.22 44.49 C25.82 40.46, 29.49 36.1, 36 28.65 M29.18 42.59 C29.83 39.65, 31.64 37.64, 36.4 34.29 M29.18 42.59 C30.7 40.7, 32.87 38.35, 36.4 34.29" stroke="#be4bdb" stroke-width="0.5" fill="none"></path><path d="M0 0 C-9.65 1.29, -21.07 6.36, -42.98 9.76 M0 0 C-16.49 4.79, -31.09 7.09, -42.98 9.76 M-42.98 9.76 C-42.98 19.87, -44.7 33.16, -43.49 40.37 M-42.98 9.76 C-42.99 18.8, -43.11 26.71, -43.49 40.37 M-43.49 40.37 C-33.7 41.89, -23.87 46.32, -5.24 52.68 M-43.49 40.37 C-35.14 42.96, -27.38 45.54, -5.24 52.68 M-5.24 52.68 C6.17 50.03, 20.01 43.87, 35.77 40.23 M-5.24 52.68 C5.59 49.8, 14.59 45.62, 35.77 40.23 M35.77 40.23 C34.78 28.05, 35.52 18.9, 36.65 10.82 M35.77 40.23 C35.93 28.04, 37.04 18.19, 36.65 10.82 M36.65 10.82 C21.79 6.07, 8.7 3.45, 0 0 M36.65 10.82 C25.1 7.98, 11.65 3.96, 0 0 M0 0 C0 0, 0 0, 0 0 M0 0 C0 0, 0 0, 0 0" stroke="#881fa3" stroke-width="1" fill="none"></path></g></g><mask></mask><g transform="translate(10 372.19272789698107) rotate(0 50.63995361328125 12.5)"><text x="0" y="0" font-family="Virgil, Segoe UI Emoji" font-size="20px" fill="#1e1e1e" text-anchor="start" style="white-space: pre;" direction="ltr" dominant-baseline="text-before-edge">WebSocket</text></g><g mask="url(#mask-Q543iSxBJrHrnJh2VxI0m)" stroke-linecap="round"><g transform="translate(347.46053525857826 481.16433267432586) rotate(0 -140.16915131913493 -38.66736179834689)"><path d="M0.87 0.05 C-32.72 -0.93, -154.8 6.58, -201.62 -6.19 C-248.44 -18.96, -267.09 -64.73, -280.05 -76.58 M-0.13 -0.98 C-33.91 -2.25, -156.01 5.05, -202.77 -7.87 C-249.52 -20.79, -268.02 -67.14, -280.66 -78.52" stroke="#1e1e1e" stroke-width="2" fill="none"></path></g><g transform="translate(347.46053525857826 481.16433267432586) rotate(0 -140.16915131913493 -38.66736179834689)"><path d="M-259.63 -65 C-265.68 -69.43, -270.52 -72.29, -280.66 -78.52 M-259.63 -65 C-266.59 -70.38, -274.63 -73.82, -280.66 -78.52" stroke="#1e1e1e" stroke-width="2" fill="none"></path></g><g transform="translate(347.46053525857826 481.16433267432586) rotate(0 -140.16915131913493 -38.66736179834689)"><path d="M-273.25 -54.65 C-275.27 -62.22, -276.12 -68.1, -280.66 -78.52 M-273.25 -54.65 C-275.35 -63.8, -278.44 -70.99, -280.66 -78.52" stroke="#1e1e1e" stroke-width="2" fill="none"></path></g></g><mask id="mask-Q543iSxBJrHrnJh2VxI0m"><rect x="0" y="0" fill="#fff" width="727.7988378968481" height="658.4990562710196"></rect><rect x="86.21453614300043" y="462.13389228505577" fill="#000" width="120" height="24" opacity="1"></rect></mask><g transform="translate(86.21453614300037 462.13389228505577) rotate(0 121.35146545167828 -19.54837340882709)"><text x="60" y="0" font-family="Cascadia, Segoe UI Emoji" font-size="20px" fill="#1e1e1e" text-anchor="middle" style="white-space: pre;" direction="ltr" dominant-baseline="text-before-edge">图表生成成功</text></g><g mask="url(#mask-OMuchGBu7U-AJ6oIcILEm)" stroke-linecap="round"><g transform="translate(60.97058219403732 305.40368499840537) rotate(0 120.39607543846193 -41.30375180155704)"><path d="M0.12 -0.74 C4.81 -14.61, -12.36 -69.08, 27.83 -82.62 C68.02 -96.15, 205.66 -82.33, 241.26 -81.95 M-1.28 1.48 C3.34 -12.24, -13.14 -67.3, 27.2 -81.09 C67.53 -94.87, 204.94 -80.96, 240.74 -81.2" stroke="#1e1e1e" stroke-width="2" fill="none"></path></g><g transform="translate(60.97058219403732 305.40368499840537) rotate(0 120.39607543846193 -41.30375180155704)"><path d="M216.89 -73.73 C222.13 -74.81, 229.87 -77.05, 240.74 -81.2 M216.89 -73.73 C222.65 -75.42, 227.13 -76.26, 240.74 -81.2" stroke="#1e1e1e" stroke-width="2" fill="none"></path></g><g transform="translate(60.97058219403732 305.40368499840537) rotate(0 120.39607543846193 -41.30375180155704)"><path d="M217.66 -90.81 C222.78 -87.23, 230.3 -84.8, 240.74 -81.2 M217.66 -90.81 C223.36 -88.94, 227.68 -86.21, 240.74 -81.2" stroke="#1e1e1e" stroke-width="2" fill="none"></path></g></g><mask id="mask-OMuchGBu7U-AJ6oIcILEm"><rect x="0" y="0" fill="#fff" width="401.7627330709612" height="488.01118860151945"></rect><rect x="48.213513559692956" y="210.79618139529128" fill="#000" width="80" height="24" opacity="1"></rect></mask><g transform="translate(48.213513559692956 210.79618139529128) rotate(0 132.74985000865982 51.07508243464855)"><text x="40" y="0" font-family="Cascadia, Segoe UI Emoji" font-size="20px" fill="#1e1e1e" text-anchor="middle" style="white-space: pre;" direction="ltr" dominant-baseline="text-before-edge">通知用户</text></g></svg>