<svg version="1.1" xmlns="http://www.w3.org/2000/svg" viewBox="0 0 1380.467545508432 706.8842921340004" width="1380.467545508432" height="706.8842921340004">
  <!-- svg-source:excalidraw -->
  
  <defs>
    <style class="style-fonts">
      @font-face {
        font-family: "Virgil";
        src: url("https://excalidraw.com/Virgil.woff2");
      }
      @font-face {
        font-family: "Cascadia";
        src: url("https://excalidraw.com/Cascadia.woff2");
      }
      @font-face {
        font-family: "Assistant";
        src: url("https://excalidraw.com/Assistant-Regular.woff2");
      }
    </style>
    
  </defs>
  <rect x="0" y="0" width="1380.467545508432" height="706.8842921340004" fill="#ffffff"></rect><g stroke-linecap="round" transform="translate(10 240.50806096770603) rotate(0 83.33334350585938 62.666656494140625)"><path d="M31.33 0 C56.13 -1.18, 82.28 -1.18, 135.33 0 M31.33 0 C55.83 -0.58, 80.44 -0.65, 135.33 0 M135.33 0 C156.08 0.94, 164.7 11.66, 166.67 31.33 M135.33 0 C156.49 -1.52, 168.6 10.68, 166.67 31.33 M166.67 31.33 C168.25 50.27, 166.16 74.62, 166.67 94 M166.67 31.33 C165.41 47.79, 165.43 63.38, 166.67 94 M166.67 94 C165.45 116.67, 154.81 124.94, 135.33 125.33 M166.67 94 C167.76 116.56, 154.06 127.22, 135.33 125.33 M135.33 125.33 C100.35 124.33, 69.23 124.06, 31.33 125.33 M135.33 125.33 C110.41 127.25, 86.47 126.27, 31.33 125.33 M31.33 125.33 C9.41 126.91, -0.05 114.74, 0 94 M31.33 125.33 C8.56 123.18, 0.57 116.28, 0 94 M0 94 C-1.45 68.19, -0.1 44.69, 0 31.33 M0 94 C-0.44 78.27, 0.44 64.88, 0 31.33 M0 31.33 C-0.64 9.29, 10.31 -1.82, 31.33 0 M0 31.33 C0.02 10.07, 11.74 1.81, 31.33 0" stroke="#1e1e1e" stroke-width="2" fill="none"></path></g><g transform="translate(37.333343505859375 293.57471746184666) rotate(0 56 9.599999999999994)"><text x="56" y="0" font-family="Cascadia, Segoe UI Emoji" font-size="16px" fill="#1e1e1e" text-anchor="middle" style="white-space: pre;" direction="ltr" dominant-baseline="text-before-edge">后台管理服务器</text></g><g stroke-linecap="round"><g transform="translate(702.5320769805007 144.7219032098852) rotate(89.99999999999994 26.130466310641737 64.96148966423758)" fill-rule="evenodd"><path d="M2.08 -4.82 C2.08 -4.82, 2.08 -4.82, 2.08 -4.82 M2.08 -4.82 C2.08 -4.82, 2.08 -4.82, 2.08 -4.82 M1.82 1.58 C4.56 -0.66, 6.47 -5.75, 12.31 -10.5 M1.82 1.58 C3.98 -2.29, 8.24 -4.79, 12.31 -10.5 M1.56 7.98 C8.55 2.46, 10.77 -4.99, 18.61 -11.64 M1.56 7.98 C5.79 2.86, 10.43 -1.23, 18.61 -11.64 M1.95 13.62 C8.06 8.69, 14.35 2.69, 24.26 -12.04 M1.95 13.62 C9.31 3.81, 17.88 -4.93, 24.26 -12.04 M1.69 20.02 C10.12 8.63, 21.74 -1.91, 27.93 -10.17 M1.69 20.02 C12.02 9.01, 21.31 -2.11, 27.93 -10.17 M2.08 25.66 C10.26 18.98, 13.94 11.73, 32.26 -9.06 M2.08 25.66 C12.16 14.92, 23.57 2.02, 32.26 -9.06 M1.82 32.06 C14.3 18.82, 27.1 3.13, 36.59 -7.94 M1.82 32.06 C9.71 24.01, 17.08 15.13, 36.59 -7.94 M2.22 37.7 C15.89 22.01, 29.81 3.21, 41.58 -7.58 M2.22 37.7 C10.67 27.13, 19.57 18.66, 41.58 -7.58 M1.96 44.1 C13.57 32.18, 23.8 21.76, 46.57 -7.22 M1.96 44.1 C11.78 33.28, 21.68 21.33, 46.57 -7.22 M2.35 49.74 C12.82 37.08, 20.62 24.66, 48.93 -3.84 M2.35 49.74 C17.72 31.76, 31.97 15.25, 48.93 -3.84 M2.09 56.14 C15.63 39.77, 25.68 25.18, 51.95 -1.22 M2.09 56.14 C14.32 42.5, 24.71 29.12, 51.95 -1.22 M52.61 -1.97 C52.61 -1.97, 52.61 -1.97, 52.61 -1.97 M52.61 -1.97 C52.61 -1.97, 52.61 -1.97, 52.61 -1.97 M2.48 61.78 C13.18 47.25, 28.5 33.16, 52.34 4.43 M2.48 61.78 C19.12 44.14, 33.98 26.76, 52.34 4.43 M2.22 68.18 C19.6 50.03, 37.55 28.8, 52.08 10.82 M2.22 68.18 C14.18 56.16, 25.26 41.87, 52.08 10.82 M1.96 74.58 C17.99 59.41, 28.12 41.57, 52.48 16.47 M1.96 74.58 C22.03 52.7, 40.94 29.28, 52.48 16.47 M2.35 80.22 C21.86 61.41, 39.95 38.55, 52.22 22.86 M2.35 80.22 C18.72 61.58, 35.8 40.74, 52.22 22.86 M2.09 86.62 C17.81 70.86, 32.45 53.28, 52.61 28.51 M2.09 86.62 C20.56 66.38, 37.07 43.94, 52.61 28.51 M2.49 92.26 C23.62 70.52, 41.33 46.19, 52.35 34.91 M2.49 92.26 C16.56 74.67, 31.79 58.95, 52.35 34.91 M2.23 98.66 C19.99 76.36, 40.97 54.7, 52.09 41.3 M2.23 98.66 C13.52 85.84, 23.95 74.59, 52.09 41.3 M2.62 104.3 C16.31 88.19, 33.24 71.43, 52.48 46.95 M2.62 104.3 C15.33 88.89, 27.69 75.87, 52.48 46.95 M2.36 110.7 C21.72 89.69, 41.27 65.86, 52.22 53.34 M2.36 110.7 C16.91 93.49, 30.97 77.74, 52.22 53.34 M2.75 116.35 C13.7 104.61, 23.27 93.57, 52.61 58.99 M2.75 116.35 C17.77 97.61, 33.32 79.15, 52.61 58.99 M2.49 122.74 C15.93 107.13, 31.8 89.7, 52.35 65.39 M2.49 122.74 C13.91 110.9, 24.33 98.56, 52.35 65.39 M2.23 129.14 C19.02 107.52, 40.19 89.19, 52.09 71.78 M2.23 129.14 C17.19 111.37, 31.37 95.32, 52.09 71.78 M2.63 134.78 C23.82 112.11, 41.2 92.32, 52.49 77.43 M2.63 134.78 C22.38 111.39, 41.31 88.15, 52.49 77.43 M5.64 137.41 C18.17 124.24, 26.54 112.89, 52.23 83.82 M5.64 137.41 C21.28 118.91, 36.01 101.76, 52.23 83.82 M8.66 140.03 C25.42 122.86, 40.61 103.17, 52.62 89.47 M8.66 140.03 C23.21 124.51, 36.7 108.17, 52.62 89.47 M12.99 141.15 C23.26 132.17, 27.66 122.06, 52.36 95.86 M12.99 141.15 C24.22 128.95, 35.62 115.99, 52.36 95.86 M17.33 142.26 C24.62 132.28, 35.58 121.08, 52.1 102.26 M17.33 142.26 C25.56 132.52, 32 124.49, 52.1 102.26 M21.66 143.38 C32.41 132.89, 40.84 123.06, 52.49 107.91 M21.66 143.38 C31.22 130.67, 42.62 118.65, 52.49 107.91 M27.96 142.23 C33.86 134.76, 43.93 125.42, 52.23 114.3 M27.96 142.23 C33.77 134.37, 39.8 128.96, 52.23 114.3 M34.25 141.08 C39.37 136.91, 44.16 131.61, 52.62 119.95 M34.25 141.08 C38.55 135.94, 42.34 132, 52.62 119.95 M39.9 140.68 C42 137.69, 48.14 131.36, 52.36 126.34 M39.9 140.68 C42.93 136.5, 46.28 133.68, 52.36 126.34 M44.88 141.04 C46.57 138.93, 50.46 134.74, 54.07 130.48 M44.88 141.04 C48.17 137.76, 51.08 133.39, 54.07 130.48" stroke="#40c057" stroke-width="0.5" fill="none"></path><path d="M-0.96 0.31 C-1.13 19.73, -0.7 95.49, -0.67 116.98 C-0.64 138.48, -1.4 126.12, -0.78 129.3 C-0.15 132.47, 0.76 134.03, 3.09 136.05 C5.41 138.06, 9.22 140.27, 13.15 141.39 C17.09 142.52, 21.87 142.99, 26.67 142.81 C31.48 142.63, 37.89 141.8, 41.99 140.32 C46.09 138.83, 49.46 135.77, 51.28 133.93 C53.09 132.08, 52.71 131.81, 52.91 129.23 C53.1 126.65, 52.75 138.47, 52.44 118.45 C52.13 98.43, 51.13 29.1, 51.05 9.09 C50.97 -10.92, 52.51 1.1, 51.98 -1.62 C51.46 -4.34, 49.5 -5.92, 47.89 -7.22 C46.28 -8.51, 46.08 -8.71, 42.34 -9.41 C38.6 -10.12, 30.45 -11.44, 25.45 -11.45 C20.46 -11.47, 16.15 -10.63, 12.38 -9.5 C8.61 -8.37, 4.7 -6.28, 2.82 -4.67 C0.94 -3.05, 1.69 -0.77, 1.1 0.16 C0.5 1.09, -0.57 1.12, -0.75 0.91 M0.73 -0.57 C0.91 19.03, 1.43 96.81, 1.59 118.6 C1.76 140.4, 1.38 127.07, 1.7 130.18 C2.03 133.29, 1.78 135.25, 3.54 137.25 C5.3 139.24, 8.28 141.33, 12.26 142.13 C16.25 142.94, 22.49 142.55, 27.46 142.07 C32.44 141.58, 38.3 140.65, 42.12 139.23 C45.94 137.8, 48.81 135.42, 50.4 133.52 C51.98 131.63, 51.16 130.47, 51.64 127.88 C52.12 125.29, 53.43 137.69, 53.29 117.99 C53.15 98.3, 51.23 29.2, 50.79 9.7 C50.34 -9.79, 51.12 3.44, 50.62 1.01 C50.12 -1.43, 49.2 -3.15, 47.78 -4.91 C46.36 -6.67, 45.75 -8.44, 42.1 -9.55 C38.44 -10.65, 30.63 -11.26, 25.85 -11.56 C21.06 -11.85, 17.4 -12.61, 13.4 -11.3 C9.4 -10, 4.04 -5.73, 1.87 -3.74 C-0.3 -1.75, 0.53 -0.25, 0.41 0.65 C0.28 1.55, 1.11 1.72, 1.12 1.64" stroke="#087f5b" stroke-width="1" fill="none"></path></g></g><mask></mask><g stroke-linecap="round"><g transform="translate(678.0046665761438 205.16017275573162) rotate(89.99999999999994 25.358738319623853 5.765431739611074)"><path d="M-0.85 0.16 C-0.59 0.82, -0.84 2.68, 0.55 4.24 C1.94 5.79, 4.94 8.1, 7.49 9.49 C10.04 10.87, 12.85 12.01, 15.87 12.54 C18.89 13.08, 21.6 12.94, 25.59 12.68 C29.58 12.42, 35.87 12.34, 39.82 10.97 C43.76 9.59, 47.32 6.32, 49.26 4.4 C51.21 2.49, 51.23 0.31, 51.49 -0.52 M0.91 -0.8 C1.63 -0.04, 1.85 3.39, 2.85 5.34 C3.85 7.29, 5.23 10.07, 6.93 10.9 C8.63 11.73, 9.67 9.92, 13.04 10.34 C16.41 10.75, 22.54 13.39, 27.16 13.37 C31.77 13.34, 36.9 11.91, 40.72 10.18 C44.53 8.45, 48.36 4.83, 50.05 3 C51.74 1.16, 51 0, 50.87 -0.83" stroke="#087f5b" stroke-width="1" fill="none"></path></g></g><mask></mask><g stroke-linecap="round"><g transform="translate(723.4304477245857 205.49925788073173) rotate(89.99999999999994 25.286239536301878 4.6215702890248025)"><path d="M-0.79 -0.83 C-0.36 -0.15, 0.23 2.75, 1.72 4.24 C3.22 5.73, 6.21 7.15, 8.18 8.12 C10.15 9.1, 10.61 9.74, 13.54 10.09 C16.46 10.44, 21.15 10.5, 25.72 10.2 C30.29 9.9, 36.98 9.37, 40.96 8.28 C44.94 7.19, 47.99 5.14, 49.62 3.68 C51.25 2.22, 50.75 0.33, 50.72 -0.48 M1 1.36 C1.38 2.24, -0.18 5.07, 0.98 5.87 C2.15 6.66, 5.97 5.8, 8 6.13 C10.03 6.46, 9.93 7.04, 13.16 7.83 C16.39 8.62, 23.11 10.95, 27.4 10.85 C31.68 10.74, 34.98 8.59, 38.86 7.18 C42.73 5.77, 48.85 3.7, 50.67 2.37 C52.49 1.03, 49.75 -0.55, 49.78 -0.83" stroke="#087f5b" stroke-width="1" fill="none"></path></g></g><mask></mask><g stroke-linecap="round" transform="translate(770.0352208567008 199.64606195984354) rotate(89.99999999999994 25.639064267762706 11.398576284497963)"><path d="M30.37 0.85 C35.76 1.05, 41.83 1.47, 45.26 3.32 C48.68 5.16, 50.83 9.54, 50.93 11.93 C51.03 14.32, 49.32 15.96, 45.88 17.66 C42.43 19.37, 35.71 21.63, 30.24 22.16 C24.78 22.69, 17.86 21.98, 13.08 20.84 C8.29 19.69, 3.45 17.34, 1.52 15.27 C-0.4 13.2, -0.19 10.83, 1.54 8.42 C3.27 6.02, 6.23 2.07, 11.88 0.84 C17.54 -0.4, 30.85 0.71, 35.47 1.03 C40.09 1.34, 39.78 2.47, 39.62 2.72 M35.51 0.23 C40.42 1.33, 47.27 4.98, 49.54 7.13 C51.81 9.29, 50.71 11.01, 49.13 13.16 C47.56 15.31, 44.11 18.45, 40.07 20.02 C36.04 21.59, 30.07 22.58, 24.91 22.58 C19.76 22.57, 13.34 21.42, 9.15 19.98 C4.96 18.55, 0.63 16.31, -0.21 13.97 C-1.06 11.62, 1.03 8.39, 4.06 5.91 C7.09 3.42, 12.75 -0.07, 17.94 -0.96 C23.14 -1.84, 32.08 0.21, 35.25 0.59 C38.41 0.98, 37.07 1.11, 36.91 1.34" stroke="none" stroke-width="0" fill="#fff"></path><path d="M37.5 0.37 C42.29 1.47, 47.43 4.58, 49.53 7.06 C51.64 9.54, 51.75 12.93, 50.14 15.26 C48.53 17.58, 44.45 19.93, 39.89 21.02 C35.33 22.11, 28.35 22.08, 22.79 21.8 C17.22 21.52, 10.44 21.05, 6.49 19.35 C2.54 17.65, -0.52 13.92, -0.91 11.59 C-1.3 9.26, 0.72 7.24, 4.15 5.38 C7.58 3.52, 13.45 0.95, 19.69 0.42 C25.93 -0.11, 37.39 1.58, 41.57 2.2 C45.76 2.83, 45.13 3.87, 44.8 4.18 M28.11 -1.32 C33.69 -1.48, 41.05 1.26, 45.1 3.15 C49.15 5.04, 52.21 7.58, 52.44 10.04 C52.66 12.5, 49.8 15.63, 46.47 17.89 C43.14 20.16, 37.91 22.96, 32.46 23.65 C27.01 24.33, 18.69 23.25, 13.79 21.99 C8.88 20.73, 4.93 18.23, 3.03 16.11 C1.14 13.99, 0.87 11.73, 2.43 9.27 C3.99 6.8, 8.22 2.9, 12.4 1.31 C16.58 -0.27, 24.9 -0.18, 27.51 -0.23 C30.12 -0.27, 28.13 0.99, 28.07 1.04" stroke="#087f5b" stroke-width="1" fill="none"></path></g><g transform="translate(642.312744140625 247.17488530852634) rotate(0 84.375 19.200000000000003)"><text x="84.375" y="0" font-family="Cascadia, Segoe UI Emoji" font-size="16px" fill="#1e1e1e" text-anchor="middle" style="white-space: pre;" direction="ltr" dominant-baseline="text-before-edge">等待任务队列</text><text x="84.375" y="19.2" font-family="Cascadia, Segoe UI Emoji" font-size="16px" fill="#1e1e1e" text-anchor="middle" style="white-space: pre;" direction="ltr" dominant-baseline="text-before-edge">BI_waiting_queue01</text></g><g stroke-linecap="round" transform="translate(967.1431928362158 154.31769667501604) rotate(0 83.33334350585938 62.666656494140625)"><path d="M31.33 0 C66.93 0.34, 101.48 -1.07, 135.33 0 M31.33 0 C62.32 0.15, 91.57 -1.23, 135.33 0 M135.33 0 C154.84 0.94, 167.09 12.24, 166.67 31.33 M135.33 0 C158.43 -1.68, 166.59 9.3, 166.67 31.33 M166.67 31.33 C165.01 44.61, 167.63 60.9, 166.67 94 M166.67 31.33 C167.45 50.14, 167.99 69.49, 166.67 94 M166.67 94 C167.31 115.46, 157.01 125.18, 135.33 125.33 M166.67 94 C166.78 115.35, 158.4 124.33, 135.33 125.33 M135.33 125.33 C92.4 124.11, 51.84 125.93, 31.33 125.33 M135.33 125.33 C106.97 124.12, 79.11 124.18, 31.33 125.33 M31.33 125.33 C11.87 125.54, -0.98 115.96, 0 94 M31.33 125.33 C12.1 126.46, 1.66 113.53, 0 94 M0 94 C-1.16 73.16, -0.14 49.72, 0 31.33 M0 94 C0.95 79.05, 1.32 62.9, 0 31.33 M0 31.33 C0.88 9.16, 10.22 -0.87, 31.33 0 M0 31.33 C0.34 10.07, 10.05 -1.98, 31.33 0" stroke="#1e1e1e" stroke-width="2" fill="none"></path></g><g transform="translate(994.4765363420752 207.38435316915667) rotate(0 56 9.600000000000001)"><text x="56" y="0" font-family="Cascadia, Segoe UI Emoji" font-size="16px" fill="#1e1e1e" text-anchor="middle" style="white-space: pre;" direction="ltr" dominant-baseline="text-before-edge">智能分析服务器</text></g><g stroke-linecap="round"><g transform="translate(393.0871460189485 259.7625659616393) rotate(0 -4.365762253239552 45.556762337534266)" fill-rule="evenodd"><path d="M-55.05 17.07 C-55.05 17.07, -55.05 17.07, -55.05 17.07 M-55.05 17.07 C-55.05 17.07, -55.05 17.07, -55.05 17.07 M-54.66 22.71 C-52.68 20.53, -48.69 16.49, -47.44 14.41 M-54.66 22.71 C-52.2 20.4, -51.38 18.22, -47.44 14.41 M-54.92 29.11 C-50.89 24.45, -43.25 17.37, -40.49 12.5 M-54.92 29.11 C-49.72 22.53, -44.58 16.42, -40.49 12.5 M-55.18 35.51 C-49.99 29.18, -45.32 24.79, -32.88 9.85 M-55.18 35.51 C-48 27.03, -40.16 17.62, -32.88 9.85 M-55.44 41.9 C-49.01 32.59, -41.14 25.52, -25.92 7.94 M-55.44 41.9 C-49.69 35.05, -41.78 26.27, -25.92 7.94 M-55.05 47.55 C-46.1 33.48, -34.65 23.07, -18.97 6.04 M-55.05 47.55 C-43.17 34.45, -33.9 23.58, -18.97 6.04 M-55.31 53.94 C-39.75 33.52, -20.88 17.95, -11.36 3.38 M-55.31 53.94 C-38.97 35.07, -21.57 15.31, -11.36 3.38 M-55.57 60.34 C-37.39 39.65, -18.32 19.61, -4.4 1.48 M-55.57 60.34 C-41.79 45.52, -29.69 30.71, -4.4 1.48 M-55.18 65.99 C-40.48 53.29, -30.51 38.38, 1.24 1.08 M-55.18 65.99 C-40.75 48.27, -23.53 30.88, 1.24 1.08 M-54.13 70.87 C-33.67 47.14, -11.43 19.57, 5.57 2.2 M-54.13 70.87 C-37.46 52.81, -21.53 35.92, 5.57 2.2 M-50.45 72.74 C-24.95 43.96, -2.45 17.33, 9.25 4.06 M-50.45 72.74 C-29.2 50.04, -9.58 25.29, 9.25 4.06 M-46.12 73.86 C-25.91 50.2, -3.47 24.26, 13.58 5.18 M-46.12 73.86 C-33.1 60.42, -22.23 46.05, 13.58 5.18 M-42.45 75.73 C-27.78 60.65, -14.53 42.59, 17.25 7.05 M-42.45 75.73 C-23.47 52.15, -3.51 30.74, 17.25 7.05 M-38.77 77.6 C-17.31 50.65, 7.91 24.7, 20.93 8.92 M-38.77 77.6 C-22.09 57.81, -4.88 38.27, 20.93 8.92 M-35.1 79.47 C-12.61 53.78, 10.75 29.46, 25.26 10.03 M-35.1 79.47 C-19.3 60.85, -3.62 41.74, 25.26 10.03 M-30.77 80.58 C-14.14 62.97, -1.37 46.87, 28.94 11.9 M-30.77 80.58 C-11.94 57.75, 7.69 36.01, 28.94 11.9 M-27.09 82.45 C-1.48 56.11, 18.64 31.29, 32.61 13.77 M-27.09 82.45 C-12.65 65.39, 0.49 50.45, 32.61 13.77 M-23.42 84.32 C-6.12 60.97, 12.68 39.77, 36.94 14.89 M-23.42 84.32 C-6.96 63.81, 10.5 44.08, 36.94 14.89 M-19.74 86.19 C2.95 60.31, 26.79 31.41, 40.62 16.76 M-19.74 86.19 C-8.62 71.51, 3.74 56.78, 40.62 16.76 M-15.41 87.31 C-1.6 69.49, 14.47 54.58, 44.95 17.87 M-15.41 87.31 C5.45 62.9, 27.42 38.39, 44.95 17.87 M-11.74 89.17 C0.35 75.31, 12.49 58.84, 46.65 22.01 M-11.74 89.17 C1.06 74.1, 13.42 60.34, 46.65 22.01 M-8.06 91.04 C2.92 78.69, 15.06 64.32, 46.39 28.4 M-8.06 91.04 C3.39 77.2, 15.54 65.15, 46.39 28.4 M-1.76 89.89 C15.97 68.39, 36.39 44.97, 46.79 34.05 M-1.76 89.89 C16.63 68.49, 35.07 46.56, 46.79 34.05 M6.51 86.48 C19.65 72.07, 35.45 55.2, 46.53 40.44 M6.51 86.48 C14.55 77.6, 22.69 66.01, 46.53 40.44 M14.77 83.07 C22.18 72.96, 26.84 64.82, 46.26 46.84 M14.77 83.07 C23.86 71.57, 34.77 61.23, 46.26 46.84 M23.04 79.65 C30.24 70.55, 35.56 64.1, 46 53.24 M23.04 79.65 C31.37 69.17, 41.1 58.78, 46 53.24 M31.31 76.24 C35.02 71.37, 41.65 66.64, 45.74 59.64 M31.31 76.24 C34.4 71.39, 37.68 68.13, 45.74 59.64 M39.58 72.83 C40.48 71.96, 41.87 70.41, 45.48 66.04 M39.58 72.83 C41.03 71.32, 42.26 69.14, 45.48 66.04" stroke="#be4bdb" stroke-width="0.5" fill="none"></path><path d="M0 0 C-23.33 5.92, -44.16 12.9, -54.89 16.88 M0 0 C-13.74 4.59, -27.65 9.07, -54.89 16.88 M-54.89 16.88 C-54.21 28.17, -54.93 37.4, -55.53 69.83 M-54.89 16.88 C-54.74 29.53, -54.73 41.2, -55.53 69.83 M-55.53 69.83 C-34.85 76.58, -17.46 86.11, -6.7 91.11 M-55.53 69.83 C-44.52 73.66, -33.03 80.21, -6.7 91.11 M-6.7 91.11 C11.37 85.13, 31.41 74.67, 45.68 69.58 M-6.7 91.11 C10.09 83.92, 25.62 77.3, 45.68 69.58 M45.68 69.58 C48.02 50.14, 48.3 32.3, 46.8 18.71 M45.68 69.58 C47.1 51.85, 46.28 34.5, 46.8 18.71 M46.8 18.71 C31.15 13.58, 16.71 7.26, 0 0 M46.8 18.71 C32.8 13.64, 18.43 6.36, 0 0 M0 0 C0 0, 0 0, 0 0 M0 0 C0 0, 0 0, 0 0" stroke="#881fa3" stroke-width="1" fill="none"></path></g></g><mask></mask><g transform="translate(304.52266366141123 367.07007114232897) rotate(0 93.75 19.19999999999999)"><text x="93.75" y="0" font-family="Cascadia, Segoe UI Emoji" font-size="16px" fill="#1e1e1e" text-anchor="middle" style="white-space: pre;" direction="ltr" dominant-baseline="text-before-edge">交换机</text><text x="93.75" y="19.2" font-family="Cascadia, Segoe UI Emoji" font-size="16px" fill="#1e1e1e" text-anchor="middle" style="white-space: pre;" direction="ltr" dominant-baseline="text-before-edge">BI_waitting_exchange</text></g><g stroke-linecap="round"><g transform="translate(712.9577993751709 344.721842174729) rotate(89.99999999999994 26.130466310641737 64.96148966423756)" fill-rule="evenodd"><path d="M2.08 -4.82 C2.08 -4.82, 2.08 -4.82, 2.08 -4.82 M2.08 -4.82 C2.08 -4.82, 2.08 -4.82, 2.08 -4.82 M1.82 1.58 C3.65 0.32, 5.65 -4.63, 12.31 -10.5 M1.82 1.58 C3.88 -2.15, 6.46 -4.72, 12.31 -10.5 M1.56 7.98 C6.99 0.79, 13.41 -6.65, 18.61 -11.64 M1.56 7.98 C5.2 2.64, 10.5 -1.91, 18.61 -11.64 M1.95 13.62 C8.03 8.63, 10.96 1.49, 24.26 -12.04 M1.95 13.62 C7.4 6.89, 13.76 0.84, 24.26 -12.04 M1.69 20.02 C8.45 13.87, 12.47 6.01, 27.93 -10.17 M1.69 20.02 C7.43 14.34, 14.37 6.78, 27.93 -10.17 M2.08 25.66 C13.55 13.8, 25.72 -0.39, 32.26 -9.06 M2.08 25.66 C12.08 13.19, 22.96 2.38, 32.26 -9.06 M1.82 32.06 C10.22 18.84, 23.84 6.88, 36.59 -7.94 M1.82 32.06 C13.2 20.19, 22.99 6.66, 36.59 -7.94 M2.22 37.7 C12.74 26.22, 20.14 15.49, 41.58 -7.58 M2.22 37.7 C11.75 26.42, 19.25 17.49, 41.58 -7.58 M1.96 44.1 C13.02 32.32, 21.61 20.99, 46.57 -7.22 M1.96 44.1 C12.8 30.27, 26.47 17.17, 46.57 -7.22 M2.35 49.74 C18.62 32.02, 32.25 15.92, 48.93 -3.84 M2.35 49.74 C14.8 34.51, 27.71 19.7, 48.93 -3.84 M2.09 56.14 C16.29 40.45, 26.45 28.05, 51.95 -1.22 M2.09 56.14 C16.71 38.4, 32.24 22.3, 51.95 -1.22 M52.61 -1.97 C52.61 -1.97, 52.61 -1.97, 52.61 -1.97 M52.61 -1.97 C52.61 -1.97, 52.61 -1.97, 52.61 -1.97 M2.48 61.78 C22.47 42.12, 38.43 17.29, 52.34 4.43 M2.48 61.78 C16.66 44.77, 31.83 29.3, 52.34 4.43 M2.22 68.18 C13.58 54.95, 21.93 46.29, 52.08 10.82 M2.22 68.18 C17.53 49.49, 33.65 30.89, 52.08 10.82 M1.96 74.58 C17.21 57.19, 31.62 42.06, 52.48 16.47 M1.96 74.58 C21.31 51.93, 40.63 30.56, 52.48 16.47 M2.35 80.22 C12.26 69.11, 23.4 53.2, 52.22 22.86 M2.35 80.22 C12.03 68.03, 22.69 55.39, 52.22 22.86 M2.09 86.62 C14.31 74.88, 24.6 61.06, 52.61 28.51 M2.09 86.62 C12.76 74, 25.04 60.83, 52.61 28.51 M2.49 92.26 C17.14 75.05, 35.41 54.23, 52.35 34.91 M2.49 92.26 C15.16 76.12, 30.26 60.02, 52.35 34.91 M2.23 98.66 C22.63 74.67, 39.78 54.99, 52.09 41.3 M2.23 98.66 C16.55 81.92, 31.41 64.33, 52.09 41.3 M2.62 104.3 C15.76 89.12, 25.15 76.17, 52.48 46.95 M2.62 104.3 C16.04 87.22, 30 71.67, 52.48 46.95 M2.36 110.7 C12.98 96.7, 24.03 83.69, 52.22 53.34 M2.36 110.7 C21.69 88.97, 41.32 65.43, 52.22 53.34 M2.75 116.35 C13.79 106.49, 24.1 94.46, 52.61 58.99 M2.75 116.35 C12.58 104.39, 24.04 91.06, 52.61 58.99 M2.49 122.74 C23.17 100.92, 42.92 78.8, 52.35 65.39 M2.49 122.74 C20.54 102.87, 37.1 81.03, 52.35 65.39 M2.23 129.14 C13.86 115.68, 22.99 105.71, 52.09 71.78 M2.23 129.14 C20.91 108.03, 40.41 86.49, 52.09 71.78 M2.63 134.78 C22.68 112.66, 44.19 86.82, 52.49 77.43 M2.63 134.78 C18.75 115.8, 36.22 96.48, 52.49 77.43 M5.64 137.41 C22.62 117.23, 37.65 100.68, 52.23 83.82 M5.64 137.41 C20.5 119.8, 37.28 100.35, 52.23 83.82 M8.66 140.03 C23.11 123.34, 38.05 108.36, 52.62 89.47 M8.66 140.03 C22.87 122.86, 36.94 107.41, 52.62 89.47 M12.99 141.15 C25.26 129.96, 32.62 117.53, 52.36 95.86 M12.99 141.15 C26.41 126.19, 38.89 110.16, 52.36 95.86 M17.33 142.26 C26.99 129.91, 38.29 115.61, 52.1 102.26 M17.33 142.26 C30.35 126.8, 43.81 110.95, 52.1 102.26 M21.66 143.38 C30.25 134.55, 38.45 124.34, 52.49 107.91 M21.66 143.38 C31.48 132.45, 39.03 122.57, 52.49 107.91 M27.96 142.23 C38.83 134.15, 46.51 121.89, 52.23 114.3 M27.96 142.23 C36.23 133.55, 43.23 124.87, 52.23 114.3 M34.25 141.08 C40.56 133.92, 44.82 126.3, 52.62 119.95 M34.25 141.08 C42.37 133.6, 48.06 124.3, 52.62 119.95 M39.9 140.68 C43.86 137.29, 46.59 134.16, 52.36 126.34 M39.9 140.68 C43.42 136.74, 47.6 132.04, 52.36 126.34 M44.88 141.04 C46.88 138.11, 49.98 133.84, 54.07 130.48 M44.88 141.04 C47.6 138.23, 50.65 134.58, 54.07 130.48" stroke="#40c057" stroke-width="0.5" fill="none"></path><path d="M0.88 0.22 C1 19.41, 0.63 94.41, 0.57 116.26 C0.51 138.11, 0 128.19, 0.53 131.32 C1.06 134.44, 1.82 133.58, 3.74 135.02 C5.66 136.45, 8.19 138.78, 12.07 139.93 C15.94 141.08, 21.92 141.88, 27 141.93 C32.08 141.97, 38.53 141.6, 42.55 140.22 C46.57 138.83, 49.5 135.36, 51.14 133.59 C52.79 131.83, 52.12 131.93, 52.45 129.61 C52.78 127.28, 53.25 139.78, 53.11 119.63 C52.97 99.48, 52.01 28.91, 51.61 8.7 C51.21 -11.51, 51.25 0.99, 50.71 -1.62 C50.18 -4.23, 49.95 -5.7, 48.39 -6.95 C46.84 -8.2, 45.12 -8.1, 41.38 -9.12 C37.63 -10.14, 30.57 -12.95, 25.93 -13.08 C21.3 -13.21, 17.67 -11.34, 13.58 -9.9 C9.49 -8.46, 3.58 -6.27, 1.4 -4.45 C-0.78 -2.62, 0.55 0.44, 0.51 1.04 C0.47 1.64, 1.35 -0.59, 1.15 -0.86 M-0.12 -0.71 C-0.11 19.14, -0.2 95.78, -0.17 117.5 C-0.15 139.22, -0.14 126.57, 0.04 129.6 C0.21 132.63, -0.89 133.96, 0.87 135.67 C2.64 137.39, 6.09 139.05, 10.6 139.9 C15.12 140.74, 22.57 140.86, 27.97 140.72 C33.36 140.58, 39.27 140.36, 42.97 139.07 C46.68 137.79, 48.87 134.79, 50.2 133.02 C51.52 131.25, 50.87 130.66, 50.94 128.45 C51.02 126.25, 50.54 139.68, 50.65 119.79 C50.77 99.9, 51.36 28.91, 51.64 9.11 C51.92 -10.69, 52.86 3.28, 52.34 1.01 C51.83 -1.26, 50.51 -2.83, 48.56 -4.51 C46.6 -6.2, 44.29 -7.51, 40.63 -9.1 C36.97 -10.69, 31.42 -13.56, 26.58 -14.03 C21.74 -14.5, 15.44 -13.68, 11.57 -11.91 C7.7 -10.14, 5.38 -5.12, 3.37 -3.41 C1.35 -1.7, 0.01 -2.06, -0.49 -1.67 C-0.99 -1.28, 0.38 -1.5, 0.36 -1.06" stroke="#087f5b" stroke-width="1" fill="none"></path></g></g><mask></mask><g stroke-linecap="round"><g transform="translate(688.4303889708144 405.1601117205754) rotate(89.99999999999994 25.358738319623853 5.765431739611103)"><path d="M0.4 -0.56 C0.56 0.44, 0.57 4.75, 1.86 6.26 C3.15 7.76, 5.99 7.65, 8.14 8.46 C10.3 9.26, 11.82 10.52, 14.78 11.08 C17.75 11.63, 21.65 11.83, 25.92 11.8 C30.19 11.76, 36.51 12.15, 40.38 10.87 C44.24 9.58, 47.35 5.91, 49.13 4.07 C50.91 2.23, 50.63 0.43, 51.04 -0.15 M-0.86 1.76 C-0.88 2.44, -0.28 3.5, 1.18 4.76 C2.65 6.02, 5.62 8.16, 7.93 9.33 C10.24 10.49, 11.75 11.31, 15.04 11.76 C18.33 12.21, 23.24 12.31, 27.66 12.02 C32.08 11.73, 37.87 11.01, 41.57 10.03 C45.27 9.05, 48.42 7.86, 49.85 6.15 C51.29 4.43, 50.1 0.8, 50.18 -0.26" stroke="#087f5b" stroke-width="1" fill="none"></path></g></g><mask></mask><g stroke-linecap="round"><g transform="translate(733.8561701192561 405.4991968455755) rotate(89.99999999999994 25.286239536301878 4.621570289024788)"><path d="M0.52 1.19 C0.85 1.82, 1.28 2.3, 2.38 3.21 C3.47 4.12, 5.18 5.66, 7.1 6.66 C9.01 7.66, 10.67 8.63, 13.87 9.2 C17.06 9.78, 21.79 10.31, 26.28 10.1 C30.78 9.89, 37.01 8.95, 40.83 7.95 C44.64 6.94, 47.4 5.27, 49.16 4.06 C50.92 2.85, 51.25 1.64, 51.39 0.7 M-0.67 0.78 C-0.44 1.58, 0.81 3.17, 1.98 4.3 C3.14 5.43, 4.39 6.58, 6.34 7.55 C8.29 8.53, 10.01 9.62, 13.66 10.14 C17.31 10.66, 23.47 11.27, 28.25 10.69 C33.03 10.12, 38.7 7.96, 42.32 6.67 C45.94 5.38, 48.56 3.89, 49.97 2.94 C51.39 1.99, 50.51 1.44, 50.8 0.97" stroke="#087f5b" stroke-width="1" fill="none"></path></g></g><mask></mask><g stroke-linecap="round" transform="translate(780.4609432513712 399.6460009246873) rotate(89.99999999999994 25.639064267762706 11.398576284497977)"><path d="M35.94 0.83 C41.06 1.79, 47.59 4.29, 49.91 6.43 C52.23 8.58, 51.43 11.45, 49.87 13.68 C48.3 15.92, 44.89 18.4, 40.54 19.87 C36.19 21.33, 29.23 22.6, 23.78 22.46 C18.33 22.33, 11.94 20.76, 7.84 19.06 C3.75 17.36, -0.25 14.53, -0.82 12.27 C-1.38 10.02, 1.25 7.57, 4.47 5.52 C7.68 3.47, 12.52 0.51, 18.46 -0.02 C24.41 -0.55, 35.96 1.93, 40.14 2.35 C44.31 2.77, 43.75 2.5, 43.51 2.49 M13.89 2.42 C18.39 1.1, 25.89 -1.67, 31.5 -1.04 C37.11 -0.42, 44.07 3.9, 47.55 6.17 C51.03 8.44, 52.96 10.55, 52.36 12.59 C51.76 14.63, 48.21 16.95, 43.92 18.39 C39.64 19.84, 32.23 20.96, 26.65 21.27 C21.08 21.58, 14.57 21.18, 10.5 20.24 C6.42 19.29, 3.55 17.68, 2.2 15.6 C0.84 13.51, 0.06 10.17, 2.36 7.75 C4.66 5.32, 13.83 1.97, 15.98 1.05 C18.13 0.13, 15.16 2.02, 15.28 2.22" stroke="none" stroke-width="0" fill="#fff"></path><path d="M25.55 -0.35 C30.94 -0.34, 38.41 1.15, 42.58 2.84 C46.75 4.53, 49.62 7.26, 50.54 9.76 C51.47 12.26, 50.67 15.87, 48.12 17.85 C45.56 19.84, 40.6 21.13, 35.21 21.67 C29.82 22.22, 21.26 21.9, 15.79 21.11 C10.32 20.31, 5.05 18.89, 2.39 16.92 C-0.28 14.95, -1.41 11.58, -0.2 9.28 C1 6.98, 5.07 4.5, 9.63 3.12 C14.2 1.74, 23.75 1.6, 27.2 1.02 C30.66 0.45, 30.23 -0.42, 30.37 -0.32 M36.18 0.43 C40.98 1.45, 48.25 4.1, 50.5 6.43 C52.75 8.75, 51.62 11.74, 49.66 14.38 C47.7 17.02, 43.3 20.69, 38.73 22.26 C34.17 23.83, 27.77 24.48, 22.26 23.79 C16.75 23.09, 9.15 20, 5.67 18.09 C2.19 16.17, 1.48 14.47, 1.36 12.3 C1.24 10.14, 2.08 7.27, 4.94 5.11 C7.81 2.96, 13.1 0.27, 18.53 -0.6 C23.95 -1.48, 34.55 -0.73, 37.51 -0.15 C40.46 0.42, 36.69 2.53, 36.25 2.84" stroke="#087f5b" stroke-width="1" fill="none"></path></g><g transform="translate(652.7384665352956 448.8414655087216) rotate(0 84.375 19.19999999999999)"><text x="84.375" y="0" font-family="Cascadia, Segoe UI Emoji" font-size="16px" fill="#1e1e1e" text-anchor="middle" style="white-space: pre;" direction="ltr" dominant-baseline="text-before-edge">等待任务队列</text><text x="84.375" y="19.2" font-family="Cascadia, Segoe UI Emoji" font-size="16px" fill="#1e1e1e" text-anchor="middle" style="white-space: pre;" direction="ltr" dominant-baseline="text-before-edge">BI_waiting_queue02</text></g><g stroke-linecap="round" transform="translate(970.9022892543235 350.3176661574379) rotate(0 83.33334350585938 62.666656494140625)"><path d="M31.33 0 C62.15 0.04, 94.67 0.99, 135.33 0 M31.33 0 C59.31 0.59, 85.45 -1.29, 135.33 0 M135.33 0 C154.27 -1.92, 166.45 9.2, 166.67 31.33 M135.33 0 C156.08 0.78, 167.83 9, 166.67 31.33 M166.67 31.33 C167.98 57.17, 168.91 83.13, 166.67 94 M166.67 31.33 C167.19 45.34, 165.92 59.74, 166.67 94 M166.67 94 C165.27 116.69, 155.59 126.75, 135.33 125.33 M166.67 94 C164.57 113.12, 158.23 125.66, 135.33 125.33 M135.33 125.33 C103.52 125.11, 72.36 123.74, 31.33 125.33 M135.33 125.33 C93.66 125.6, 53.89 124.4, 31.33 125.33 M31.33 125.33 C8.86 124.08, -0.52 116.87, 0 94 M31.33 125.33 C10.01 124.15, -1.63 115.52, 0 94 M0 94 C0.52 80.08, -2.11 67.48, 0 31.33 M0 94 C-0.83 76.64, -0.09 59.81, 0 31.33 M0 31.33 C-1.63 10.44, 9.23 -1.74, 31.33 0 M0 31.33 C-0.39 10.17, 9.01 2.07, 31.33 0" stroke="#1e1e1e" stroke-width="2" fill="none"></path></g><g transform="translate(998.2356327601829 403.3843226515785) rotate(0 56 9.599999999999994)"><text x="56" y="0" font-family="Cascadia, Segoe UI Emoji" font-size="16px" fill="#1e1e1e" text-anchor="middle" style="white-space: pre;" direction="ltr" dominant-baseline="text-before-edge">智能分析服务器</text></g><g mask="url(#mask-1ZF8iJIu5DKk7HEsRClKZ)" stroke-linecap="round"><g transform="translate(194.47671944754404 301.650948628141) rotate(0 66.33334350585938 1.333343505859375)"><path d="M-0.09 0.16 C21.67 0.8, 109.48 2.43, 131.67 2.77 M-1.6 -0.81 C20.43 0.15, 111.5 3.68, 133.85 4.36" stroke="#1e1e1e" stroke-width="2" fill="none"></path></g><g transform="translate(194.47671944754404 301.650948628141) rotate(0 66.33334350585938 1.333343505859375)"><path d="M110.07 12.08 C119.73 7.4, 128.98 6.68, 133.85 4.36 M110.07 12.08 C115.3 10.22, 122.97 8.49, 133.85 4.36" stroke="#1e1e1e" stroke-width="2" fill="none"></path></g><g transform="translate(194.47671944754404 301.650948628141) rotate(0 66.33334350585938 1.333343505859375)"><path d="M110.68 -5.01 C119.95 -2.98, 128.95 3, 133.85 4.36 M110.68 -5.01 C115.88 -2.37, 123.38 0.4, 133.85 4.36" stroke="#1e1e1e" stroke-width="2" fill="none"></path></g></g><mask id="mask-1ZF8iJIu5DKk7HEsRClKZ"><rect x="0" y="0" fill="#fff" width="427.1434064592628" height="404.31763563985976"></rect><rect x="228.81006295340342" y="293.38429213400036" fill="#000" width="64" height="19.2" opacity="1"></rect></mask><g transform="translate(228.81006295340342 293.3842921340005) rotate(0 31.791991794640182 10.045919077014545)"><text x="32" y="0" font-family="Cascadia, Segoe UI Emoji" font-size="16px" fill="#1e1e1e" text-anchor="middle" style="white-space: pre;" direction="ltr" dominant-baseline="text-before-edge">发送任务</text></g><g stroke-linecap="round"><g transform="translate(449.8100324358253 310.31763563985976) rotate(0 98.33334350585932 -42.333343505859375)"><path d="M-0.06 1.17 C32.87 -12.98, 163.63 -71.41, 196.49 -85.54 M-1.54 0.74 C31.3 -13.23, 162.43 -70.1, 195.45 -84.45" stroke="#1e1e1e" stroke-width="2" fill="none"></path></g><g transform="translate(449.8100324358253 310.31763563985976) rotate(0 98.33334350585932 -42.333343505859375)"><path d="M177.31 -67.26 C183.21 -71.2, 183.68 -73.82, 195.45 -84.45 M177.31 -67.26 C183.96 -74.34, 190.63 -81, 195.45 -84.45" stroke="#1e1e1e" stroke-width="2" fill="none"></path></g><g transform="translate(449.8100324358253 310.31763563985976) rotate(0 98.33334350585932 -42.333343505859375)"><path d="M170.5 -82.95 C177.77 -83.55, 179.69 -82.82, 195.45 -84.45 M170.5 -82.95 C179.89 -83.91, 189.21 -84.48, 195.45 -84.45" stroke="#1e1e1e" stroke-width="2" fill="none"></path></g></g><mask></mask><g stroke-linecap="round"><g transform="translate(451.14334542410654 312.31763563985976) rotate(0 101.99999999999994 46)"><path d="M-0.45 -0.08 C33.59 15.16, 169.32 76.07, 203.44 91.48 M1.51 -1.17 C35.42 14.23, 168.51 77.5, 202.2 92.74" stroke="#1e1e1e" stroke-width="2" fill="none"></path></g><g transform="translate(451.14334542410654 312.31763563985976) rotate(0 101.99999999999994 46)"><path d="M177.3 90.59 C182.92 90.25, 187.94 92.15, 202.2 92.74 M177.3 90.59 C185.84 91.06, 193.83 91.38, 202.2 92.74" stroke="#1e1e1e" stroke-width="2" fill="none"></path></g><g transform="translate(451.14334542410654 312.31763563985976) rotate(0 101.99999999999994 46)"><path d="M184.51 75.08 C188.47 78.3, 191.83 83.78, 202.2 92.74 M184.51 75.08 C190.66 80.71, 196.24 86.22, 202.2 92.74" stroke="#1e1e1e" stroke-width="2" fill="none"></path></g></g><mask></mask><g mask="url(#mask-ZO9fA6F7Q2XX4JvN_wgJd)" stroke-linecap="round"><g transform="translate(812.4952616208359 213.80504352181998) rotate(0 72.65735488991652 -0.6108264300560791)"><path d="M0.54 -0.86 C25.06 -1.15, 121.97 -1.43, 146.13 -1.52 M-0.64 1.3 C23.89 1.18, 121.37 0.11, 145.62 -0.14" stroke="#1e1e1e" stroke-width="2" fill="none"></path></g><g transform="translate(812.4952616208359 213.80504352181998) rotate(0 72.65735488991652 -0.6108264300560791)"><path d="M122.21 8.66 C125.81 8.02, 131.79 5.09, 145.62 -0.14 M122.21 8.66 C128.43 6.9, 135.66 3.99, 145.62 -0.14" stroke="#1e1e1e" stroke-width="2" fill="none"></path></g><g transform="translate(812.4952616208359 213.80504352181998) rotate(0 72.65735488991652 -0.6108264300560791)"><path d="M122.03 -8.44 C125.69 -5.4, 131.71 -4.64, 145.62 -0.14 M122.03 -8.44 C128.37 -5.35, 135.65 -3.42, 145.62 -0.14" stroke="#1e1e1e" stroke-width="2" fill="none"></path></g></g><mask id="mask-ZO9fA6F7Q2XX4JvN_wgJd"><rect x="0" y="0" fill="#fff" width="1057.809971400669" height="315.02669638193214"></rect><rect x="853.1526165107523" y="203.5942170917639" fill="#000" width="64" height="19.2" opacity="1"></rect></mask><g transform="translate(853.1526165107525 203.5942170917639) rotate(0 32.089039553743646 10.098298766347575)"><text x="32" y="0" font-family="Cascadia, Segoe UI Emoji" font-size="16px" fill="#1e1e1e" text-anchor="middle" style="white-space: pre;" direction="ltr" dominant-baseline="text-before-edge">接受任务</text></g><g mask="url(#mask-cE66B-XMQbYd78f0Y3M_T)" stroke-linecap="round"><g transform="translate(827.8328689277153 415.70066504347915) rotate(0 63.32192525991434 0.6248163646008322)"><path d="M0.23 -0.56 C21.19 -0.5, 105.96 -0.02, 126.83 0.27 M-1.11 1.77 C19.62 1.94, 104.51 1.18, 125.99 1.3" stroke="#1e1e1e" stroke-width="2" fill="none"></path></g><g transform="translate(827.8328689277153 415.70066504347915) rotate(0 63.32192525991434 0.6248163646008322)"><path d="M102.52 9.91 C110.67 6.85, 119.05 1.26, 125.99 1.3 M102.52 9.91 C109.63 6.24, 116.58 4.59, 125.99 1.3" stroke="#1e1e1e" stroke-width="2" fill="none"></path></g><g transform="translate(827.8328689277153 415.70066504347915) rotate(0 63.32192525991434 0.6248163646008322)"><path d="M102.47 -7.19 C110.64 -3.63, 119.04 -2.61, 125.99 1.3 M102.47 -7.19 C109.61 -5.81, 116.58 -2.41, 125.99 1.3" stroke="#1e1e1e" stroke-width="2" fill="none"></path></g></g><mask id="mask-cE66B-XMQbYd78f0Y3M_T"><rect x="0" y="0" fill="#fff" width="1054.476719447544" height="516.9502977726809"></rect><rect x="859.1547941876295" y="406.72548140807993" fill="#000" width="64" height="19.2" opacity="1"></rect></mask><g transform="translate(859.1547941876297 406.7254814080799) rotate(0 31.53899909723998 9.593750969164262)"><text x="32" y="0" font-family="Cascadia, Segoe UI Emoji" font-size="16px" fill="#1e1e1e" text-anchor="middle" style="white-space: pre;" direction="ltr" dominant-baseline="text-before-edge">接受任务</text></g><g stroke-linecap="round"><g transform="translate(707.2016665504998 -27.150086503863434) rotate(270.19262708229076 26.130466310641737 64.96148966423758)" fill-rule="evenodd"><path d="M2.08 -4.82 C2.08 -4.82, 2.08 -4.82, 2.08 -4.82 M2.08 -4.82 C2.08 -4.82, 2.08 -4.82, 2.08 -4.82 M0.51 3.09 C3.58 -2.41, 6.98 -6.52, 12.31 -10.5 M0.51 3.09 C4.56 -1.52, 9.09 -6.01, 12.31 -10.5 M0.24 9.49 C3.62 4.47, 10.95 0.18, 18.61 -11.64 M0.24 9.49 C5.98 2.8, 13.91 -4.5, 18.61 -11.64 M0.64 15.13 C6.91 11.01, 11.93 5.25, 24.26 -12.04 M0.64 15.13 C6.55 9.33, 12.7 1.99, 24.26 -12.04 M0.38 21.53 C6.66 12.94, 16.37 5.27, 29.24 -11.68 M0.38 21.53 C10.91 10.09, 19.39 -2.19, 29.24 -11.68 M0.77 27.17 C11.1 14.29, 20.33 3.02, 33.57 -10.56 M0.77 27.17 C11.74 13.95, 23.17 1.3, 33.57 -10.56 M0.51 33.57 C14.58 16.78, 30.17 2.89, 37.91 -9.45 M0.51 33.57 C15.47 15.78, 30.49 -0.84, 37.91 -9.45 M0.25 39.97 C14.18 21.88, 31.07 5.03, 42.24 -8.33 M0.25 39.97 C15.67 21.8, 30.37 5.86, 42.24 -8.33 M0.64 45.61 C14.78 25.78, 31.58 8.4, 46.57 -7.22 M0.64 45.61 C12.83 32.37, 24.77 16.99, 46.57 -7.22 M0.38 52.01 C12.08 37.16, 24.8 23.19, 48.93 -3.84 M0.38 52.01 C15.23 33.98, 29.46 16.98, 48.93 -3.84 M0.78 57.65 C20.58 33.55, 42.58 9.67, 51.29 -0.46 M0.78 57.65 C20.59 35.99, 40.42 14.27, 51.29 -0.46 M52.61 -1.97 C52.61 -1.97, 52.61 -1.97, 52.61 -1.97 M52.61 -1.97 C52.61 -1.97, 52.61 -1.97, 52.61 -1.97 M0.52 64.05 C15.06 45.87, 32.13 28.28, 52.34 4.43 M0.52 64.05 C13.99 50.18, 26.87 35.83, 52.34 4.43 M0.91 69.69 C20.53 45.69, 40.22 21.85, 52.08 10.82 M0.91 69.69 C16.36 52.21, 32.33 33.74, 52.08 10.82 M0.65 76.09 C16.8 58.37, 35.55 36.82, 52.48 16.47 M0.65 76.09 C12.21 61.33, 24.4 45.99, 52.48 16.47 M1.04 81.73 C14.77 66.98, 24.69 54.21, 52.22 22.86 M1.04 81.73 C17.19 62.82, 33.68 43.68, 52.22 22.86 M0.78 88.13 C17.32 69.91, 32.51 51.34, 52.61 28.51 M0.78 88.13 C12.23 75.17, 24.31 61.23, 52.61 28.51 M0.52 94.53 C12.34 78.2, 27.81 63.11, 52.35 34.91 M0.52 94.53 C20.18 71.01, 39.53 48.37, 52.35 34.91 M0.91 100.17 C18.43 79.32, 41.05 57.4, 52.09 41.3 M0.91 100.17 C17.91 80.81, 34.32 61.81, 52.09 41.3 M0.65 106.57 C21.04 86.23, 37.32 64.25, 52.48 46.95 M0.65 106.57 C12.89 92.52, 24.31 78.54, 52.48 46.95 M1.05 112.21 C20.67 87.98, 40.42 66.67, 52.22 53.34 M1.05 112.21 C19.33 93.36, 36.15 72.67, 52.22 53.34 M0.79 118.61 C18.59 96.18, 39.41 75.64, 52.61 58.99 M0.79 118.61 C19.06 97.61, 38.24 76.5, 52.61 58.99 M1.18 124.25 C19.04 103.35, 38.12 82.2, 52.35 65.39 M1.18 124.25 C18.33 103.7, 36.94 84.81, 52.35 65.39 M0.92 130.65 C13.42 116.22, 25.08 103.24, 52.09 71.78 M0.92 130.65 C12.09 116.81, 22.91 104.41, 52.09 71.78 M2.63 134.78 C20.98 114.29, 40.23 93.42, 52.49 77.43 M2.63 134.78 C19.12 117.14, 33.53 99.33, 52.49 77.43 M5.64 137.41 C18.18 124.43, 29.82 112.29, 52.23 83.82 M5.64 137.41 C17.84 122.42, 28.95 108.86, 52.23 83.82 M9.32 139.28 C23.25 126.02, 35.73 110.67, 52.62 89.47 M9.32 139.28 C19.77 126.45, 30.1 114.75, 52.62 89.47 M13.65 140.39 C28.29 121.96, 44.69 104.5, 52.36 95.86 M13.65 140.39 C25.46 125.74, 37.48 112.27, 52.36 95.86 M17.98 141.51 C27.07 130.96, 36.36 122.46, 52.1 102.26 M17.98 141.51 C28.18 129.78, 37.19 119.79, 52.1 102.26 M22.31 142.62 C33.7 128.29, 45.76 114.92, 52.49 107.91 M22.31 142.62 C31.56 132.23, 42.64 118.89, 52.49 107.91 M27.96 142.23 C35.81 132.4, 48.05 121.35, 52.23 114.3 M27.96 142.23 C37.18 131.4, 46.73 122, 52.23 114.3 M34.25 141.08 C39.89 134.59, 47.51 129.18, 52.62 119.95 M34.25 141.08 C40.25 135.03, 46.23 126.08, 52.62 119.95 M39.9 140.68 C44.96 134.98, 45.34 134.42, 52.36 126.34 M39.9 140.68 C44.97 135.77, 49.67 129.78, 52.36 126.34 M50.13 135.01 C50.42 134.35, 50.8 134, 51.45 133.5 M50.13 135.01 C50.4 134.64, 50.64 134.41, 51.45 133.5" stroke="#40c057" stroke-width="0.5" fill="none"></path><path d="M0.36 -0.26 C0.39 19.49, -0.48 96, -0.38 117.77 C-0.29 139.53, 0.3 127.44, 0.91 130.35 C1.52 133.27, 1.26 133.66, 3.29 135.27 C5.32 136.88, 9 138.99, 13.09 140.01 C17.18 141.03, 22.76 141.27, 27.86 141.4 C32.95 141.53, 39.73 142.17, 43.66 140.78 C47.58 139.39, 49.87 135.21, 51.39 133.08 C52.91 130.94, 52.52 130.52, 52.78 127.98 C53.04 125.43, 53 137.51, 52.94 117.8 C52.88 98.09, 52.49 29.52, 52.41 9.72 C52.32 -10.08, 53.11 1.54, 52.41 -0.97 C51.71 -3.49, 49.91 -4, 48.2 -5.36 C46.49 -6.72, 45.95 -7.9, 42.15 -9.12 C38.34 -10.34, 30.3 -12.36, 25.39 -12.67 C20.49 -12.98, 16.4 -12.35, 12.71 -10.96 C9.02 -9.56, 5.47 -5.93, 3.25 -4.3 C1.03 -2.67, -0.17 -1.96, -0.61 -1.2 C-1.04 -0.44, 0.7 -0.1, 0.63 0.26 M-0.91 -1.44 C-1.04 18.05, -1.88 93.94, -1.63 116.14 C-1.37 138.34, -0.29 128.47, 0.62 131.79 C1.53 135.11, 1.93 134.68, 3.85 136.05 C5.78 137.43, 7.93 138.77, 12.16 140.02 C16.4 141.28, 23.85 143.59, 29.27 143.58 C34.68 143.56, 41.11 141.82, 44.66 139.93 C48.21 138.04, 49.44 133.94, 50.57 132.23 C51.7 130.51, 50.87 132.17, 51.45 129.63 C52.03 127.09, 53.81 136.83, 54.05 117 C54.28 97.17, 53.31 30.44, 52.85 10.66 C52.39 -9.11, 52.05 1.07, 51.28 -1.66 C50.51 -4.4, 49.84 -4.5, 48.26 -5.74 C46.68 -6.98, 45.56 -7.82, 41.81 -9.1 C38.06 -10.38, 30.4 -13.28, 25.75 -13.41 C21.1 -13.54, 17.78 -11.57, 13.91 -9.87 C10.03 -8.16, 4.6 -4.59, 2.53 -3.18 C0.45 -1.78, 1.96 -2.06, 1.46 -1.42 C0.97 -0.78, 0 0.47, -0.42 0.65" stroke="#087f5b" stroke-width="1" fill="none"></path></g></g><mask></mask><g stroke-linecap="round"><g transform="translate(733.3276535255363 33.79569130471876) rotate(270.19262708229076 25.358738319623853 5.765431739611078)"><path d="M-0.56 0.95 C-0.24 1.87, 0.86 4, 2.24 5.29 C3.61 6.59, 5.44 7.73, 7.7 8.71 C9.96 9.68, 12.63 10.73, 15.81 11.16 C18.99 11.59, 22.49 11.23, 26.77 11.27 C31.05 11.32, 37.71 12.71, 41.48 11.43 C45.25 10.14, 47.73 5.75, 49.37 3.55 C51.02 1.35, 51.03 -0.97, 51.37 -1.77 M1.35 0.4 C1.55 0.96, 0.78 1.74, 1.76 3.29 C2.75 4.85, 5.38 8.28, 7.25 9.71 C9.11 11.14, 9.93 11.63, 12.94 11.89 C15.95 12.14, 20.86 11.38, 25.3 11.22 C29.74 11.05, 35.44 11.86, 39.59 10.89 C43.75 9.91, 48.37 7.02, 50.22 5.36 C52.07 3.7, 50.71 1.7, 50.68 0.92" stroke="#087f5b" stroke-width="1" fill="none"></path></g></g><mask></mask><g stroke-linecap="round"><g transform="translate(687.3997404039328 34.634615696446986) rotate(270.19262708229076 25.286239536301878 4.621570289024799)"><path d="M0.9 0.23 C1.32 0.65, 0.73 2.37, 1.93 3.46 C3.13 4.54, 5.99 5.87, 8.12 6.74 C10.25 7.61, 11.51 8.03, 14.72 8.68 C17.93 9.33, 22.99 10.87, 27.39 10.66 C31.78 10.45, 37.39 8.8, 41.07 7.43 C44.76 6.06, 47.8 3.86, 49.49 2.43 C51.18 1.01, 51 -0.63, 51.22 -1.13 M-0.08 -0.69 C0.28 -0.2, -0.03 3.28, 1.3 4.68 C2.63 6.07, 5.62 6.9, 7.9 7.68 C10.18 8.46, 11.9 9.3, 14.96 9.34 C18.02 9.37, 22.26 7.86, 26.27 7.89 C30.29 7.93, 34.99 10.17, 39.03 9.54 C43.06 8.91, 48.56 6.02, 50.48 4.12 C52.39 2.23, 50.74 -0.8, 50.54 -1.82" stroke="#087f5b" stroke-width="1" fill="none"></path></g></g><mask></mask><g stroke-linecap="round" transform="translate(640.830146427757 26.398562890864497) rotate(270.19262708229076 25.639064267762706 11.398576284497967)"><path d="M33.9 1.4 C38.89 1.93, 44.12 3.56, 46.91 5.42 C49.7 7.27, 51.35 9.97, 50.64 12.54 C49.93 15.12, 46.63 19.05, 42.64 20.85 C38.66 22.64, 32.07 23.48, 26.74 23.31 C21.41 23.14, 15.12 21.32, 10.66 19.82 C6.21 18.32, 1.1 16.5, 0 14.32 C-1.1 12.14, 1.5 9.12, 4.06 6.74 C6.61 4.37, 9.67 0.86, 15.33 0.07 C21 -0.71, 33.49 1.46, 38.04 2.02 C42.6 2.59, 42.71 3.49, 42.65 3.46 M17.27 1.65 C22.07 0.53, 28.43 -0.84, 33.52 -0.2 C38.61 0.45, 45 3.36, 47.82 5.53 C50.63 7.71, 51.05 10.44, 50.39 12.85 C49.73 15.27, 47.81 18.59, 43.87 20.05 C39.92 21.51, 32.34 21.46, 26.73 21.6 C21.12 21.74, 14.58 22.48, 10.21 20.92 C5.84 19.35, 1.89 14.67, 0.48 12.21 C-0.92 9.76, -0.67 8.09, 1.76 6.2 C4.19 4.31, 12.65 1.83, 15.06 0.86 C17.46 -0.1, 16.05 0.24, 16.2 0.41" stroke="none" stroke-width="0" fill="#fff"></path><path d="M35.7 1.62 C40.8 2.52, 47.31 4.67, 49.63 6.87 C51.95 9.08, 51.32 12.46, 49.62 14.85 C47.92 17.25, 43.87 19.9, 39.42 21.26 C34.97 22.61, 28.26 23.18, 22.94 22.96 C17.62 22.74, 11.38 21.73, 7.5 19.93 C3.63 18.13, 0.05 14.57, -0.32 12.16 C-0.69 9.75, 2.03 7.42, 5.29 5.47 C8.56 3.52, 13.75 1.06, 19.26 0.45 C24.78 -0.16, 34.88 1.37, 38.38 1.84 C41.88 2.3, 40.33 3.2, 40.26 3.24 M12.8 2.42 C17.24 1.38, 26.13 0.88, 31.88 1.41 C37.63 1.94, 44.05 3.96, 47.29 5.62 C50.52 7.27, 51.64 9.12, 51.3 11.34 C50.96 13.55, 48.89 17.2, 45.25 18.91 C41.6 20.62, 35.08 21.19, 29.41 21.62 C23.73 22.05, 15.68 22.71, 11.21 21.51 C6.74 20.3, 4.12 16.86, 2.58 14.4 C1.04 11.95, 0.1 8.9, 1.96 6.77 C3.81 4.64, 11.71 2.72, 13.71 1.62 C15.71 0.52, 13.77 0.3, 13.96 0.16" stroke="#087f5b" stroke-width="1" fill="none"></path></g><g transform="translate(653.4766584123877 79.65094862814104) rotate(0 75 19.2)"><text x="75" y="0" font-family="Cascadia, Segoe UI Emoji" font-size="16px" fill="#1e1e1e" text-anchor="middle" style="white-space: pre;" direction="ltr" dominant-baseline="text-before-edge">成功任务队列</text><text x="75" y="19.2" font-family="Cascadia, Segoe UI Emoji" font-size="16px" fill="#1e1e1e" text-anchor="middle" style="white-space: pre;" direction="ltr" dominant-baseline="text-before-edge">BI_succeed_queue</text></g><g mask="url(#mask-fhr89EiLrq0BrFJTvBh-v)" stroke-linecap="round"><g transform="translate(1146.4766584123877 217.65097914571916) rotate(0 -94.72030085757649 -86.2997397005558)"><path d="M1.04 0.33 C22.31 -5.79, 112.21 -10.36, 126.52 -35.87 C140.82 -61.37, 163.03 -129.85, 86.88 -152.69 C10.73 -175.54, -260.9 -169.51, -330.39 -172.93 M0.12 -0.54 C21.44 -6.63, 111.84 -9.76, 126.19 -34.96 C140.54 -60.16, 162.25 -128.91, 86.22 -151.74 C10.19 -174.58, -260.42 -168.4, -329.99 -171.96" stroke="#1e1e1e" stroke-width="2" fill="none"></path></g><g transform="translate(1146.4766584123877 217.65097914571916) rotate(0 -94.72030085757649 -86.2997397005558)"><path d="M-306.37 -180.15 C-310.64 -176.29, -318.07 -176.21, -329.99 -171.96 M-306.37 -180.15 C-311.58 -178.7, -317.44 -175.44, -329.99 -171.96" stroke="#1e1e1e" stroke-width="2" fill="none"></path></g><g transform="translate(1146.4766584123877 217.65097914571916) rotate(0 -94.72030085757649 -86.2997397005558)"><path d="M-306.64 -163.06 C-310.97 -162.72, -318.35 -166.18, -329.99 -171.96 M-306.64 -163.06 C-311.82 -165.74, -317.61 -166.62, -329.99 -171.96" stroke="#1e1e1e" stroke-width="2" fill="none"></path></g></g><mask id="mask-fhr89EiLrq0BrFJTvBh-v"><rect x="0" y="0" fill="#fff" width="1702.4766584123877" height="490.3176661574379"></rect><rect x="1236.9958163201131" y="104.43974254510135" fill="#000" width="96" height="19.2" opacity="1"></rect></mask><g transform="translate(1236.9958163201134 104.43974254510135) rotate(0 -185.23945876530217 26.911496900062012)"><text x="48" y="0" font-family="Cascadia, Segoe UI Emoji" font-size="16px" fill="#1e1e1e" text-anchor="middle" style="white-space: pre;" direction="ltr" dominant-baseline="text-before-edge">图表分析成功</text></g><g mask="url(#mask-Xn8GMVkrJ6ZoWrp3iwHBe)" stroke-linecap="round"><g transform="translate(644.393353053501 34.317612751676194) rotate(0 -260.8333206176757 95.41666030883789)"><path d="M0.4 0.71 C-52.83 5.63, -232.6 -2.21, -319.55 29.37 C-406.49 60.95, -487.73 163.24, -521.27 190.18 M-0.86 0.04 C-54.19 4.65, -233.43 -4.06, -320.26 27.79 C-407.09 59.64, -488.52 163.74, -521.83 191.15" stroke="#1e1e1e" stroke-width="2" fill="none"></path></g><g transform="translate(644.393353053501 34.317612751676194) rotate(0 -260.8333206176757 95.41666030883789)"><path d="M-511.14 168.55 C-513.01 175.78, -515.52 182.12, -521.83 191.15 M-511.14 168.55 C-513.78 174.43, -517.19 178.99, -521.83 191.15" stroke="#1e1e1e" stroke-width="2" fill="none"></path></g><g transform="translate(644.393353053501 34.317612751676194) rotate(0 -260.8333206176757 95.41666030883789)"><path d="M-499.11 180.71 C-504.4 184.51, -510.33 187.39, -521.83 191.15 M-499.11 180.71 C-504.8 183.63, -511.15 185.2, -521.83 191.15" stroke="#1e1e1e" stroke-width="2" fill="none"></path></g></g><mask id="mask-Xn8GMVkrJ6ZoWrp3iwHBe"><rect x="0" y="0" fill="#fff" width="1266.0599942888525" height="325.15093336935195"></rect><rect x="244.39335305350096" y="43.45093336935197" fill="#000" width="160" height="38.4" opacity="1"></rect></mask><g transform="translate(244.39335305350107 43.45093336935197) rotate(0 139.283687635702 86.46331670857035)"><text x="80" y="0" font-family="Cascadia, Segoe UI Emoji" font-size="16px" fill="#1e1e1e" text-anchor="middle" style="white-space: pre;" direction="ltr" dominant-baseline="text-before-edge">监听成功任务</text><text x="80" y="19.2" font-family="Cascadia, Segoe UI Emoji" font-size="16px" fill="#1e1e1e" text-anchor="middle" style="white-space: pre;" direction="ltr" dominant-baseline="text-before-edge">通知用户图表分析成功</text></g><g stroke-linecap="round"><g transform="translate(1067.9236348508196 538.6588012916345) rotate(0 -4.966506834870756 51.825536618733054)" fill-rule="evenodd"><path d="M-62.14 18.86 C-62.14 18.86, -62.14 18.86, -62.14 18.86 M-62.14 18.86 C-62.14 18.86, -62.14 18.86, -62.14 18.86 M-62.4 25.25 C-59.98 23.47, -58.11 21.79, -55.19 16.95 M-62.4 25.25 C-59.59 22.96, -58.03 20.11, -55.19 16.95 M-62.67 31.65 C-59.27 25.33, -53.63 19.78, -48.23 15.05 M-62.67 31.65 C-57.42 25.02, -52.15 20.7, -48.23 15.05 M-62.93 38.05 C-55.98 27.71, -47.43 19.62, -40.62 12.39 M-62.93 38.05 C-55.79 28.82, -48.44 21.62, -40.62 12.39 M-62.53 43.69 C-54.78 35.65, -48.09 24.64, -33.67 10.48 M-62.53 43.69 C-54.5 33.88, -44.13 22.39, -33.67 10.48 M-62.79 50.09 C-55.85 38.55, -45.92 31.35, -26.06 7.83 M-62.79 50.09 C-52.8 39.88, -43.01 28.56, -26.06 7.83 M-63.06 56.49 C-48.02 40, -36.31 22.75, -19.1 5.92 M-63.06 56.49 C-49.12 41.45, -36.76 26.61, -19.1 5.92 M-62.66 62.13 C-44.72 40.59, -28.11 21.55, -11.49 3.26 M-62.66 62.13 C-43.16 40.14, -24.42 18.76, -11.49 3.26 M-62.92 68.53 C-46.37 46.72, -29.48 27.24, -4.53 1.36 M-62.92 68.53 C-44.87 48.25, -26.03 26.11, -4.53 1.36 M-63.18 74.93 C-43.64 51.86, -26.57 33.94, 1.11 0.96 M-63.18 74.93 C-48.48 56.89, -31.94 40.25, 1.11 0.96 M-62.13 79.81 C-40.99 59.29, -22.12 36.67, 5.44 2.08 M-62.13 79.81 C-44.41 57.26, -24.49 36.43, 5.44 2.08 M-58.46 81.68 C-42.88 62.91, -30.33 45.47, 9.12 3.95 M-58.46 81.68 C-34.28 55.2, -8.44 25.52, 9.12 3.95 M-54.78 83.55 C-38.57 62.46, -20.86 44.14, 13.45 5.06 M-54.78 83.55 C-36.46 60.78, -17.05 39.59, 13.45 5.06 M-50.45 84.67 C-24.95 56.55, -2.76 29.31, 17.12 6.93 M-50.45 84.67 C-25.21 56.7, -1.35 28.2, 17.12 6.93 M-46.78 86.54 C-29.54 69.15, -16.32 49.98, 20.8 8.8 M-46.78 86.54 C-26.48 62.18, -5 38.57, 20.8 8.8 M-43.1 88.41 C-17.86 60, 6.38 33.55, 25.13 9.92 M-43.1 88.41 C-29.04 71.59, -14.17 54.57, 25.13 9.92 M-39.43 90.28 C-15.47 62.59, 9.31 32.76, 28.8 11.79 M-39.43 90.28 C-20.28 69.71, -2.59 48.78, 28.8 11.79 M-35.1 91.39 C-9.46 63.4, 13.72 34.35, 32.48 13.66 M-35.1 91.39 C-11.59 62.54, 13.73 34.07, 32.48 13.66 M-31.42 93.26 C-15.42 74.53, -0.59 58.04, 36.81 14.77 M-31.42 93.26 C-5.67 61.03, 22.75 31.19, 36.81 14.77 M-27.75 95.13 C-10.69 73.64, 4.39 56.16, 40.48 16.64 M-27.75 95.13 C-12.09 76.72, 3.92 57.07, 40.48 16.64 M-24.07 97 C-6.78 76.41, 11.49 57.52, 44.81 17.76 M-24.07 97 C-5.71 76.49, 13.22 55.25, 44.81 17.76 M-19.74 98.12 C-0.93 76.34, 17.79 54.8, 48.49 19.63 M-19.74 98.12 C4.98 69.67, 27.76 41.95, 48.49 19.63 M-16.07 99.98 C2.88 79.52, 18.62 60.59, 52.16 21.49 M-16.07 99.98 C9.23 70.84, 33.97 43.29, 52.16 21.49 M-12.39 101.85 C4.71 84.62, 18.11 62.42, 53.21 26.38 M-12.39 101.85 C12.06 75.72, 35.86 46.59, 53.21 26.38 M-8.06 102.97 C17.1 73.95, 39.58 48.2, 52.95 32.78 M-8.06 102.97 C9.36 81.63, 27.83 60.41, 52.95 32.78 M-1.11 101.07 C9.44 90.01, 22.12 76.56, 53.35 38.42 M-1.11 101.07 C11.56 86.42, 25.15 70.3, 53.35 38.42 M7.16 97.65 C26.61 77.48, 42.74 59.69, 53.09 44.82 M7.16 97.65 C18.05 84.48, 27.69 73.11, 53.09 44.82 M15.43 94.24 C27.71 83.25, 37.63 69.62, 52.82 51.22 M15.43 94.24 C26.16 81.89, 37.55 67.15, 52.82 51.22 M23.7 90.82 C35.83 77.11, 44.59 63.98, 52.56 57.62 M23.7 90.82 C34.39 78.69, 46.3 65.35, 52.56 57.62 M31.96 87.41 C37.93 79.65, 45.1 76.13, 52.3 64.02 M31.96 87.41 C38.87 79.54, 46.48 71.71, 52.3 64.02 M40.23 84 C41.73 80.96, 47.09 76.36, 52.7 69.66 M40.23 84 C42.47 80.52, 45.28 78.65, 52.7 69.66 M48.5 80.58 C49.7 78.9, 50.37 78.32, 52.43 76.06 M48.5 80.58 C50.19 78.73, 51.48 77.54, 52.43 76.06" stroke="#be4bdb" stroke-width="0.5" fill="none"></path><path d="M0 0 C-14.94 5.01, -29.97 10.51, -62.44 19.2 M0 0 C-20.16 5.79, -40.28 12.13, -62.44 19.2 M-62.44 19.2 C-61.73 31.34, -61.4 45.41, -63.18 79.44 M-62.44 19.2 C-63.52 32.63, -62.23 44.38, -63.18 79.44 M-63.18 79.44 C-48.53 84.44, -32.31 92.15, -7.62 103.65 M-63.18 79.44 C-49.93 84.78, -37.41 91.09, -7.62 103.65 M-7.62 103.65 C14.28 96.02, 36.43 87.15, 51.96 79.16 M-7.62 103.65 C12.12 95.56, 34.02 86.76, 51.96 79.16 M51.96 79.16 C51.78 65.65, 51.99 52.75, 53.24 21.29 M51.96 79.16 C52.24 65.21, 52.94 49.91, 53.24 21.29 M53.24 21.29 C37.15 14.08, 17.29 7.39, 0 0 M53.24 21.29 C42.7 16.57, 31.97 13.29, 0 0 M0 0 C0 0, 0 0, 0 0 M0 0 C0 0, 0 0, 0 0" stroke="#881fa3" stroke-width="1" fill="none"></path></g></g><mask></mask><g transform="translate(984.6017881120947 658.4842921340004) rotate(0 84.375 19.19999999999999)"><text x="84.375" y="0" font-family="Cascadia, Segoe UI Emoji" font-size="16px" fill="#1e1e1e" text-anchor="middle" style="white-space: pre;" direction="ltr" dominant-baseline="text-before-edge">死信交换机</text><text x="84.375" y="19.2" font-family="Cascadia, Segoe UI Emoji" font-size="16px" fill="#1e1e1e" text-anchor="middle" style="white-space: pre;" direction="ltr" dominant-baseline="text-before-edge">BI_failed_exchange</text></g><g stroke-linecap="round"><g transform="translate(739.294107185045 535.6420900807149) rotate(270.19262708229076 26.130466310641737 64.9614896642376)" fill-rule="evenodd"><path d="M2.08 -4.82 C2.08 -4.82, 2.08 -4.82, 2.08 -4.82 M2.08 -4.82 C2.08 -4.82, 2.08 -4.82, 2.08 -4.82 M0.51 3.09 C2.87 -1.54, 7.01 -5.24, 12.31 -10.5 M0.51 3.09 C3.93 -0.33, 6.29 -3.78, 12.31 -10.5 M0.24 9.49 C3.51 6.51, 10.09 -1.38, 18.61 -11.64 M0.24 9.49 C4.92 3.57, 11.34 -2.74, 18.61 -11.64 M0.64 15.13 C8.91 5.92, 14.84 1.38, 24.26 -12.04 M0.64 15.13 C5.22 9.04, 10.72 2.22, 24.26 -12.04 M0.38 21.53 C9.62 11.71, 17.07 3.87, 29.24 -11.68 M0.38 21.53 C11.73 7.97, 22.43 -4.73, 29.24 -11.68 M0.77 27.17 C11.62 11.79, 24.79 1.75, 33.57 -10.56 M0.77 27.17 C10.13 17.08, 18.57 7.84, 33.57 -10.56 M0.51 33.57 C6.96 23.37, 15.64 14.97, 37.91 -9.45 M0.51 33.57 C10.54 21.75, 21.63 9.5, 37.91 -9.45 M0.25 39.97 C9.64 30.05, 22.93 15.98, 42.24 -8.33 M0.25 39.97 C14.55 21.71, 30.01 4.23, 42.24 -8.33 M0.64 45.61 C15.15 30.13, 27.42 13.27, 46.57 -7.22 M0.64 45.61 C17.68 26.98, 33.58 7.45, 46.57 -7.22 M0.38 52.01 C17.04 32.28, 29.9 15.09, 48.93 -3.84 M0.38 52.01 C11.52 38.5, 22.65 26.6, 48.93 -3.84 M0.78 57.65 C14.44 40.91, 30.91 23.06, 51.29 -0.46 M0.78 57.65 C19.55 34.37, 40.53 13.72, 51.29 -0.46 M52.61 -1.97 C52.61 -1.97, 52.61 -1.97, 52.61 -1.97 M52.61 -1.97 C52.61 -1.97, 52.61 -1.97, 52.61 -1.97 M0.52 64.05 C12.46 50.86, 25.77 35.06, 52.34 4.43 M0.52 64.05 C17.72 44.92, 34.03 27.56, 52.34 4.43 M0.91 69.69 C17.77 47.83, 40.17 26.89, 52.08 10.82 M0.91 69.69 C18.22 49.76, 36.93 29.2, 52.08 10.82 M0.65 76.09 C20.65 53.25, 39.79 28.5, 52.48 16.47 M0.65 76.09 C12.25 61.39, 25.62 47.6, 52.48 16.47 M1.04 81.73 C21.63 61.38, 37.33 40.34, 52.22 22.86 M1.04 81.73 C17.32 62.51, 35.14 44.22, 52.22 22.86 M0.78 88.13 C15.1 74.02, 26.17 59.87, 52.61 28.51 M0.78 88.13 C15.49 71.8, 30.87 53.48, 52.61 28.51 M0.52 94.53 C17.65 74.39, 36.39 52.88, 52.35 34.91 M0.52 94.53 C16.77 75.67, 34.31 55.64, 52.35 34.91 M0.91 100.17 C11.55 85.89, 25.17 73.85, 52.09 41.3 M0.91 100.17 C15.94 83.27, 29.98 66.07, 52.09 41.3 M0.65 106.57 C18.76 88.1, 35.83 68.17, 52.48 46.95 M0.65 106.57 C12.34 93.1, 23.62 81.11, 52.48 46.95 M1.05 112.21 C22.12 92.5, 37.2 69.95, 52.22 53.34 M1.05 112.21 C17.79 93.36, 33.64 75.68, 52.22 53.34 M0.79 118.61 C12.65 102.47, 25.68 88.27, 52.61 58.99 M0.79 118.61 C16 99.3, 31.71 81.89, 52.61 58.99 M1.18 124.25 C18 105.89, 35.27 84.68, 52.35 65.39 M1.18 124.25 C19.94 103.97, 38.19 83.01, 52.35 65.39 M0.92 130.65 C19.48 108.82, 40.79 87.75, 52.09 71.78 M0.92 130.65 C12.12 118.97, 23.64 105.04, 52.09 71.78 M2.63 134.78 C20.02 115.95, 36.66 97.84, 52.49 77.43 M2.63 134.78 C14.21 121.43, 26.47 106.68, 52.49 77.43 M5.64 137.41 C20.28 119.97, 33.35 103.64, 52.23 83.82 M5.64 137.41 C15.75 126.32, 27.58 113.62, 52.23 83.82 M9.32 139.28 C26.06 120.88, 40.44 103.04, 52.62 89.47 M9.32 139.28 C20.78 125.48, 32.97 111.85, 52.62 89.47 M13.65 140.39 C26.45 124.59, 39.91 109.05, 52.36 95.86 M13.65 140.39 C24.44 127.09, 35.54 115.34, 52.36 95.86 M17.98 141.51 C28.47 129.73, 36.37 120.46, 52.1 102.26 M17.98 141.51 C26.03 130.14, 35.74 120.32, 52.1 102.26 M22.31 142.62 C31.44 130.47, 40.68 121.99, 52.49 107.91 M22.31 142.62 C28.1 135.76, 34.99 128.01, 52.49 107.91 M27.96 142.23 C36.8 133.4, 44.07 125.64, 52.23 114.3 M27.96 142.23 C35.38 133.53, 42.94 124.99, 52.23 114.3 M34.25 141.08 C40.17 134.6, 41.87 130.16, 52.62 119.95 M34.25 141.08 C40.61 134.22, 45.96 128.02, 52.62 119.95 M39.9 140.68 C44.23 136.89, 49.75 131.14, 52.36 126.34 M39.9 140.68 C44.07 137.79, 47.39 132.74, 52.36 126.34 M50.13 135.01 C50.62 134.66, 51.04 134.07, 51.45 133.5 M50.13 135.01 C50.61 134.37, 51.16 133.82, 51.45 133.5" stroke="#40c057" stroke-width="0.5" fill="none"></path><path d="M-0.39 -1.14 C-0.3 18.46, -0.41 95.49, -0.21 117.54 C-0.01 139.58, 0.24 128.03, 0.81 131.15 C1.38 134.27, 1.38 134.82, 3.22 136.24 C5.07 137.67, 7.91 138.56, 11.88 139.71 C15.85 140.86, 22.01 143.28, 27.05 143.14 C32.09 143, 37.97 140.22, 42.12 138.86 C46.26 137.5, 50.28 136.69, 51.9 134.98 C53.53 133.26, 51.8 131.21, 51.85 128.57 C51.9 125.93, 51.97 138.95, 52.19 119.12 C52.41 99.29, 53.08 29.64, 53.17 9.6 C53.27 -10.45, 53.37 1.66, 52.76 -1.14 C52.14 -3.93, 51.41 -5.79, 49.5 -7.17 C47.58 -8.55, 45.17 -8.52, 41.29 -9.41 C37.41 -10.3, 30.86 -12.36, 26.2 -12.49 C21.54 -12.62, 17.23 -11.29, 13.32 -10.18 C9.4 -9.06, 5.02 -7.39, 2.71 -5.8 C0.4 -4.22, -0.14 -1.73, -0.52 -0.69 C-0.9 0.35, 0.49 0.39, 0.43 0.45 M1.6 0.88 C1.57 20.14, -1.17 94.38, -1.36 115.79 C-1.55 137.2, -0.39 125.72, 0.46 129.35 C1.31 132.97, 2.1 135.84, 3.75 137.55 C5.39 139.25, 6.27 138.73, 10.31 139.57 C14.36 140.4, 22.7 142.39, 28.03 142.57 C33.37 142.75, 38.42 141.9, 42.31 140.66 C46.2 139.42, 49.46 136.82, 51.35 135.13 C53.25 133.44, 53.43 133.22, 53.69 130.53 C53.95 127.84, 53.46 139.02, 52.9 119.01 C52.35 99.01, 50.54 30.63, 50.36 10.47 C50.18 -9.68, 51.82 0.64, 51.8 -1.91 C51.78 -4.46, 52.12 -3.57, 50.23 -4.84 C48.35 -6.11, 44.38 -8.16, 40.5 -9.54 C36.63 -10.93, 31.88 -12.67, 26.99 -13.14 C22.1 -13.6, 15.39 -13.61, 11.17 -12.34 C6.96 -11.06, 3.3 -7.42, 1.7 -5.48 C0.11 -3.53, 2 -1.72, 1.59 -0.65 C1.18 0.42, -0.32 0.6, -0.73 0.94" stroke="#087f5b" stroke-width="1" fill="none"></path></g></g><mask></mask><g stroke-linecap="round"><g transform="translate(765.4200941600816 596.5878678892971) rotate(270.19262708229076 25.358738319623853 5.765431739611103)"><path d="M-0.38 0.72 C0.04 1.92, 0.8 4.6, 2.14 6.09 C3.47 7.59, 5.55 8.89, 7.63 9.69 C9.7 10.48, 11.54 10.31, 14.59 10.86 C17.65 11.41, 21.74 13.24, 25.96 13.01 C30.19 12.79, 35.96 10.77, 39.94 9.51 C43.93 8.25, 48.14 7.24, 49.89 5.46 C51.64 3.67, 50.32 -0.29, 50.44 -1.18 M1.62 0.05 C1.99 1.03, 0.69 3.26, 1.61 4.51 C2.53 5.76, 4.95 6.39, 7.14 7.54 C9.33 8.69, 11.32 10.37, 14.75 11.43 C18.18 12.48, 23.37 13.84, 27.73 13.87 C32.09 13.9, 37.64 13.17, 40.91 11.62 C44.18 10.08, 45.96 6.84, 47.35 4.6 C48.74 2.36, 49.01 -0.91, 49.26 -1.84" stroke="#087f5b" stroke-width="1" fill="none"></path></g></g><mask></mask><g stroke-linecap="round"><g transform="translate(719.4921810384781 597.4267922810253) rotate(270.19262708229076 25.286239536301878 4.621570289024788)"><path d="M0.8 1.03 C1.17 1.65, 0.84 3.53, 1.86 4.43 C2.88 5.34, 4.9 5.44, 6.91 6.44 C8.91 7.44, 10.75 10.04, 13.91 10.42 C17.07 10.8, 21.24 8.92, 25.85 8.74 C30.46 8.56, 37.8 10.29, 41.59 9.33 C45.37 8.38, 47.08 4.55, 48.56 3.02 C50.04 1.5, 49.97 0.81, 50.47 0.19 M-0.24 0.52 C0.06 0.71, 0.14 1.39, 1.19 2.51 C2.24 3.63, 3.96 6.25, 6.05 7.22 C8.14 8.19, 10.14 8.1, 13.73 8.33 C17.32 8.57, 23.24 8.55, 27.59 8.62 C31.94 8.7, 36.24 9.39, 39.81 8.78 C43.39 8.18, 47.46 6.45, 49.06 5.02 C50.65 3.59, 49.16 1.39, 49.39 0.2" stroke="#087f5b" stroke-width="1" fill="none"></path></g></g><mask></mask><g stroke-linecap="round" transform="translate(672.9225870623022 589.1907394754428) rotate(270.19262708229076 25.639064267762706 11.398576284497949)"><path d="M28.14 0.52 C33.19 0.65, 39.65 2.1, 43.64 3.76 C47.63 5.41, 51.53 7.89, 52.09 10.46 C52.64 13.03, 50.56 17.2, 46.98 19.18 C43.4 21.17, 36.03 22.15, 30.62 22.39 C25.2 22.62, 19.34 21.69, 14.49 20.59 C9.64 19.49, 3.64 17.94, 1.53 15.8 C-0.59 13.67, 0.15 10.2, 1.8 7.78 C3.45 5.37, 6.59 2.44, 11.41 1.31 C16.24 0.19, 27.68 1.08, 30.73 1.05 C33.78 1.03, 29.87 1.26, 29.72 1.16 M32.83 0.16 C37.57 0.67, 42.8 2.26, 45.77 4.34 C48.74 6.42, 50.82 10.28, 50.66 12.65 C50.49 15.02, 48.42 16.99, 44.79 18.58 C41.15 20.17, 34.31 21.64, 28.85 22.19 C23.38 22.75, 16.79 23.2, 12.01 21.91 C7.22 20.62, 1.82 17.16, 0.13 14.44 C-1.57 11.71, -0.66 7.64, 1.85 5.56 C4.36 3.48, 10.21 2.92, 15.18 1.96 C20.15 1, 28.93 0.22, 31.66 -0.21 C34.39 -0.65, 31.51 -1.19, 31.54 -0.65" stroke="none" stroke-width="0" fill="#fff"></path><path d="M24.54 -0.68 C29.73 -0.76, 35.4 1.41, 39.86 2.92 C44.31 4.43, 49.89 6.15, 51.28 8.38 C52.67 10.61, 50.64 13.91, 48.21 16.29 C45.77 18.66, 41.63 21.51, 36.67 22.64 C31.71 23.77, 23.93 23.76, 18.46 23.09 C12.99 22.42, 7.05 20.77, 3.86 18.6 C0.67 16.44, -1.34 12.54, -0.67 10.1 C0 7.66, 2.96 5.48, 7.88 3.94 C12.8 2.4, 24.44 1.31, 28.84 0.86 C33.24 0.41, 34.41 1.24, 34.26 1.24 M17.99 -0.01 C22.84 -1.09, 31.41 -1.72, 36.44 -0.41 C41.46 0.89, 46.02 5.24, 48.13 7.82 C50.24 10.4, 50.24 13.05, 49.09 15.1 C47.94 17.14, 45.34 19, 41.25 20.1 C37.15 21.2, 30.17 21.78, 24.53 21.7 C18.88 21.63, 11.33 21.4, 7.37 19.65 C3.42 17.91, 1.42 13.71, 0.8 11.23 C0.18 8.74, 0.49 6.74, 3.65 4.76 C6.81 2.78, 17.31 0.15, 19.75 -0.64 C22.2 -1.43, 18.39 -0.28, 18.33 0.02" stroke="#087f5b" stroke-width="1" fill="none"></path></g><g transform="translate(690.2565990469329 642.4431252127193) rotate(0 70.3125 19.19999999999999)"><text x="70.3125" y="0" font-family="Cascadia, Segoe UI Emoji" font-size="16px" fill="#1e1e1e" text-anchor="middle" style="white-space: pre;" direction="ltr" dominant-baseline="text-before-edge">失败任务队列</text><text x="70.3125" y="19.2" font-family="Cascadia, Segoe UI Emoji" font-size="16px" fill="#1e1e1e" text-anchor="middle" style="white-space: pre;" direction="ltr" dominant-baseline="text-before-edge">BI_failed_queue</text></g><g mask="url(#mask-bPEFdiYPuASbHxGzaHsBl)" stroke-linecap="round"><g transform="translate(677.7267118181494 596.8176508986488) rotate(0 -283.33333969116205 -103.75)"><path d="M-0.04 -0.09 C-64.68 -3.57, -293.9 13.89, -388.5 -20.77 C-483.1 -55.43, -537.78 -176.8, -567.62 -208.06 M-1.51 -1.19 C-65.74 -4.53, -292.36 14.67, -386.31 -19.64 C-480.26 -53.94, -534.98 -175.7, -565.23 -207.04" stroke="#1e1e1e" stroke-width="2" fill="none"></path></g><g transform="translate(677.7267118181494 596.8176508986488) rotate(0 -283.33333969116205 -103.75)"><path d="M-544.6 -192.91 C-549.89 -198.1, -556.15 -201.53, -565.23 -207.04 M-544.6 -192.91 C-549.69 -195.86, -554.64 -199.53, -565.23 -207.04" stroke="#1e1e1e" stroke-width="2" fill="none"></path></g><g transform="translate(677.7267118181494 596.8176508986488) rotate(0 -283.33333969116205 -103.75)"><path d="M-558.5 -182.96 C-560.34 -190.61, -563.14 -196.53, -565.23 -207.04 M-558.5 -182.96 C-560 -188.33, -561.43 -194.52, -565.23 -207.04" stroke="#1e1e1e" stroke-width="2" fill="none"></path></g></g><mask id="mask-bPEFdiYPuASbHxGzaHsBl"><rect x="0" y="0" fill="#fff" width="1344.3933912004736" height="904.3176508986488"></rect><rect x="210.2267118181494" y="548.0176508986488" fill="#000" width="160" height="57.599999999999994" opacity="1"></rect></mask><g transform="translate(210.2267118181495 548.0176508986488) rotate(0 183.67217031121243 -54.58198879224608)"><text x="80" y="0" font-family="Cascadia, Segoe UI Emoji" font-size="16px" fill="#1e1e1e" text-anchor="middle" style="white-space: pre;" direction="ltr" dominant-baseline="text-before-edge">监听失败任务</text><text x="80" y="19.2" font-family="Cascadia, Segoe UI Emoji" font-size="16px" fill="#1e1e1e" text-anchor="middle" style="white-space: pre;" direction="ltr" dominant-baseline="text-before-edge">通知用户图表分析失败</text><text x="80" y="38.4" font-family="Cascadia, Segoe UI Emoji" font-size="16px" fill="#1e1e1e" text-anchor="middle" style="white-space: pre;" direction="ltr" dominant-baseline="text-before-edge">修改数据库图表状态</text></g><g mask="url(#mask-S7FLA5F75xiShFcmd-fCy)" stroke-linecap="round"><g transform="translate(1156.0600705827978 417.65093336935195) rotate(0 69.8718939342125 94.59881573099176)"><path d="M-0.95 0.77 C21.5 12.67, 109.53 42.63, 135.85 70.29 C162.16 97.95, 184.6 146.96, 156.93 166.76 C129.26 186.55, 1 185.48, -30.16 189.06 M0.76 0.13 C23.48 11.82, 112.13 40.83, 138.13 68.76 C164.12 96.68, 184.84 147.99, 156.75 167.68 C128.65 187.37, 0.4 183.4, -30.44 186.89" stroke="#1e1e1e" stroke-width="2" fill="none"></path></g><g transform="translate(1156.0600705827978 417.65093336935195) rotate(0 69.8718939342125 94.59881573099176)"><path d="M-7.31 177.4 C-15.35 179.64, -24.01 186.64, -30.44 186.89 M-7.31 177.4 C-13.63 179.76, -17.43 183.04, -30.44 186.89" stroke="#1e1e1e" stroke-width="2" fill="none"></path></g><g transform="translate(1156.0600705827978 417.65093336935195) rotate(0 69.8718939342125 94.59881573099176)"><path d="M-6.62 194.49 C-14.78 189.9, -23.71 190.06, -30.44 186.89 M-6.62 194.49 C-12.96 192.79, -16.92 191.99, -30.44 186.89" stroke="#1e1e1e" stroke-width="2" fill="none"></path></g></g><mask id="mask-S7FLA5F75xiShFcmd-fCy"><rect x="0" y="0" fill="#fff" width="1441.0600705827978" height="705.9842921340004"></rect><rect x="1274.467545508432" y="524.8169876210793" fill="#000" width="96" height="19.2" opacity="1"></rect></mask><g transform="translate(1274.467545508432 524.8169876210793) rotate(0 -48.53558099142174 -12.5672385207356)"><text x="48" y="0" font-family="Cascadia, Segoe UI Emoji" font-size="16px" fill="#1e1e1e" text-anchor="middle" style="white-space: pre;" direction="ltr" dominant-baseline="text-before-edge">图表分析失败</text></g><g stroke-linecap="round"><g transform="translate(996.0600705827978 604.3176508986488) rotate(0 -74.58335876464844 -0.41667938232421875)"><path d="M-0.9 0.86 C-26.04 0.73, -125.39 -1, -150.16 -1.41 M0.83 0.26 C-24.01 0.34, -122.75 -0.01, -147.97 -0.17" stroke="#1e1e1e" stroke-width="2" fill="none"></path></g><g transform="translate(996.0600705827978 604.3176508986488) rotate(0 -74.58335876464844 -0.41667938232421875)"><path d="M-124.44 -8.61 C-131.47 -7.43, -142.26 -3.42, -147.97 -0.17 M-124.44 -8.61 C-129.4 -5.76, -135.63 -3.73, -147.97 -0.17" stroke="#1e1e1e" stroke-width="2" fill="none"></path></g><g transform="translate(996.0600705827978 604.3176508986488) rotate(0 -74.58335876464844 -0.41667938232421875)"><path d="M-124.52 8.49 C-131.43 3.56, -142.19 1.47, -147.97 -0.17 M-124.52 8.49 C-129.49 7.34, -135.7 5.38, -147.97 -0.17" stroke="#1e1e1e" stroke-width="2" fill="none"></path></g></g><mask></mask></svg>